<mxfile host="drawio-plugin" modified="2024-08-25T23:56:52.110Z" agent="Mozilla/5.0 (Windows NT 10.0; Win64; x64) AppleWebKit/537.36 (KHTML, like Gecko) Chrome/122.0.0.0 Safari/537.36" etag="rcad9yApzHj_cD12vH9_" version="22.1.22" type="embed">
  <diagram id="fvl-Gm5xsrE1H2hAeGg3" name="Page-1">
    <mxGraphModel dx="2550" dy="1458" grid="1" gridSize="10" guides="1" tooltips="1" connect="1" arrows="1" fold="1" page="1" pageScale="1" pageWidth="850" pageHeight="1100" math="0" shadow="0">
      <root>
        <mxCell id="0" />
        <mxCell id="1" parent="0" />
        <mxCell id="2" value="Salon" style="swimlane;fontStyle=1;align=center;verticalAlign=top;childLayout=stackLayout;horizontal=1;startSize=26;horizontalStack=0;resizeParent=1;resizeParentMax=0;resizeLast=0;collapsible=1;marginBottom=0;whiteSpace=wrap;html=1;" parent="1" vertex="1">
          <mxGeometry x="390" y="150" width="160" height="60" as="geometry" />
        </mxCell>
        <mxCell id="3" value="nombre:String" style="text;strokeColor=none;fillColor=none;align=left;verticalAlign=top;spacingLeft=4;spacingRight=4;overflow=hidden;rotatable=0;points=[[0,0.5],[1,0.5]];portConstraint=eastwest;whiteSpace=wrap;html=1;" parent="2" vertex="1">
          <mxGeometry y="26" width="160" height="26" as="geometry" />
        </mxCell>
        <mxCell id="4" value="" style="line;strokeWidth=1;fillColor=none;align=left;verticalAlign=middle;spacingTop=-1;spacingLeft=3;spacingRight=3;rotatable=0;labelPosition=right;points=[];portConstraint=eastwest;strokeColor=inherit;" parent="2" vertex="1">
          <mxGeometry y="52" width="160" height="8" as="geometry" />
        </mxCell>
        <mxCell id="6" value="Cita" style="swimlane;fontStyle=1;align=center;verticalAlign=top;childLayout=stackLayout;horizontal=1;startSize=26;horizontalStack=0;resizeParent=1;resizeParentMax=0;resizeLast=0;collapsible=1;marginBottom=0;whiteSpace=wrap;html=1;" parent="1" vertex="1">
          <mxGeometry x="100" y="310" width="180" height="78" as="geometry" />
        </mxCell>
        <mxCell id="7" value="fecha:LocalDate&lt;br&gt;empleadoAsociado:Empleado&lt;br&gt;clienteAsociado:Cliente" style="text;strokeColor=none;fillColor=none;align=left;verticalAlign=top;spacingLeft=4;spacingRight=4;overflow=hidden;rotatable=0;points=[[0,0.5],[1,0.5]];portConstraint=eastwest;whiteSpace=wrap;html=1;" parent="6" vertex="1">
          <mxGeometry y="26" width="180" height="44" as="geometry" />
        </mxCell>
        <mxCell id="8" value="" style="line;strokeWidth=1;fillColor=none;align=left;verticalAlign=middle;spacingTop=-1;spacingLeft=3;spacingRight=3;rotatable=0;labelPosition=right;points=[];portConstraint=eastwest;strokeColor=inherit;" parent="6" vertex="1">
          <mxGeometry y="70" width="180" height="8" as="geometry" />
        </mxCell>
        <mxCell id="10" value="Cliente" style="swimlane;fontStyle=1;align=center;verticalAlign=top;childLayout=stackLayout;horizontal=1;startSize=26;horizontalStack=0;resizeParent=1;resizeParentMax=0;resizeLast=0;collapsible=1;marginBottom=0;whiteSpace=wrap;html=1;" parent="1" vertex="1">
          <mxGeometry x="390" y="310" width="160" height="88" as="geometry" />
        </mxCell>
        <mxCell id="11" value="nombre:String&lt;br&gt;cedula:String&lt;br&gt;telefono:String" style="text;strokeColor=none;fillColor=none;align=left;verticalAlign=top;spacingLeft=4;spacingRight=4;overflow=hidden;rotatable=0;points=[[0,0.5],[1,0.5]];portConstraint=eastwest;whiteSpace=wrap;html=1;" parent="10" vertex="1">
          <mxGeometry y="26" width="160" height="54" as="geometry" />
        </mxCell>
        <mxCell id="12" value="" style="line;strokeWidth=1;fillColor=none;align=left;verticalAlign=middle;spacingTop=-1;spacingLeft=3;spacingRight=3;rotatable=0;labelPosition=right;points=[];portConstraint=eastwest;strokeColor=inherit;" parent="10" vertex="1">
          <mxGeometry y="80" width="160" height="8" as="geometry" />
        </mxCell>
        <mxCell id="14" value="Empleado" style="swimlane;fontStyle=1;align=center;verticalAlign=top;childLayout=stackLayout;horizontal=1;startSize=26;horizontalStack=0;resizeParent=1;resizeParentMax=0;resizeLast=0;collapsible=1;marginBottom=0;whiteSpace=wrap;html=1;" parent="1" vertex="1">
          <mxGeometry x="670" y="310" width="160" height="88" as="geometry" />
        </mxCell>
        <mxCell id="15" value="nombre:String&lt;br&gt;idEmpleado:String&lt;br&gt;apellido:String" style="text;strokeColor=none;fillColor=none;align=left;verticalAlign=top;spacingLeft=4;spacingRight=4;overflow=hidden;rotatable=0;points=[[0,0.5],[1,0.5]];portConstraint=eastwest;whiteSpace=wrap;html=1;" parent="14" vertex="1">
          <mxGeometry y="26" width="160" height="54" as="geometry" />
        </mxCell>
        <mxCell id="16" value="" style="line;strokeWidth=1;fillColor=none;align=left;verticalAlign=middle;spacingTop=-1;spacingLeft=3;spacingRight=3;rotatable=0;labelPosition=right;points=[];portConstraint=eastwest;strokeColor=inherit;" parent="14" vertex="1">
          <mxGeometry y="80" width="160" height="8" as="geometry" />
        </mxCell>
        <mxCell id="23" value="" style="endArrow=diamondThin;endFill=1;endSize=24;html=1;rounded=0;entryX=0;entryY=0.25;entryDx=0;entryDy=0;exitX=0.5;exitY=0;exitDx=0;exitDy=0;" parent="1" source="6" target="2" edge="1">
          <mxGeometry width="160" relative="1" as="geometry">
            <mxPoint x="280" y="300" as="sourcePoint" />
            <mxPoint x="440" y="300" as="targetPoint" />
            <Array as="points">
              <mxPoint x="190" y="165" />
            </Array>
          </mxGeometry>
        </mxCell>
        <mxCell id="25" value="" style="endArrow=diamondThin;endFill=1;endSize=24;html=1;rounded=0;entryX=0.5;entryY=1;entryDx=0;entryDy=0;exitX=0.5;exitY=0;exitDx=0;exitDy=0;" parent="1" source="10" target="2" edge="1">
          <mxGeometry width="160" relative="1" as="geometry">
            <mxPoint x="410" y="260" as="sourcePoint" />
            <mxPoint x="570" y="260" as="targetPoint" />
            <Array as="points">
              <mxPoint x="470" y="250" />
            </Array>
          </mxGeometry>
        </mxCell>
        <mxCell id="26" value="" style="endArrow=diamondThin;endFill=1;endSize=24;html=1;rounded=0;entryX=1;entryY=0.25;entryDx=0;entryDy=0;exitX=0.5;exitY=0;exitDx=0;exitDy=0;" parent="1" source="14" target="2" edge="1">
          <mxGeometry width="160" relative="1" as="geometry">
            <mxPoint x="410" y="260" as="sourcePoint" />
            <mxPoint x="570" y="260" as="targetPoint" />
            <Array as="points">
              <mxPoint x="750" y="165" />
            </Array>
          </mxGeometry>
        </mxCell>
        <mxCell id="27" value="OwendBySalon" style="text;html=1;align=center;verticalAlign=middle;resizable=0;points=[];autosize=1;strokeColor=none;fillColor=none;" parent="1" vertex="1">
          <mxGeometry x="570" y="140" width="110" height="30" as="geometry" />
        </mxCell>
        <mxCell id="28" value="OwendBySalon" style="text;html=1;align=center;verticalAlign=middle;resizable=0;points=[];autosize=1;strokeColor=none;fillColor=none;" parent="1" vertex="1">
          <mxGeometry x="480" y="240" width="110" height="30" as="geometry" />
        </mxCell>
        <mxCell id="29" value="OwendBySalon" style="text;html=1;align=center;verticalAlign=middle;resizable=0;points=[];autosize=1;strokeColor=none;fillColor=none;" parent="1" vertex="1">
          <mxGeometry x="260" y="140" width="110" height="30" as="geometry" />
        </mxCell>
        <mxCell id="31" value="Cita" style="swimlane;fontStyle=1;align=center;verticalAlign=top;childLayout=stackLayout;horizontal=1;startSize=26;horizontalStack=0;resizeParent=1;resizeParentMax=0;resizeLast=0;collapsible=1;marginBottom=0;whiteSpace=wrap;html=1;" parent="1" vertex="1">
          <mxGeometry x="390" y="455" width="170" height="78" as="geometry" />
        </mxCell>
        <mxCell id="32" value="fecha:LocalDate&lt;br style=&quot;border-color: var(--border-color);&quot;&gt;empleadoAsociado:Empleado&lt;br style=&quot;border-color: var(--border-color);&quot;&gt;clienteAsociado:Cliente" style="text;strokeColor=none;fillColor=none;align=left;verticalAlign=top;spacingLeft=4;spacingRight=4;overflow=hidden;rotatable=0;points=[[0,0.5],[1,0.5]];portConstraint=eastwest;whiteSpace=wrap;html=1;" parent="31" vertex="1">
          <mxGeometry y="26" width="170" height="44" as="geometry" />
        </mxCell>
        <mxCell id="33" value="" style="line;strokeWidth=1;fillColor=none;align=left;verticalAlign=middle;spacingTop=-1;spacingLeft=3;spacingRight=3;rotatable=0;labelPosition=right;points=[];portConstraint=eastwest;strokeColor=inherit;" parent="31" vertex="1">
          <mxGeometry y="70" width="170" height="8" as="geometry" />
        </mxCell>
        <mxCell id="38" value="Cliente" style="swimlane;fontStyle=1;align=center;verticalAlign=top;childLayout=stackLayout;horizontal=1;startSize=26;horizontalStack=0;resizeParent=1;resizeParentMax=0;resizeLast=0;collapsible=1;marginBottom=0;whiteSpace=wrap;html=1;" parent="1" vertex="1">
          <mxGeometry x="10" y="450" width="160" height="88" as="geometry" />
        </mxCell>
        <mxCell id="39" value="nombre:String&lt;br&gt;cedula:String&lt;br&gt;telefono:String" style="text;strokeColor=none;fillColor=none;align=left;verticalAlign=top;spacingLeft=4;spacingRight=4;overflow=hidden;rotatable=0;points=[[0,0.5],[1,0.5]];portConstraint=eastwest;whiteSpace=wrap;html=1;" parent="38" vertex="1">
          <mxGeometry y="26" width="160" height="54" as="geometry" />
        </mxCell>
        <mxCell id="40" value="" style="line;strokeWidth=1;fillColor=none;align=left;verticalAlign=middle;spacingTop=-1;spacingLeft=3;spacingRight=3;rotatable=0;labelPosition=right;points=[];portConstraint=eastwest;strokeColor=inherit;" parent="38" vertex="1">
          <mxGeometry y="80" width="160" height="8" as="geometry" />
        </mxCell>
        <mxCell id="41" value="Empleado" style="swimlane;fontStyle=1;align=center;verticalAlign=top;childLayout=stackLayout;horizontal=1;startSize=26;horizontalStack=0;resizeParent=1;resizeParentMax=0;resizeLast=0;collapsible=1;marginBottom=0;whiteSpace=wrap;html=1;" parent="1" vertex="1">
          <mxGeometry x="790" y="455" width="160" height="88" as="geometry" />
        </mxCell>
        <mxCell id="42" value="nombre:String&lt;br&gt;idEmpleado:String&lt;br&gt;apellido:String" style="text;strokeColor=none;fillColor=none;align=left;verticalAlign=top;spacingLeft=4;spacingRight=4;overflow=hidden;rotatable=0;points=[[0,0.5],[1,0.5]];portConstraint=eastwest;whiteSpace=wrap;html=1;" parent="41" vertex="1">
          <mxGeometry y="26" width="160" height="54" as="geometry" />
        </mxCell>
        <mxCell id="43" value="" style="line;strokeWidth=1;fillColor=none;align=left;verticalAlign=middle;spacingTop=-1;spacingLeft=3;spacingRight=3;rotatable=0;labelPosition=right;points=[];portConstraint=eastwest;strokeColor=inherit;" parent="41" vertex="1">
          <mxGeometry y="80" width="160" height="8" as="geometry" />
        </mxCell>
        <mxCell id="44" value="" style="endArrow=none;html=1;rounded=0;entryX=0;entryY=0.5;entryDx=0;entryDy=0;exitX=1;exitY=0.5;exitDx=0;exitDy=0;" parent="1" source="39" target="32" edge="1">
          <mxGeometry width="50" height="50" relative="1" as="geometry">
            <mxPoint x="280" y="498" as="sourcePoint" />
            <mxPoint x="340" y="455" as="targetPoint" />
          </mxGeometry>
        </mxCell>
        <mxCell id="45" value="1" style="text;html=1;align=center;verticalAlign=middle;resizable=0;points=[];autosize=1;strokeColor=none;fillColor=none;" parent="1" vertex="1">
          <mxGeometry x="165" y="479" width="30" height="30" as="geometry" />
        </mxCell>
        <mxCell id="46" value="ClienteAsociado" style="text;html=1;align=center;verticalAlign=middle;resizable=0;points=[];autosize=1;strokeColor=none;fillColor=none;" parent="1" vertex="1">
          <mxGeometry x="160" y="495" width="110" height="30" as="geometry" />
        </mxCell>
        <mxCell id="49" value="" style="endArrow=none;html=1;rounded=0;exitX=1;exitY=0.5;exitDx=0;exitDy=0;entryX=-0.008;entryY=0.411;entryDx=0;entryDy=0;entryPerimeter=0;" parent="1" source="32" target="42" edge="1">
          <mxGeometry width="50" height="50" relative="1" as="geometry">
            <mxPoint x="650" y="515" as="sourcePoint" />
            <mxPoint x="700" y="465" as="targetPoint" />
          </mxGeometry>
        </mxCell>
        <mxCell id="50" value="1" style="text;html=1;align=center;verticalAlign=middle;resizable=0;points=[];autosize=1;strokeColor=none;fillColor=none;" parent="1" vertex="1">
          <mxGeometry x="765" y="473" width="30" height="30" as="geometry" />
        </mxCell>
        <mxCell id="51" value="EmpleadoAsociado" style="text;html=1;align=center;verticalAlign=middle;resizable=0;points=[];autosize=1;strokeColor=none;fillColor=none;" parent="1" vertex="1">
          <mxGeometry x="665" y="503" width="130" height="30" as="geometry" />
        </mxCell>
        <mxCell id="52" value="CitasAsociada" style="text;html=1;align=center;verticalAlign=middle;resizable=0;points=[];autosize=1;strokeColor=none;fillColor=none;" parent="1" vertex="1">
          <mxGeometry x="550" y="479" width="100" height="30" as="geometry" />
        </mxCell>
        <mxCell id="53" value="*" style="text;html=1;align=center;verticalAlign=middle;resizable=0;points=[];autosize=1;strokeColor=none;fillColor=none;" parent="1" vertex="1">
          <mxGeometry x="550" y="503" width="30" height="30" as="geometry" />
        </mxCell>
        <mxCell id="56" value="" style="shape=image;verticalLabelPosition=bottom;labelBackgroundColor=default;verticalAlign=top;aspect=fixed;imageAspect=0;image=data:image/png,iVBORw0KGgoAAAANSUhEUgAAAiQAAAIQCAYAAACxGHXLAAAAAXNSR0IArs4c6QAAAARnQU1BAACxjwv8YQUAAAAJcEhZcwAADsMAAA7DAcdvqGQAAP+lSURBVHhe7P1/aBtX9v+PP/MlvHEgCzK4IEEXopBCZLIQhZRPZBL4WCYFyyRQmRQqk+WbKl3oygnfrp3AvuL2j9TpB7x2X+BIu7C1EsgiF1LsQoIUaLDyRxc7kGAtdLEKCVagBZlvAxIkYEMC93PuzB1pNBrZ419R2p4HKNHM3Llz7rnnnHtm5l55hyDAMAzDMAzTRP4/6n+GYRiGYZimwQkJwzAMwzBNhxMShmEYhmGaDickDMMwDMM0HU5IGIZhGIZpOpyQMAzDMAzTdDghYRiGYRim6XBCwjAMwzBM0+GEhGEYhmGYpsMJCcMwDMMwTYcTEoZhGIZhmg4nJAzDMAzDNB1OSBiGYRiGaTqckDAMwzAM03Q4IWEYhmEYpulwQsIwDMMwTNPhhIRhGIZhmKbDCQnDMAzDME2HExKGYRiGYZoOJyQMwzAMwzQdTkgYhmEYhmk6nJAwDMMwDNN0OCFhGIZhGKbpcELC/AopIPHODuzY0ejTir3+Q+g5n8TcU3VKhSz6bc9p8DmfVedJHJz7xl4cCvZi8Pocyi/VaRXWktv0eSdBpQ02I7OJ5wVk/nYWPW+3w2OU9bTj0MmzGPsqbyMvcbe/tu41P/0k7WqY29KK3n8tqf1mzHrqQuKx2m2LVad7MXRfHbLFfP1aWQtXu6r1NNJhI16WMXd9EL3BQ9j7hlG/B+1v96D/ahaFFVWOYX7DcELC/AYpo/CfHDJXz6Kjkwadstr9KnhaQO7eNMY+6ID3JCUVdoN8EyjfG0KHdy96LiaReZhHJQ1YyiN3O4nBSDu8b/dj+ie1/5VQxvTlYWSfq82N8N9ppO6q7xoFTN6aU99fEeU5DHV60fHBGKbv5VCoJMFLyD/MIHG+C3tJt6/UDhnmNYQTEua3zX8T6P3TZHUAfoWU7wzhyu3m3xqX7/ajI3jF5mlRLeX/kK66hzD3KpOoxwkMXc2pjfWTvzMFa/pR+DKF7Ctsw9xIH678e41so4l2yDCvC5yQML9ygog/EhCi+lkuLSD9cQAuVaL89RSytoNxDDOm82w/40FV1or9ufLaqTNeVaaM5N1Gj/7r5a75fBuDUUst65T5eRZDf04grzZdRweQyhWx/EIvu/zjPFImXeG/VzBqfo1yPF5X/8w5dYyIfVt7TIg4tWx9zP3P4BqvZRoxh9Q/VTqyL4aBD1UrnqYw+coSwSymvjRerrkQ+nwWxWdKF8tFzI5H4FNHy1/Hkfqv2mCY3yCckDC/OVpcPoS+SGDwsNpBiUHpFT0ul9eOvB9SW8STgmkuyKtn6etEdbCn5GL+3igiB91o2anvannTj8gXGaTOBRA4NYD4twtIvu/WD74yKGn6fJp6aZ38O41J1Tb/B1EMd/eqxIoSwa82UN8GWakku32IXQjAvVtttrgRODeGgXfVNiVQ+TxPJmF+u3BCwjCvkJWf5pD4MqO2AO/hQw2edLwKysjemVbfXTRYxuBViUgtdGc/PovZm6OIHffB1aJ2bzsuuNr0b+XrQxhddTJqPXOZSZXs+dHb7UfLiQj6VH34egpTr+T9iBe+4+orEoi+M4jk/TzKlbzDjeh09QnSxKlXplyGee3ghIT5zbHyNI/MX2IYfah20KDhsb3pT6CrsuLC7rPaihH7c3f9vgP9XxvPRAKIhgPqu5Us+t+qP1/71KywsbIemecxf099RRAdfvX1taEPw58aL3jyuPLpOiYBP59G0nhVcqQP4YP0/84g+j400r9pTFb6YTvxIvrXgcprmaV7YzgbaEfrLrnSqwu9FxPI/GcJK6/J5GaGaSackDC/cuoH9l1vtKPnf+cqj+y95yIIGY/RXxXuIIazGVySA2UTqb5O8MBtPD14jfB9NIxLB9TG3SEMfuXsscbK3QymVNsC4VAlIQiEIpUnUtnJ6crcme2kpXMUs9lhhPZUZuIQcqVXFtN/60eP3wPPW70Ye/iqXiIxzOsJJyTMbxrX0UtIXQ7ilT0ofzOM0cw8ioUZXOo0D1CMLTsDGBwxJvA6XQZM5b5KqoQzgN5uIx0hjvYgsk99v59Aap2vgTaKq/MS0o+KKObSiH8SReigV81n0Sk/mcbg2x1r/EYKw/y64YSE+e3h9sF/OITYtVkU7g0j0DAvWGvFymorRoxzl1H8ju6OjacPP01j+GoGxTXnLq6yyqbhChvJRmUuIP9EfX3NcHUPYfiU6iQny4CXpjD1tfqOOQz+wfyErANXKit2XvFvkuxsgfsg2d3lCaRziygtl7CYS2Gg03hfmMeVLyYrT+4Y5rcGJyTMrxybgb24gPkHdKd6JgCX7STOrYQGIfkUZjJWXd55ZwjB1+I3J7zwdauvmEUu97qu8HAj8j+DMGbbyGXAY6tM/1i6k4ExVXcttvs3SbJ/aa0kQ11XLUK3uOA9GMHorQSiahe+nsW8+sowvzU4IWGYV4Dr+DBGP6o+1yh/HUPM9mfRXyVeBDuNYb6M5D+SDSeN5v6fLrSf7Efidg5Lm/nl1I1ycADDHxspXQGFhr9Lkkfqn07TEWKbf5PkkL/6PCo7OYmcnX6fl1BSXxnmtwwnJAzzSpA/ijWKaGXiqD4fItPk5/O+DwerMslfbH1nEJkfyjCG6JWfcpi82IXQ/2SRv51A/8lDCP/jVUwFtdKC4KfDJv014L8ZTBnzMI7HsWh+Mmb6zH5iJIfb+5skru5eRAyZ7w+h748JzP1U0S7KP2QweGqw+kTniBce9ZVhfmtwQsIwDVlrCS19Vl2Ca8EVxujfo9XJjI8TGPxiq+cwrFNmKZPpdZJcltrja8UuVXbX7w+h72/Z6uulAwMY/sg0SfRVQrJeqiwDtmfuJg34+lcET4QazrUJhKOorHLeyG+SmP/Qnt3H+ON7bREM/qW6tDv/FSV9v9+lyu1Cq68HY5WflXch/Oe+Sl8wzG8NTkgY5hXiOjWK5JnqLNr8ZwO48h+10SRcx+PI3ozBv8bTB9fBCFLfjCL4qpdIm/CalwFbeTmH9FdGqhVEuLvx1F8cDKPviPq+zb9J4r8wjakP10ozXPB/PIXk6Vf9K7gM8/rACQnDvFLoLviLFGLG0lO6nx/9vPkTXN2n4pjPLyA1YlmSKlcknYhidHIBhQep6pLZZlGzDNjC/epPxeN4GKFVZfUhZPpRum39TZKdboT/OY/Fb+MYOBWEz5RzuPf7ETozitT3Bcx/EazqnWF+g+wQ8oUqwzAMwzBME+EnJAzDMAzDNB1OSBiGYRiGaTqckDAMwzAM03Q4IWEYhmEYpulwQsIwDMMwTNPhhIRhGIZhmKbDCQnDMAzDME2HExKGYRiGYZoOJyQMwzAMwzQdTkgYhmEYhmk6nJAwDMMwDNN0OCFhGIZhGKbpcELCMAzDMEzT4YSEYRiGYZimwwkJwzAMwzBNhxMShmEYhmGaDickDMMwDMM0HU5IGIZhGIZpOpyQMAzDMAzTdDghYRiGYRim6XBCwjAMwzBM0+GEhGEYhmGYpsMJCcMwDMMwTYcTEoZhGIZhmg4nJAzDMAzDNB1OSBiGYRiGaTqckDAMwzAM03Q4IWEYhmEYpulwQsIwDMMwTNPhhIRhGIZhmKbDCQnDMAzDME2HExKGYRiGYZoOJyQMwzAMwzQdTkgYhmEYhmk6nJAwDMMwDNN0OCFhGIZhGKbpcELCMAzDMEzT4YSEYRiGYZimwwkJwzAMwzBNhxMShmEYhmGaDickDMMwDMM0HU5IGIZhGIZpOpyQMAzDMAzTdDghYRiGYRim6XBCwjAMwzBM0+GEhGEYhmGYpsMJCcMwDMMwTYcTEoZhGIZhmg4nJAzDMAzDNB1OSBiGYRiGaTqckDAMwzAM03Q4IWEYhmEYpulwQsIwDMMwTNPhhIRhGIZhmKbDCQnDMAzDME2HExKGYRiGYZoOJyQMwzAMwzQdTkgYhmEYhmk6nJAwDMMwDNN0OCFhGIZhGKbpcELCMAzDMEzT4YSEYRiGYZimwwkJwzAMwzBNhxMShmEYhmGaDickDMMwDMM0HU5IGIZhGIZpOpyQMAzDMAzTdDghYRiGYRim6XBCwjAMwzBM0+GEhGEYhmGYpsMJCcMwDMMwTYcTEoZhGIZhmg4nJAzDMAzDNB1OSBiGYRiGaTqckDAMwzAM03Q4IWEYhmEYpulwQsIwDMMwTNPhhIRhGIZhmKbDCQnDMAzDME2HExKGYRiGYZqOfUJytx87duyw/Xh8h9BzPolcWZXdAsr/voIen0e/xhv9yKyoA1vB0zkk/ngFWbVpTwGJd2T72jF4r8HFlU7676pthxSudtF5XUg8Nm/3ryEP4xitX6r6reHlHIb+sAOtx4Ywt4X2ao+yofO/pp7Nol/65K+qTduNsoN3EvSNccQGY+srY7UY89qzgsLtQfRfN1njavpemkTvGzvQHplE4aXa9wpZ9QmJtzuKgQsDNZ8ebxmzV88iGB5DbksELiD16RAyO4MYvZlG+loUh1rUoS2g8NUQ+v9VVFtrkcfY+SFkn6tN5hdN4R9DuIIYpm4PI+BSOxmGYX4zzGLs5Bjyjsa0MjKXafx7O470jQi8O9XuV8gaCckljI6M1nwmMovIfh5A+d4wEre34lFGAfl79F8nJT+nQgid8MOtH2gO/x1D/8ic2tg83nMzEGIGsX1qB/PK0HT/fRxBTkY2SBBxISDGg2qbYbaB43GKkQLx42qb2V4a6tuF0N8XUcrEmpKMSDY0h8R/qo9CVRmFn6pPHlaeZDB4sh0e+Yh3hwftJ/uRfGh+Tq4//u26mkHivb1o3dGKvQeP6o/C5GHtVYY8rh4tvSxj7upZdHhbtf2t3g70fpbBkvWpTDmH5PketHvkdeUrpR70X8+RdHTF8zuwV3vcnECXlGutR8/HhxH/yIv8Z1EM3Vf7VuOnDK6811W59o439uLQyUFkflLHCesrm3rKyFE7u4xXVp52dH2QwNxTdXgV1tY5QTIOnjyEvW/IMqRzfw8GbxewairZ6BGlZb/x+imjXUPJQTroIPnXfKVH/Zb4oKo7j68LZ6/OoWzu35dLyHzWW9WNIf+dJVWgASsF7bzVbGdTshNLdwYrrxk9gbOYbNC/5fsJnD0m7V3V/96VGvuwxdDzQ6mjjopsPRf1NpTvVV9xymsnavqc7Ol6P3r86pqyjKZb3Sd0DF/MabZn6En6Tq1ubV7ZqD5pqNt12s7k3UF0SBsgu+//RkroRP5GqHM12chWjsl+0V+hVOKKQ/k0pB1dtI8tTihIGzHJkrhvPtPoA+uLnfr9mq0Z+jBizBOLB6/VL0T5YRL9lVig61zGmtXt3XgVSXVV2mOyu5U8kmSjWp0mG63gJI5rure8Qng61zCu6xhyTSJ7UfcRj68f01qB9fiAaTwKjiGnjq6Jg9jfEO1ci1/fqbe/Tcf3x3Lcozrpa/b83mr9G9L35mOmIyhTqufbmJCHguOLaoeF7y4JLx2nbErbXM4OCH8bhLszJuI30yJ9My5inW6qwydi35a0MkLMiBid42pzCd/7o2Lq1oQYvTop0reGRZj2491h+p4WM4+WqeyimDhB57f5RfjyhLZ/4nJYu4arOy4WX+g1ihLVeYDOrZSbEMPv+oULLk22Yo7O+8hPcoTFMNWRzhXViVYWBWWLgjJHsVhKi9g++n7gkpg1riNROol9q7ZLUyIq5TlIdV+jum9NifiFkPDJtpjOXRwP0nlBEX9k3o6RNszbPhG6ECedpMXUeEwEqF4cGRULqowdjnT+jPRDbXEdjYhRTUbSzwkflXGJ6LTUcwO0tlZlrmDZb8juO+AWwXNSftLBuaBwy37+cEo0voLS94GQGBif0nX3UYD6DSIwYrS6JKbOuGpsYGp8QIRkf9M1L82pYlZZX1Dd3XSe1Kl2nkkmk+1sXHYhijfCmqzuzgExYdjmwZAIHSbZzhk9S9e4FqL6XMJPti3Lpa+RrR+UbQrV69aM1iavJpt+blU/wfcjwucOigHZn1Sfpo+2qJh6pp86/3mAzjXaJMuMishRqQ+XCN8w7F/3Re8Bn3Ab9mvIhoAY/V4VU+Uqbarotl5nvo9ndJ2ty3ZcwuUOaG2ZGo+LNInnTH575keCmu/7T8v4onTWFhAB6pdKLHMon/SdAakP0nXMsFGjraQPI6rVo2yb4pyLbDcyQudK39Ta4BMDWcOydN3Wx9ja/cskl5faFKA2GTZk7XNH/ZIbFgHarsQLGX9P6zblOpUSjTVr+Cr5iqELQ4Z9YRHpJhs165vqq/qwwziu6d4cW0kHWhsDSvdGXDfrvqpn91Hph3T98bTWjvX4QM14dGNeHbNgtQ2Hsd8Wo20mXUq/85F+zdfYkvj+bFHMqPHV/5HU/4xYlDazIX0bPruxmOmUdSYky6KUT4moFL6ivAUxeoQEOpMSpZqOUANKZWDVDQCHh8V8TTm13xTIl6ejpIyAGH5gaaLmVNXBdGFEGh6Vy2mbCnldt/B2jgppXroSqwmAPcq4ZUJCW6WMDALUGZ/M6ocllk4s3ohqDmoNbLpM1f369a3bhjzquh+ltS2D0mREuPbQoJVXO+pwqHOrI0lezIvhw27hu5BubEB250ks+/W21NvJzDnp/Kvo/FFcBKUuM2pboyRSp13CeyKuy/4j2dl+MnyrDX4/qgXWyn6LTMVrYdr2Ut21Q0ZpUtpU1XY2LPuLWXFJBgFzQCUMm6nY8TM9aAUuz9fqWepf9t1qDqxszUt2UW2F7Deq39IvyzejtM9FA53cmqUylMiQDDV1K1mqPqZ8bl9MpM1qUv1S1Umtb+p+STq8WatbOQC498fElNy9TtuJTJrrciq/DT+ntMBbqzObfnYon+bHNOinfta3DUqkbxmbqkmbFeXT1rik+t2IMYZu6+zbsn/mHJ3TaZyjeDAs/G5KbjK6lpz0y+znfkpAya6NJEZjWUx9uIa9V9pjZ3cNbFT6Bm05jeOGvRuxdfav3rrrSVnnL+vxXte9IVdEpGqavU4fqBuPbLDYhtPYb4fWNusNiZEQVM7dyvhuY2cb0reNLynWjJnrYNVXNvpjHv0Rjv7ZhVZfH5L/9SFyY0KfF/E4i8x94FAbMHsng8xt4zOLUguF6PsZZM2PQQMB+Nd4P5W9m0R5jxctRaq7Uh99fgQ8KCN5b5ZKFZC9Nwcc70PkoH6ejgvha0UsZgfgV3vWi6t77Vc37tMTWCjWzw3xHTxE/5ZQdjSJyAPPHspDvx7G4Fc5LKlzXO+nUCqkEduvb9fhVOceLwLIIvHpGLI/lPXHeDv9uPSgiIWRELZm7nAQ4W66pgnvW1IHeeTN/W7G7YGXZE99PojJ/yxhRXt86yKbKmHxVgx0pwG8GcFEvoiZc7V144Afmoaf2z0jLCN7Zxo4HEW0m/RqwnUqSn1FtkN6qj7s3oDs/yXd07HeM9Ga96yubrrmYbUh+S6L5FMvvLuLyFb6hz53irLbUf4yC2nFqxE6ESKtGNCQ00r/dYYRMtlci99PraC+1XQYoL5dxMJ4sLZvd/tBxQDSWc2D/uMhhMxq2ufTdJ99ZH2NoDP73RTKbeRv79bq1v/XWRTzcYRrdzsgiI63zSetU34TK/eymIYXkT+adUb9eSaGqPruHIotdyi2/IFqmjP1HX1myy10lTlk7tnrqMK7ZA/muER+F4lQuneX6nmi9jnA83tKv+8lMPS3LPJl1frDlzBfXMBot64lJ/0S+Os8FuV8qt3qoEYL/H+Q9r6ydryy2p1Lv3atjVI/vU3/qdcxzuK4lTmkvybdyn6ria0k64dRhOl46rbpxcrxDsuE9XXakIPxyMrGY79q2wmyDfO5riAG/mSap/VK4/s69b2RmLkO1rnK5hLiN2exUJpH6rQSqpAnlZDx/a0PPSd7aj5n/yEbMo8CGaBzCijIhj2ZxKClvp6TQxR0iMd5WQqFB/R9v48CxFbjQujzOBlcHlc+HMKc+X2nhZVyGXkykMz1MQx+0IP2P8o3djkUf9aPr04LwhcTiLyZx1jkEDy/098B9l/NIL/aHBKnOj8QxdjlIEpfDaLL14pd8p3xe1eQvL/GHJLtZncYl76IwPvDGPr8HpJLvn/tR+J2vnYOiWSljPIPNADcTmLs4ln0UEKsabhY0o/XUEJJ5il/0AfWGna6pf8CPxXhdM2VLT8XqXf95IRWd6fkw2SIBbJRacuTf6ntH/kZ+kYrgfxaA5NdoHQSPF/SAPMkR4nQNAWrfvQe68KQfF9sbftOZyFLh+SloAc/+ds6A/i6cSq/ieKSTBC88FAQr0EORJ3qu2PURPt7ZJ+Wvuv5U0KbZzBfWCMhedNbNznfS7FKBu7iGlOgzPg+HMNwZwmTF7vQ3rpLmwvR+1kSc5U5JOvrl5WnBeQoKZq+OoT+9zrQdVlGksLaMjWq27K/pbLtNI5bWUaZzvO/RYmM2lPBTf1L/9n7voUN2NB6WXfsf0nJCrUtSJlRXfTQbEPxSuP7Ful7i1jnKpthxE4F4FPZsZnYt9rrH5tPCaPrDgjE8TgWbeujj5wFTEVWHEz83DCuEIbH6Tr/vYLoZZtVN+U5XAnSYNraivZAH/rHU8g99yJ6KqwKOGRfBKkcOUkujfiFILwr80jIyUW+nvqJdxbW1rkLgU9mUHy2iNlro4i+3YLCvSGcDVACcD5bM2HpVeM9ncL8j0XM34pjoNOLlQcJ9J9sh/dkQq1/L2Pusy54drWi1deBvvMJpB6W4P2gl7L215EWtNTcfUqCiD+y6x/5SSO2RxXbQgr/6sMhzy60eg+h609DSN4poLUzgl7z05uNskpivlVsi/wbTaC0FXJ2fSdQ+mKjK49c2LWePNBFd/zZIpYfzWJiRP4kQgHZT+Uk0UPov6s82Em/PJ6k5J8GLTn58p0ohm5kUNgdROTERp8jO8RBHN9qttUHJBuN/Ssr67oR/CXH942yoVU2Nbzh0V6NzD40P9bZDB543qT/7uaok/U99njh66b/fqjPsgv/6DHNuN44Na9uvlM7FXMjfRi6147h7yhYkIEs5uYxczOO2DH5XH29tMB9MITYyBRm8lRfbhTBpxmM3Wiw/Hi9Ot/tReDMACZuzWORkoAp2aarCWRWTejorslyvPB4jbvC9dLihv9EDKM3Z7Dw4zLmR4Io3xlD8iEd+/co+j7Nov3yLIrLNAAU5jGfnaL+CKKxhil5kY9vv8/TfaiFl0soSvH3eTcXBDXd51B4ZA0tdM3v1VfCQ3cXdI+DXO4VPotaSmLwj5Mon0hh8RkFruIC5h+kMXG5dwsCP/nbAVJujvzNOgDeG4TH24Wx/6jtjdrOJuT37pN3mPXXxUvqF/NqAo215GuFRw5ec3Pa05ANsbRUNyAUKFZJPXplfFMUfrY8mnhi99SAXGVfANELE0jnFlEsTmlPbxNfZugaTvplCcmLfZh83ovUo2Ua0IpYeDCP9LVh9L6lym45TuO4lV1w7aPmPLK5y1+ifqP/gnQ335Bt9QGdDcf+3R64qW3ZXK6ubbptKF5JfDfYpL63mM0nJAfD6DtCDbqWRKbGA8vI/HkvZaln15kYtCB0Ikq5XxIJ86/LSbRlTB50/K/sKC+CnQEy+BQmK4GQeFlA5psMln7vg7/m3eJGML26+UxbnKwoYP4hydYZRuSou/qo62UZ03em1IYDVjIY9O9F+//UJh4te8hw1XdbHOo8/49etHt6kTTHPEoCvJ41FPM7F2m3gHzedKLS61awcmcQh7ztGPq32iHZ2UKButrqQm6OJAgi/H4AbtMdZfl2Bo017EKwm+5SHibprqjW6Mpfkz09diFyrEPt2SCUOPYeAJJfJmsGgPLdJFIykVK0dIcQbasvJ/Uolyt6jq1jiaFTvs9pj8JDpyLwmp7WrDzMIG2SbaN0HOuF6yn5m7Y814Bs7utpLD0nfyO9bMp2NiP/sSDpu4BJuvM3S7f0FfWL+q7hSD4/wu9RbLGzozv92PvGXpyt0YENZG8p8xPOchZj/8wC74YQ1F4r6QNB4b8LMLtn4fY0qpJQ0hFuhyecrCnT0uaF2YXX7pcF5ORrwuMUr/aZnGklh8ytLbdChdM4biWAnlM0AF5PIFnzhHgFOfKlafgQDKwyQG6zD2wu9qu23Sa7MrftZQ6Tk/IljWK743sNm9T3ViPsULNw62eA21Oi8nR/oi1l0pYj3oyLAWP5baUONau5bqa8zf7KMjZjCV9aTIxERdBN5eRMcWNWtc1ypQG1NMpYXle6oa+6CH9Ox50s+1V7zJSMFRT0qcxM/kRfXmXIpy3fOuIWLjd9TOX0mcnVGcz6tjEjeVnMfCzrcYvgGWNZn1qitsbSUEc6fxQXoTZoy9Mqy2vV8rTKckA75EoSs17VkjNfd0j469pinZ3deH8FuaRS1k+yR0fUcsCRiLbcWVu9IsvMXdLkdB2MiFG1THH4VEC429z0oXMNe7HONF/Xst8NyE4YujeW5E2R7HKJnrQPsx0vjoc0W6i0gfo2Wrcc3gblf4YN6TSwUWPFkixbTImwlMOwCa3tIeGVOpO+Y1nhsbYvWrZtdDt6urrMXi+zCdtxLL89i3/X9e07oS+znrhMtt7m0vZVYplD+aorH8g3Lyg7umCzZLUO1U+WZbJ2y72NGBL4yLSE8oC+fNyQV2+TXDo+UFn+OaAt7TQtIV6zX4oidUoeN9qi/7xAaI+L9CrtcTV7b2B3tjZKFiNXBRllncZxa12OlqE2kGvTPmCDJcY4jf22yCXDUg7DNm5SvCfbkMuPzdfYuviurwrEkRj5xFYs+623FScx0ylbkpBISg8mRIwcRQZ+2VnegyExcGvRNOg1MoAG+18URfpyWATIaaQscPto0I6LWcsyPFGaFxNkcD7ZyfK6R6Mi/sAU7EuzYrjbqynXWI5WTwPjrqCWW1EdlU6U8snO165Lg9N+ObhSh/+oLz801uJbO0vfNi2RelESMyNhEdwvA4Osi4LjiQGRLjRMFyqsrXNKefIpKuMnh9TldO0JiOj4rGU5mQ0/prXAp9VNug9dSIuiNvhZ27JBA/15RoyeClb0Z1xj0SR8MTMgQoZetP4fFTMFGVxpe7Wlb8uLNbajtZn6pmhq86ZkJ0pzcRE9qtuVrtOUGJY2ZLHjYoaClSqn9W0n2efcKsmIxBowNBrYqDkhIUoPqnKhzSv8ZEup70sUROVyQ+O3K5z6ok05i1+695PNZSyJ/iZsx5n8jTHbjPuIjAVk//S9JpY5kE+jJrbIfvbX2Wg9qp/OUbkbUaUn8s3umEjlLSfWxBDl9z/q51flXRYLk5Q8HDRsSMU4qw2t1S/UlviZgIoDKlZMLoiS9ptSpiW4dTSwO1sbJYsxJyQSJ3Hcrq6fZ2t0r7VHyqsON5SL2JwP2GCNMQ5jf0PM9kfySZuasfGHrYrvmh1qsqqfB9iQvhv7rNOY6YQd8h8SgGEY5leI/EXOLuTHF+uXkDOvB/KXQ99JaJM4Kcn4TSJ/BXXveR/SL+IIbXQS9q+Azc8hYRiGYZiNos2xCsL3q88Xy5h8z4P2SBI1s2rkHKbbWeC4D77fcDIi4YSEYRiGefXQQJz9ehpDV1OAnKjrVvt/tbgQPNGB4leD6A1f0X6kMfN1Av3vdKD/rg+xC31bthLolwonJAzDMMyr57+TGHyvF1dyPkS/uIRw3e/4/Ppwy99fuhWFp5DUfzDuvWFkd/diYm4W8eMuVeq3C88hYRiGYRim6fATEoZhGIZhmg4nJAzDMAzDNB1OSBiGYRiGaTqckDAMwzAM03Q4IWEYhmEYpulwQsIwDMMwTNNZV0Iif952x45+mP4uIbNF/Bp0W9sG/a/ayp+Etvytzy1iBYXbg+i3/iXRbUW16fxGekn+hPkOdF19lfK+AuTPfu/oQsL4S6HW7S1nM33wOqLbxfra0wzbZ7bfthl+QsL8QpnF2Mkx5J+rTYb5zcC2z/w64YSE2Sa82h/LEt/GfvM/h8wwjQkiLv/q+nhQbTPMb5fGCclPGQyebIdHPk70dODsv+wfD648MZXb4UH7yX4kH5bV0VXQ6j+EvW/I81qx19+DwdsFrKjDDR+POXxsVn6YRH+lftmGdnR9kEDOItrSnSvoDXi0Mq1ekuHOEjLnqbzlVUP5fgJnj+1Fq6zrjb3oeO8KMj+pgxJDroc5JD7oUNeV+hisLSdxpNsyctf70eNX16SPx9eFs1dzdGQ1jFcDOeSunkWHR55L+g0pOZ5mccV8bWt9L8uYk+d5W5VOOtD7WQZL2h/AMrFmG+xe2Thpk0V+JYfHp/eNxuMEuqSuZenze+m4yR6cym/HSgGZiz1o13SmX7P/+lr6toPaWZFB6v4K5uwqcSSrXleXT7dRw47nnqrDirXt3XjVMYnsxQ6t3zy+fkyXDX1nkHhP9gvJGxxDTjtHvhog/1jN7p3wdA7J8xvT69KdQfSotnsCZzHZwO/X9E87HMYY41Vkxmzz8ho28aSOsowHXaa2S3ufQ7nSxzavbFaLjZu0/Zq2hJS+KnFgBfnrZru1xq4NxiRLbNRjRjt6LmZQqAR8Bcl15b2qvqSeD1liqNGGybuDenyjuvq/kRJsNGbqbMiGmK1F/nR8HcWUCLdBwB0UA9fSIn1tWIQP+kWo2y+AmJhRxZazA8JP5dydMRG/SeVuxkWs001lfCL2bUmVsuHZjIjtg3AdjYhRWf+tCTF8wkfnuUR0elkv822MtoMi/kjfrNBov5ncsAhQ0ypyUf2jpwPCRftcp1KiqIqVqC6fqdzE5TC1xyd8B6jtx+NiUZVbvBYSbpLN/+6wmLhl6MMl0BaqyqHJ5aVz3ZVyen1U15FRsaCKOdXt/OcB2naL4Lm4mNKuOSoiR+maJEf4htECO0i31CbvAZ9wHwyLYbrG1HhMBOQ1j0dEhOQLXpiw1zm1eOIE9V+bX4QvyzLVNri6SR8vVDFHbVgU8eO1enTWpnr5K/pGQIx+T0WeLYqZW7SPyvk/knLOiMVn8lyH8ttBNjkgr0Ftio1P0blTIn4uSP0O4Ts3I3RrVm2i7dWY/UTXq//0KLVTr8fbHRJ0DyyC4xWrciTr4niQ6vKJ0AVdZ5W+NNuUI3tXsre5hPvoANknyTWepmO6vl203/e+lJfOvTGvnzEe0urwndDtWV476JZ1WO3e5I/W7RLVL/2pLaD0Snb3rl+vt6JXe4o3wlo5d6eUV+nnYEiEDtf2gSP/tKNRLLHsN/pA+rZuu1XbcH04JQzvqUfp/EBIDBg29ZHeL4ERo/d0/Vfas1Zs3KTt17fFqN8rwu+THg/SdcmG7OxswzGpEhvJ9ip9GdJiryabKiZKUyIq5TX8Xurrgl4OBy6J2Zo2uITLHdDiz9R4XKTp8huPmVSn4xi/xtjDbArbhGT2r956Zy6lNUepDjgLYvQIGc+ZlCjVBPqSmDpDHWkOmFbsOvbFvBg+7Ba+C2ndwR0GCztmP/fTgEZyao5qsCymPpTGqeR/MSsuSce3DFRGklIZSJ/pThK4PF8beKS8sv1GQNLkooH0o3RNkNWdpyqvM93Oki7IgSlI1VxTybL6gKgC3L6YSJsEmSedSPmqAyIh66N9ro/1+panoxQsA2L4Qc1V1YBXTVyctcGakDhtk7384lHcMqDr5cztcSq/HQsjFMzaoiL1s9qhKN3U69QSIaNNq+m/OKENFtbBVreDqrzOZFXXI5syU5qMCNce0n9e33Zk70ZdiIhUTRag9H14WMyb/Vi1w2rP4ueUPmjU2L3JHy3bmq3U+euymL8sBw9DrzY08s9MTHilvEYfOPVPOxrFEst+a98ZzJwz69cGZbOxjNrWKInUaZfwnoir+Kj0b7THTiZrbNyE7du2RcUB+5hBdlaQW5uISVqbbPpS862qbMUbUeGjGwJrf2i+adMfkUmzZW5CPqc21MhemC3D5pVNDtm7BeBEFNF9apfEFUL0A7/aIB5nkbkPHGoDZu9kkJF/Sln7zKLUQiHjfgbZBo9X4fEigCwSn44h+4N8UEjs9OPSgyIWRkJo0QptnMBf57H4fRzBmr8e2QL/Hw7R/ysoy8lgD9Pa49/eM1F4d2oFNFzHBxDrVBuS77JIPvXCu7uIbKWN9LlTpHYA5S+zmFVFJaETIdAdUAXvfkpvqK157b2FQ92Sdi49WMTCeLBWF7v98Mtiz5XOVuN4CCGTIK7drfRvEOFu04wOWR+11Xh8nL2bRHmPFy1F6ltzW3+UTS0jeU+21GkbrKyzTRb5sc8HTZOPqi+ArDiT344CsnfmgD/QBedM59FnttwCL+aQudf4umZWvpvDNPzo+yBYawdnYqCgX8GZrB549lAtXw9j8KscltQkRtf7KZQKacT269uO7N3geAcCZsEMAgH4TX5QvpvR2hH9U609oy2C6IdesnuSdc1JlXNIf016k20324qU7cMownQ8dVt/OVTHf0kvdv7ZTXZ3WG1I1umfG8fiO4T3LanfPPKN4pzbAy/Fx9Tng5j8zxJWND9zIXKjhMVbMc2e69hgbFyf7VvjgEuv1+Jz/oMd9C9JoMm92ZjkQt/Hsdq+fDeCvrYypr7TZXOfnsBCcQZ0Y1OD76DUc6nWjqkNHW+bLXMT8r0yG2LWwiYhKaH4kIzxLTJutcfA+6bJiAt5chtyhL/1oUf+GWXT5+w/ZJCZR4GcwZYDUYxdDqL01SC6fK3YJd93v3cFyfumOSRbwMrTAnIysF4dQv97Hei6LCUuoCinIpTK9C1IxlrXSvgOqK9E4XFe/ovJv9S2UX6GvtFKIP9E/q8wOVw9DnVr8JIGkyeUANyepgDVj95jXRi6S/t/KoJcZXV2Wq/QgIq8BWor/fdkEtqfxa75DNHgRJAuCuttgxWnbXIqfwWn8ttBfXiP/rs3hj7ruX9KaPMp5gvOEpLikix3CD5LUMVuD9yVfU5lbUH4YgKRN/MYixyC53f6fIL+qxnkLXNIJKva+zopleVbd5t2EG4aNJ3Vu4wytdPOVuD2yliPXLGkb1v5uUh699OgX2dl8JrD0Hr981WyO4xLX0Tg/YHsyu+hOCfnQ/QjcTtvmkNiYUOxcTO2b8Lqc3axbMMxiWzJGh52UqylZKH831rZVsj28nRDm7k+hsEPetD+RzljJofiz/rxVdmAfK+1Df3GWNcqm5YWeZddi7aSQn/1Y/mUMGp+0lCDC4FPZlB8tojZa6OIvt2Cwr0hnA2Qw57POpqAtCqPJykAkDPLCVHvRDF0I4PC7iAiJ6p38CvP15P6BBF/ZNdG+aE71T2q2Caw6rbwrz4c8uxCq/cQuv40hOSdAlo7I+g13x1uB8fjWLRtJ30yq6+YsbMPM6+kTZuQH+dm7M+jT+mLza6CaMEu65MJJ7LuiyCVo2CaSyN+IQjvyjwScoKor6c6mdGBvf96aEFLzZMgyfb750bxnk5h/sci5m/FMdDpxcqDBPpPtsN7MoGCbVKyidi4Gdt3wLb5r5H4lOdwJUiJW2sr2gN96B9PIffci+ipsCqwOpuT7/W1od8SNglJKzzUgblH9Rl5/vG8+ka84aH7F2D2YYNHrk7Y7UXgzAAmbs1jkZx26iMv8lcTyFTu/uguzHInWHi8Vp6/hOTFPkw+70Xq0TIZUxELD+aRvjaM3rdUEaLl925y0CxyOWsrKRv+QX0lPHQnB9tyG8GhbpeSGPzjJMonUlh8Rg5RXMD8gzQmLvduOqg0xgPPm/Tf3RwFAX2PPQ7bYGXb2+RUfjv0NmFuTnsashl0e5mvf4z/nO5iH6rv65a1Be6DIcRGpjCTL2I5N4rg0wzGbszRMWf2vl5aXTJ7smkHsVSUPuiDd80gvQuuffa2giXybfov+FaD3tfiSw6FR3VWhvz36iuxef/cSIxZJy1u+E/EMHpzBgs/LmN+JIjynTEkK/Zgw5qx0cxmbN8hm/bfej3jJcVacjjv4UNaHXMjfRi6147h78jG6YZ2MTePmZtxxI6tfqOjsQn5tjbGM5vBJiHxI3TSB1xPIGkORuUskpOmcH0wjL4jFGyuJZGpSdvLyPx5L2WpZzHdIJ3P/6MX7Z5eJM2PfMlpvR7TLeTvXGRIZLB5UyEy4Mw3GbXRiAXk5GO242FE9pkeQa7kkLllkv9wDx0Hpq4na+9U/jOJlHzEp2jpDiHaBiS/tJQjWeQySs8xY4mkExzq9vuc9pg1dCoCr+lucOVhBunVgtimaEHoRJTuz5JIWH8BUltq6EHH/0oZHbbByra3yan8dvgRfi8APEzSXVWt0Zbv9GPvG3txVltWuDYtnUFE2nJI/jNTczdbIDubUt8dy7qSwaB/L9r/RyYeVVr2eOBW3x3b+zpxHQ8hTJZtbQeeTpIvFOB6vwMdq76elATQc4qCvdVWKD3JkT9NU1ITDDQYLigB6z1Q73flu0mkTPayKf/ccIxxxsqdQRzytmPo32qHZGcLvG9We8+Ko9hYx2Zs3yGb9t8CJm/U2tLSvxJIPfUi8g75Hh2ff0iyd5IdH3VTixQvy5i+U/WchmxCvq2N8cymEHYYS/WMJZA3R0VEW3ZJ+0yzyisrUozlnzfjYkBb0ucSIcuM9BoexUVIztQ/GK4uh1PLu3wfq1nScpa9ebmgWlLs6w4J/6oznYsidUrK6lbLW/UlbKE9LuF2yyXJ1XNL01Ft6Z6xXHJqJCL8bS7hkrOyzct+1fJHl1oSJ5eTRa3Lm9VM8ti3+mYF634nurUuq9WWGYaEt81NbaiVrR7LrH2FdbWPjmXVyAva7payGEtW02JiJKov9ZSrOIxJ7Y7sQ9VtyOq4Tfby1+/XV2HgSExMGEsfncpvh9Gmit1Im7Qum7ToqwG6vVSXEE5c0JeISv1UVjc4knVZzHwsl2SSTGdG1XJEtZSxssrJqb1b+qNCI30b7Wjesl/rsnzdP6kui7yO/NMOhzHG3nca768gl5IrP4mOqKW41Aa5nLa63NWifyexcRO2by9zAxsw9+VmYpKKgZpsFp8w20DtcnnZj8MifMQtXGTHsn+NGGrbhk3FTIc2ZLVtZsuxT0gkP8+K+JkAdSh1ZptXBM7EReqyNARjwNEpPZgQsRM+FXBdwnswJAZuLdYun7JhOZ+i8/x6/dIQ9gREdHy2dgnxj2kxYNTtlr/FkBZFbSndGkZRmq/Kbsg0uSBK310SXto2L/8sZgZEaL80PCkDlcvM2AbuYoac46hXM1oZ/H2dURGfMwU75XRrJiQSB7otPYiLqHE9KuM/MSBS35fIaeWS26iYqlniacY+uDhKSCQviiJ9OSwCNKBpQYT0HiT5Zi3LYdduQ/0A6KxNjQbI+v2LN6IiIIMN9elAVu10Kr8dZDcTFMR8Wp3SHvyazS1WzMVGX7Ysi8VbVbty75d2RX5C32uWWzqR9UVJzIyERVDVpdke6S1dMHmYI3tff0Kit8Nk91o/j4qZH9VhiTVI2wVtshWzXjV9SPnU4dUozVVtRo8RKTFs0wdr+mcjHMSYDSckkp9nxOipYKXtxjWqNlWvfyexcaO2v+GEhNhwTDJi4OSs9psnUte28V7KL5Ovip3IRI4Srh8p2aBt47dbGul94zFTx1mMX6O/mU2xQ/5Dnc9UKCAR3Iv+/WmIv4fUPoZhGGZDyF9qfSehLYCgpJhhGrKuVTa/Kp5OotfTjr66d64ZTN+jPNjnUzsYhmEYhtlufrsJSVsQvceKmLzYi97PktoP4Uxf7UfXsX5kD8Rw6fRac7MZhmEYhtkqfrsJCdyI3JhH+owHhWuD2o/g9H6eRcupCczeiyPoUsUYhmEYhtl2eA4JwzAMwzBN5zf8hIRhGIZhmNcFTkgYhmEYhmk6nJAwDMMwDNN0OCFhGIZhGKbpcELCMAzDMEzT4YSEYRiGYZim86tJSApXu7BjRz+yanvbkT+HvGMH+k1/GXhLeTqHxB+vbHN7suinNnRdtfxa7bag/+VM+RPSlau9kjaugfbXUEmuVT/rs6uVJxkMnk9W27nN6LbfhUTNX9RdnVct468bJ7at+9qO8+uwpJdzGPrDDrQeG8Kcsz82/YtjI7a79bzKOOiEenv6rfgrPyF5TSl8NYT+fxXV1q+T16mN3u4oBi4MNPh0wKPKOWH2ix6M/bCitl5Pfgky/pLZCtsu/GMIVxDD1O1hBPiHGn/T/Fb8lROSjXI8Lv9SMv+xKMd4tT+uJb6N0bfXD2/3JYyOjDb4RPA6/2Uj77kZssUZxPapHcwrxoltBxGXf119PKi210br1+9/3b8azbZrx+sdK7eThglJ+WES/ScPYe8b6rG1px1dHySQszw6XLpzBb0Bj1am1duDwTtLyJy3PL4kyvcTOHtsL1plXW/sRcd7V5D5SR2UaK9AupB4mEPigw51XQ/aTw7WlpP8lMHgyXZ4NLk6cPZfdg+yyshd70ePX12TPh5fF85ezdERA/Vo7HyG2jGIHm+rXi5wluSgUit5JA1ZSOaei1TupTrV7pXNyzLmrp5Fh6qn1duB3s9M5xDGq6WMuQ1SHybdZkl/e7VHu+p1gukxb/m+7Bd1nqaffiSlrGtC+qjI1oq9oSv2j4EdtKEh5RyS53vQ7pGySX33oP+6oe/ax5AN2/iS7OezXnT5dJvSZPXrdmVG6y+jb0l/h6SdPHkFdxDUxsQHXaY2SpuaQ1nTj97Grqv0lexjLx2vPAbesF71fqvoQ/nh3FN1mKh77L1RGYn1+qlhv4ZvlO9dQY+SteJHJpzGlVrs/JTs4hjVf7/+RMdtuJNAr6yLynT9b67WN0PqfBlftJixgvx1s/+Y45IT27a+sjFeE2SQeE9ei+oMjiEnD9H1r7xX7b+KfVvjoB1P51bxQYmhy0lkL+r95/H1Y1oVcBTPnfioxU4axfNa21U6avSp6G49sd2+nWviqA/W9s1G6H7QKI6b7Un/bh9TXvNYuRHkT8fXkRsWATrk7oyJ+M20SN+aEKOnA4ISdeE6lRJFVaz0bUzQnWOl3MTlsPC3+YTvAASOx8WiKrd4LSTccAn/u8Ni4hbVd21YhA+6BNpCIv5IFaK6KDOkc92Vcnp9VNeRUbGgioliSoTlPndQDFwz6vKLULefzo+JGVVs/vMAbbtF8FxcTGnXHBWRo3RNkiN8w2jBoogfp7oOkMxUX2x8SqsvJOXfFxaRbpLl9CidPyXiH+ntD4woSTR5ISiTVSyKiRNuapNfhC9PkM6q8ru6SRcvVKnxIJ0ndWTIRnWfC5J+qNyHU2KZyhRzdO5Hsj1hMSxlz+nyGvp2HVX9YuiR6ot9W9LKNGL2E5/W9kp76Jre7pCg+zURHK/0lKM22FKaETGpt8q5E2L4XT/pzCVCf5f1K10ru7BvY0lMnZF2Ub3+1PiA3h/Uxktz8kJCLJMevFRvgNpi2JNWpi0qpp7pZRzzKG7RwWoY9hISA9JW6uxiWSxm09RuKnM4psk280j26Mb1athL6IJux1PjMRGw+IReJqh8aaMy0pkb8tNq/cH3I5ofGX5Z1ycO40o9Jj8lHUZGqF034yKm+bNPDGR1+SXO2+ASLopVWl0UG1I5Q49m3yQbPiH9xivC71O9ByNilOSu7wMntk3+Qe3EOSNC6duuNpfwvS99knRxY55cYEpEpV0cpHOlHqV+L4Q0v8eBS2LWkQ8G9FhW8UEIH11XjxBKVrqu++iA3n/jaU33zuK5Mx91Gs9rbbco5qW+aj5TYvR9r1a3EePWFdtt2lmP3heVGOCwD5z4ph2VOG7UX2ejZntq5K9NiJWvANuEZPZzv/AeoMG9RuBlMfWh7HQ16L+YFZf2kVItAdVQdsWAn+mdG7g8rw22FV7Mi+EjdL4ahI0B3vtRWjmOTq3Bkmx/JeM0BxdJKS1iJEs1IZkVw4fJGcgJa66pZKkGBdXxpvolyzejNrKQvIeprGyv3FTyGgnJ8nSUHD8ghh/UXFEFYZeITuv79faYjF8xc86kW0IvV9029K3p1RyUlnU9ruoExQkRpmtWg5KOVRanbbBjYUQGCTqXAnsV6TRu4e0cJe3VBm1JXRt/TInofgo01uTg+1FtIDP2z5yjejqr9Wg8GBZ+Nw1OmcYy2qISEqmHhh/DXlTZWEbf1CmJ1GmX8J6IV/SvyWdq58b1qnRGdmimNBkRrj3kA3l9u8ZHNijj5vxU+YatH7koYdC3HcUVWww/tSTeSraK7a+zDX4qZ8bWN2WdtA/7YiJtuvQ8tQWgPijILQe2Td/sEhIcHhbzJn8u3ohqSV1NfCN0/6rfb0aLjXVllsX8Zd03R7+X24YuIyJlDgZO47lDH3Uaz63bVvTr001N5Xrrje2WdtpSm5A46wNnvlnPghjVbLa237UkyO0VwS+kTdbbU52/NiNWvgJsX9kE/jqPRfnucrfaodEC/x8O0f8rKD+n/x6mMfkY6D0ThXenVkDDdXwAsU61Ifkui+RTL7y7i8jezmh/5l/73ClCzhQsf5nFrCoqCZ0IgTL6Ct795A7IIq89pcohe5e+nIgian7n6Aoh+oFfbUgCuPRgEQvjQZLaxG4//LLYc/kA1kRnGCFTfS0u/axaWejct+m/Bo/Ys3eTKO/xoqWYrbZRfn6UzSwjec/cyiDC3bVvB71vSd3mkW8021zpO/phrb7R4kf0T5Ru3E9h+j9qn4WV7+YwTfL3fRCs1e2ZGCjYVlhfG8wUkL03BxzvQ+Sg2qXhQvhaEYvZAbq6A96MYCJfxMw5y5vTA35I7ZSo3ySe35PL3Utg6G9kF2XVk4cvYb64gNHumh53zKqTWt9WU1rdHnjbgNTng5j8zxJWNFtwIXKjhMVbsYbzTDauVw88e6jHvh7G4Fc5LEm/I1zvp1AqpBHbr2/XsEEZN+enLrha6T+rH5GzBal9ugwO48pqHI9h4LjJgnf6EYlQ+nU/i+wT2l5nGzqO2FmlxTd3u/QYcjyEkOnS/oMd9C/ZXoN44JhAAH6TP7tPT2ChWD+nwndQ84BVdDSH9NcUG6VP15xL+qWYEabjqdvaCyGd4x21E2WdxnOHPmqwejxfg8cJ9EUSKJ5JIlW53jpju7WdDnDWBxvwTckTstX7ZGWRSE2/wxXGRHERMx87ipRNjZXbyaqTWleeFpC7m8H01SH0v9eBrsvyHV4BRfmKqlSmb0EyAmujvPAdUF+JwuO8/BeTf+nR/sS/+TP0jVYCeRlMDMydVEcJxYcUDN6i4K72GHjftHSM5CUFuSeUxNyeRuLTfvQe68KQnPPxUxE1898bXdOyv6WhbAVqJ/33ZBKDljb2nByiZIAgPTjxwYY8k/r2U+JSb0TuN+WAmUPxZ33bSnFJXvkQfBYHw24P3JV9m2kDnfuA/qNgY9ML62eljPIPczSYJDF28Sx6fH1I0O5csaQd9n04huHOEiYvdqG9dZf2/rj3syTmNvFedNVJrafVML47jEtfROD9YQx9fg92eeT72H4kbufV/Aw7NqPXFoQvJhB5M4+xyCF4fqe/I+6/mkG+0XvqDclIUm6Fn67qu1VWjSurYWNf+gBH+ni0gTash50Wv3PY1o2yUi4jf5+SqetjGPygB+1/1DygoY8DyyiTndnFRri9Mh+r+I8tDuN5hTV8tMJG9VTOov/dfmTcMUx9Ea5JajScxvZNsHofbMA3JYWClhT79m9JpGxKrNxO7BOSx5MUzFqxS06AeSeKoRsZFHYHETlRzd5Wnq+nQUHEH2mvh2w+lE3uUcU2QUuLvEWrUvhXHw55dqHVewhdfxpC8k4BrZ0R9B5WBbaD43Es2raRPpnXccZ0C3ZZPX2DbVhxMJFrbcqY+6wLnl2taPV1oO98AqmHJXg/6KU7PBMuukvKFrH8aBYTI1Ecaikg+6mccHgI/XedzlrbGN7TKcz/WMT8rTgGOr1YeZDQJqd5TyZQWO1ueaO2sS+CVI6CbC6N+IUgvCvzSMhJi76ehr/dsGEZt9tPHcSVjeEy3Sxsf6zZVspzuBKkRLK1Fe2BPvSPp5B77kX0VI0HbDnO47lDH90UZfJnSqKXQoh/U7/KaNtju9M+2IBvaomU+ro5Xv9YuRFsEpIlJC/2YfJ5L1KPlsmJi1h4MI/0tWH0vqWKEC2/d1MQzSKXsxoy3YX8oL4SHsrO5SO6+nIboRUeMrrco0LtYzki/3hefSOWkhj84yTKJ1JYfEaBqLiA+QdpTFzu3aakwAPPm/Tf3RwZrr5ny/mdi2TPofCoXo9LdFcgA7GvQeP0Ppivfx30nO7eH6rvm2oD3UV1038/1N/pF/7R43x2+79H0fdpFu2XZ1FcFigV5jGfnUL8oyD1fD0t+wKIXphAOreIYnEKsX15JL7MbJHDr0KLG/4TMYzenMHCj8uYHwmifGcMyYouzWyFbbTAfTCE2MgUZvIUXHKjCD7NYOzGnDpuw7pk3Go/tcNZXFmVpaW6vi2QzUnbP/SHV9GG7WdupA9D99ox/B31syhhMTePmZtxxI7ZeYCZXXDts4+NWCpoTw2CbzWOfk7j+Xp9dCMUrvah9+oKYjdS9cuBX0FsX18frNM33/IhRP/lf6iLlEiEPGj/87Sz+PVLiZXrxCYhWUBOPt48HkZkX4u+S7KSQ+aW6R3k4R46DkxdT9bedf1nEinTUtiW7hCibUDyS0u5l/pyJs8xtdTNEX6ETvqA6wkkzYNrOYvkpKmW73Pao/DQqQi8pvfVKw8zSDcIyJujBaETUbpPSyJx3WJo2i+BetDxv85baYvSd50eqV+S/6TWHgiiw+q8ipZOugttk+VqDbBAfTelvm+uDV4EOwM06KYwaZ7HQn2c+SaDpd/74HfwHreQm9MeG4ffD8BtMr3y7YxJTnKkcDs84SQNcVVa2rzwOLjGZli5M4hD3nYM/VvtkOxsgfdNt9qwYxN6Xclg0L8X7f9TG9xa9njQ6Iobk5Hq3FI/tcNhXFmNr5NImf1+ZY5sOgu8G0KQZN/+Nmw3Bcw/JBvpJB0ddZPlKF6WMX2n6gH2BNBzioZka2yk9CRH+piGD8HAKkO2w3juzEc3TvluP3rOZ+A5N4HhbhuH3vbY7rAPNuCbGnuCCB6htHlyEjmznh9nqP4lunnz17+esuF1j5UbRtRRFKlTcta7WwQvGMuJYiK0xyXcbnfNjOjSdFRbrmosE5saiQh/m1xOVzsjeHE8JKj9wqWWzcllWtFOWZdp1ryalV1dRquw7jeWthnLdG+Oioi29JX2GbParUuD5bKtcyHhbXNTG8yy1c9m1mggS81MZ2uZF1RXt5TDWFqbFhMjURGU15MrC1QzG80qt+4v3QjTtleEP6c2bsGyX70PqsshJy7oS41lGyoztR22wRabJYcDqo/1ZZn1uq5r49wltRxO2YlctngqINyy30wz6Bf/brRlQNfDzbgY0JZnmpeAqlUM1r61olaleLujYuDCQMNPSq5QeDYjBpTtRUfU8l2yebnUT1udoNcoZj+Rqx1ID2R72hK9Det1Wcx8LNtFvnjGWLanljiaVprV2M5GZSQ27qcN/MhY8aOVdR5X6lH1y/60+r1lxd1mYo29byo7qqzeUGh1GGUd2HZdPfb11i7Pl/KTjx9xCxfpSLbLKnMN61n2a+MXjuK5Qx9tpGPr/hqdk72EZB17qO5pWbf1My+Km43ttuh9YcRBZ33gzDftqI/jAyoWDKgVaPWy1/nrlsbK1webhIQozYv4mQB1MjWMGuM9GBIDkwui9N0lbU2zeZliMTMgQvulw5Ny9lC5zIytIRQz1KlHvVqHyk70dUZFfM4UiR0asMbPs1X52rwicCYuUpelYVeX2ZUexEXUuB6V8Z+Qg0pJ79jKGuwGRttAllUTEsmLokhfDosABVl5DG4fGWtczP6sjhNOExJRmhXD3Up+00BSmpsQMTIoPZkgPcp25RuOaCaWxeKtal+598u+orroe83SMQdtaAjZzQQFB590Lmk3R6mPHxiy2ejapo1me9KvPSpmCnIwo+3K0uZlsTBJg9lBw57Utcz2ZAR8a99aUYOmdr1VPpV+/nlGjJ4KqjbSh2QMXUiLRbNvP0qJKAUwedz1sbLIjer1RUnMjIRF0NCJ6vN0oXrBOtvZqIzExvy0gR/VJCTEOuJKLdX60zeiSof1ejDYaKzZyoSk3rat9TSoV9qJ/M0L1Xfu/TKxnBGLP9JATNuV30FqBMXGqg8qP5c6Vocb9pXCSTx35KMNdGzdX6NzdazxR4/vm4rtttQmJI77wIFvNqL0wBTH1Rg2X+kkG9lt/HXrYuXrww75DzVoCykgEdyL/v1piL/Lt2UMwzCbQb5yoZiCOBZ/gz+n3Vw4njOvjlWX/a7K00n0etrRV/dePIPpe5Tz+nxqB8MwDPNaw/GceQ3YeELSFkTvsSImL/Zq65rlDxBNX+1H17F+ZA/EcOk038cwDMP8IuB4zrwGbDwhgRuRG/NIn/GgcG1Q+/Gh3s+zaDk1gdl7v+6/UMkwDPPrguM503y2YQ4JwzAMwzDM+tjEExKGYRiGYZitgRMShmEYhmGaDickDMMwDMM0HU5IGIZhGIZpOpyQMAzDMAzTdDghYRiGYRim6XBCwjAMwzBM01lXQlK42oUdO/qRVdvMK+BlAZMfdGDvGztI9zvQ9b93tT+lvuOdBCw/8rwKWfTTuTvOb1PPvSxj7mofrtxT28xrhP6n97et75vCq22THve6kKj5s/6vGXf7tfjQf1dt/2JYQeH2IPqtP1lvsDSJXop97ZFJFMx/rp/5VcJPSF537o6h73oe7tMTSN9K49KJ36sDrxFPUhg6P4kiBwyGYdbFLMZOjiH/XG3WUEbm8hCyb8eRvhGBd6fazfxq4YTkNafwOE//HkLfn6MInQghuG8/Yt8KiHX91dMg4oLOGQ+qbYZhflUcj0P+6Hb8uNr+VeBC6O+LKGUo1nEy8pugcULyUwaDJ9vhkY/6PR04+y/7R2orT0zldnjQfrIfyYdldbQR+iuErqs55K6eRYdHntuKvaFBZH6iw0+zuGK+NpUz11h+mET/yUOV1xg7PO3o+iCBXKWQ8Ug3g6U7g+jxebRyrd76uiRrt8GQN4PEe3vRKmUNjiEnD5GerrzXhXatDfR5Yy8OnVTtWIuVAjIXeyrnenw96L9uyKe3Ya/2WJqu/5YsI1+XqbZZXtks3bmC3mNSNl2GjveumGSweWWjvWYh3XtbK7rp/Yz0ZXrKYbyiy5htQdZt1rV8VPyW/hpPk8v0Sm9jttGAl0vIfNaLLtWXmr34ezB4Z0kV0NH621/Vg9YXT1bUUcWqeq+i6TRg2I5+rcx5Oqeie8MurL5h3b85+3HUDwqzvXsCZzHZ4DVD+b70oQ30TTmH5Pke3fc0GSYpaU6gy/xKQ3t9YPOKw26/w75YG/nofzUf0HFkH42guDT2Xseq+l9br0ZsmkT2ol6Xx9ePaVnEiY0bOryTQK/0XZKj63/Jkuxe2Tyd0/pqdd2WtRhcuaaKpXNP1eFVKN9P4Owa+tbHESNWq/bcLlBvEYbd0Nfs+b16uwzbcGAX6/EL5heC/Fs2dRRTItwGAXdQDFxLi/S1YRE+6Behbr8AYmJGFVvODgg/lXN3xkT8JpW7GRexTjeV8YnYtyVVyo4ZEaNLew/4hPtgWAzTNabGYyIgr3k8IiIH3CJ4YUKkb02I4RM+qs8lotPL+qm5YRGgcyvXpDKjpwPCRftcp1KiqBVaFHSnIED1+6gNsfEpk2ymughnbdDldbW5hO/9UTElr3ljXojSlIjSuS7VhvStKRG/EBI+KosDl8TsC3W6Hc9mxMBBl6ZjTT557rmgcNO5vnMzoiSWxWI2LSY+kjr3i9g/Zf3z1D7VtuNx+qazOB7S2m+0Qeoy6JYyDIiZZ7KELj+oXp1FMXGC2tjmF+HLUs90ncthTQ+ubqpXyb04HtT04JP9cS5O7a7K6PpwiiQkivMi/c+Y8NO+8OeGjJuxDTtKYuoM6cok79T4gAgdoDZRfZfm9FLL38aEl/o3cHpUTFAZabdambaomNL0QKypd50S1SX70ZBf14/UhVn3ul6D40ZPGFj3b85+HPUDUbwRVnYwoLVfk/lgSIQOm/u+2jbXUdU3mn+TTtbqmxfzYrRT74fIiPKpoy7hOhKg/g+K+CNVjuqHedvAut9hX9SjfMDUJsMHfCeGtbZXfKAtVLmeI/uwQdc/tbPN0D/p9kK9/p3pVclOtuA+KvuJ2jyeJp9xZuO6DqUsPr0Pro2KVM7YD7qOXkyUyOa0tgWUbimWvuvXdWTSrWFboQt6uypx+MioWFBl7Fi8FqL2u4T/XV3flbaa9C37N7ZP6iMiRjX7tsTzZ4ti5hadRzL5P5JtnhGLsh8c2oVTv2B+OdgmJLN/9dYalqSU1oyrmpAsiNEj1PFnUqJUM/Aqx1rVoPUAjX0xkTZFnfnP5eCL2gD/jIK2NLCP9avOUhnvAZKhJoAsi6kPpeMbsimntwbFF3Rd6WyVQOa0DUrew8Ni3lSueCOqJTw11yAWRgL117aglaFAmPpZ7VCUbkYpaATE6Pf6tu505rosCYnUjxzUzkxVHFVDJm5uCoTTcq+SX7V7eVq/xvADi8tqyV41YdOvbekPYuacWdfEo7gIUrlKMNyUbdjwY0pE91PQsQ78349qyamxf+YctbGzmqhpPBgWftLDQEZvkyO9v5gVl2QgNSVnEmPA2WhCslH7cdQPjWTOyEG42vdGOa0N5r5ZnhfD1Ger9U2JEh7AK2IZk6W9sPE1bXC0sX/Lfqc+UI8lISlOaIOa96N0rQ/8THYjfUMNTk7sww5D/4HPKYmsUI05aalHx3o19BURKbOwDm3cSDz8l82yEJaERIvhdX2wLOYvS9sydKtkIb2ZKU1GhGsPxf+82mFFxZwAyVCjNUpYZVsryYCdHcgyh93CdyGtzq33ofXFxjX8gvlFYfPKJofs3QJwIoroPrVL4goh+gHdBxs8ziJzHzjUBszeySBz2/jMotRCIfB+BtkGj4srHA8hRCm7gWt3K/0bRLjbNDtitx/+TqCsXiUE/jqPxe/jCO7Wt3Va4P/DIfp/BWXz5KjOMELmNuz0wieb8ENef+S+3jYEAvCb3mXKiaYLxRlQolaD76CUpVQrSw0FZO/MAX+gxs+Zr5vBbLkFXswhc8/6GqABD2Yx9dSFvvfDMKkSOHgJs8UFxN+t2auRvZtEeY8XLUVqv+namR8BD8pI3ptVJSWW/iC8b8n25ZFv1L9bYRtm3oxgIl/EzLlaOXDAD03Tz/Xns57fU+i+l8DQ37LIl9Vj+MOXME96GO1uoQ2Hen+Y1l519J6J1ry7dh0fQIxsccNsyn7W6If/ks7tZO4mPz6sNiSqbdEPa8uhxY/on2hYv5/C9H/UvhpWkL03DeyLoK/bZFPkU7Ku9bN1PlC+m8E0pPyhWh9oi5BsXpS/pHpJl2vbx2oE0XfKFP8qMYdiyRP6b716Pd6BgFlYhzZu0HHELIuVOaS/Jt2didXGcCkzyRem46nb8oWhB549JMTXwxj8KoclZW+u91MoFdKI7de36/gui+RTL7y7i8ia+i1zpyirJH1noUUQjxcBZJH4dAzZH8r6a5qdflx6UMTCSIiksWO9drGB+MS8ttgkJCUUHwL+t2jAUnsMvG+aOr6Q1+YKZP/Wh56TPTWfs/+Qxj6PAg1wq7JzrSCgMDu4YuVpATkZiK4Oof+9DnRdltIUUDRPKbA5r4ataAOxUi4jT4Ns5voYBj/oQfsf5VvRHIo/68frKSAvl8jeG0Of5bo9f0pocwvmC86CcYGSqzKFLJ8ljjWmgIJ01CeTGLRe++QQBXbisUrYNsoW6bWOlTLKP1BAup3E2MWz6PH1ae+fc8WSdtj34RiGO0uYvNiF9tZd8Pi60PtZEnOVOQIO9V4qU8kg/P46D4DvgPq6hazffmz4uUhn+CkY18vsNdvGM9k2u3KUIL1Jo0nD6xZRlPMDvB649R0VWvx+0tZ62TofKJH+KP2Fz5LYSdw0KMprybiwtn1sgg3r1cIaNu6MZZTJx+1iONxemTOo+loQvphA5M08xiKH4PmdPsej/2oG+VXmkOgT7QuY/Iul3+gz9I1WAnmZpB2IYuxyEKWvBtHla8UuOT/lvStI3ldzSGzZOrtgfnmsa5VNS4t8glGLtuJDf/Vj+ZQwupm7yUY8nkSfn4xbTkh7J4qhGxkUdgcRObHaHcPqbLgN5TlcCXqwq7UV7YE+9I+nkHtOd4yn6I7ICedmbK6pf0pfOAzxLzcYTI/HsWhzXe0jZ7WrYpth62yjjLnPuuDZ1YpWXwf6zieQeliC94Neutsz4QrgUraI5UezmBiJ4lAL3W19KifuHkL/XdMd5hp6X3m+BQOUEzZrP45oQUvN08TXjK3wAac4tY+m4NDGt5p9EaRylGzm0ohfCMK7Mo+EnAjr61njd1eCiD+y7zch0ojtkWVcCHwyg+KzRcxeG0X07RYU7g3hbIBi9/lszQTVOl6lXTCvDTYJSSs8hymDflSfxeYfz6tvxBseuh8AZh/KnPVVsYTkxT5MPu9F6tEyGWcRCw/mkb42jN63VJH1sMk2zI30YeheO4a/oyBHg+xibh4zN+OIHatP3GrRdYy5OS3j3wzeA35y+3nk624ashj0qBn4NXjgeZP+u5ujwU/fs+VstW38exR9n2bRfnkWxWUKSIV5zGenEP8oSJqsp2VfANELE0jnFlEsTiG2L4/ElxkKgM703vJ7NyVkWeRyVg+gu7cf1FcThZ9rV/rgibMnTBu3Hxs0nedQeFTntch/r75KfueittmVI+/6qUj/Bhs8bfPCK59AFIrkhRYe6U/EaimgaLnLLjw2a2XrfKDVJd99kA/YDKBLRXlNH7zaAKnT2D42wYb1qlinja/OLrior+xiOJaoX+i/4FtmYVrgPhhCbGQKM3myxdwogk8zGLsxp47X4nHLc+38owG7vQicGcDErXks/ljE1Ede5K8mkLF9CrN1dsH88rBJSPwInfQB1xNImh28nEVy0mQiB8PoO0JGfy2JTI0nl5H58160es/qS9m2lAXk5CPB42FE9pkeRq7kkLm1AfPdVBsKmH9Iwa6TZDnqrj4afVnG9J0ptdEIP8LvBYCHSSTv1F6gfKcfe9/Yi7PfOFTe2x3obSsj9dV0TUAt35nG9FIJPkpYamlB6ESUkpgkEtZfR9SW4XnQUZfErJMtto1Cbo60HUT4/QDcpm4v386gqmkaVMLt8ISTNQNmS5sXnsq7eod6P9xD9gVMXU/W/jrkfyaRqvklTD3wF/67UHPNwu1pZNT3xmzGfmygAaX3AJD8slbm8t0k3WmrDYlqm7Wc9KHkP6eBA0F0yMTDhuBxspvHpIMa3S1h8npKfVdogzMlb3mTVl4WkPnGrJWt8wHX8RDCNHwl/2lJKp5OUjsLcL3fgY6dTuxjE2xCrxJnNu6UAHpOUdJgjeGUnuRIvmlK0IIBOr6SwaB/L9r/pzbxaNlT/1rOTEt3CNE2m7ZSH8slzZ5j+pL2/D960e7pRbJG4ZTsr6rwLYyNzC8PYYexZMxYdnVzVES05Wtydnh19nJl1QGV05YH34yLAW1pmUuErLPFa1CrDiqrXXTqV5RIzDPqiyJ1SsrhVsuC9WVqoT0u4XbLJaXGueqcymoIg/r9ztpgL+/sJ/oSNv9puZRTLX074hYukoVczrTqxAZDx5W2TIn4hUZLb806qW9D3ZLHkUi1Hq2ERX65MqJb6rEq+8RIVC0Vpv5Vs//t+8Nm/88pfZXDqWGqS1/269Q2Gl2jhrlL+nLKgxExKpdTyuWDpwLC3eamT7Vdi3+XepBLEQcqS40HtGWGPjGQVesBHOq9NB3Vlg9WllJrOpXLLelck+4NGwh8ZFp2eEBfalud/b85+3HaD4bOa2WWba29tlFu3ct+pe1pduMTIW1pqr6MUy5nrpFPrjgxLzmVy4M73cLXHapdHuywL+pRPmBqk5Nlv47sw4b16t/Rsl9rbHJo49bVNBWs+x0t+10WMx/L9pP+zxhLoSnWHyWZrassLRj6rshL50Wty/ofxUVI9uXBsBgwlu+qZe2+j2fUKhu1OulIjK6vlv1uODbqNNrPvP7YJySSn2dF/ExAeKUztHlF4ExcpC7Ljq5dTlV6MCFi5NQyeMvg6j0YEgO3FmuXg9VhH6DtDckSfErzVbmM600uiNJ3l7TfGNCXrDZw+gb7126DvbziRVGkpYPJwEfH3fuDIjpCTvWjPkAHRtZY3EptmThXPd+1xy9CF9Ji0aS8ep3Yt6GYoeB31KsFCbjl7wqkRbES0G3kl7JfDosAJXPagEXnBKmPZ01L7Zw7fEnMXg6pPqFAVlB7HdiG0+BRzAyI0H4Z8AxZR8VMQSaotF1ZUrksFiYpQT2o9CCveTQq4nOWQdaB3iXma8plkAOZmXrd19gADbonBkT6R72P1kpInNqP836gps3FRVTZgWtPQETHU2JYymy5dmnO3De63Kn8asmIwtJeGRfmSed18v2Y1gZ7rX7DHrXl4ZZyDvuiFktM0FgWi/I3LQwf0GIW2ciP6rCGQ/uwsD79r6XXRrHJoY07TUgkFMPNunXvV7FSHdZ4URIzI2ERNK5r2HBh1Q7QqIk58rzOel0u51OkD7+KDYZNztb8HMDijagIaDK6KDFUOzcUG3Ua7Wdef3bIf6jDGaZpZP7chcJf6pe/vn4UkAjuRf/+NMTfQ2ofo/1K6Dt5xB/9EvqQYZjXlXWtsmGYLefpJKa/8cJDt5SvDSRTr6cdfXVzbDKYvkf3Xj6f2sEwDMNsFZyQME1l6XYWyyOXEH6dlqa2BdF7rIjJi73a71TIH2WavtqPrmP9yB6I4dJp8woFhmEYZivgVzYMY4f8416f9mPo61nknpQBtw+hUwMY+jSKQJsqw+jwKxuGYbYATkgYhmEYhmk6/MqGYRiGYZimwwkJwzAMwzBNhxMShmEYhmGaDickDMMwDMM0HU5IGIZhGIZpOpyQMAzDMAzTdF5JQrLyJIPB80lUfvdS/m7Bjh3or/nLqRujcLWL6upCwuZPj28PWfST7F1XLb/iyTBbjeYnr9K2f/2U/30FPT6PFn92vNGPTNqi443EpqdzSPzxCkWGXyivQv7Xwpb1v0a847zRUj2WV7eJ8hyunGyHR+7f0Yr+2yvqwOtB3Vj6K+OVJCSzX/Rg7IfXq2MZhvmtUUDq0yFkdgYxejON9LUoDv0fdWgTFL4aQv+/imrrl8cvXf6tpPCvIQzdBoIjU0jfSiH6dos68nrwax9Lm/PK5nhc/pVhxI+r7U3gPTdDdfEvRDIMsxYF5O/Rf51RDJwKIXTCj7o/obSFsYl53QkiTn0txoNqmyzkkXxaEkT0QpjsIwT/6/Q3tn4DNE5Ins4heb4H7R756GoHPL4e9F/PoawOS+fWH39lsHRnED3eVu0R195jZ5G4b5TSy3Rdpa93+7GX6tFedVgfixqP8x7mkPigQ39c9sZe9Fykul8C5XvVx6yeANX/0CSF+ZWNqrfRp/oYtozc9X70+PeiVR3z+Lpw9qq5fRIqd/UsOoy2ha5grraAjvyZ8c96VbkdaPV2oPczXfYqel1dxuNiTzu6Pkhg7qk6bEP+bx1U1u4xZw5X3qbrmB811qHaaOqXycdGf6gHfo0eo9rtl228uJo92GGxEdV2qZ96Xa+gcPsKeo+pPqH+73jvCjI/qcOroNVt9CWdd+jkIDJPLHcRWyG/rY1LjNd4GSTek3JQmeAY9ZLEYbvKuu3vfUMv0/PZXJ1suq331z1ar9nv2Afokg+T6K88nvag/WQ/kibfwsslza4rNivb5e/B4J0lVYCw+K4mv1YX9YGDvpPtXj3OUJH7a8hZ0X/O5K96XRVZDTnld01fJj8wo/RX88pmFRmz53dgr+aHCXTRMfPj/7XlJn7KYPDkIaU3pd/bBbKaNXhZxpyprXYxx7CLjHYNJYe0P4o7OSWGvfyG3U8ie1GPxx5fP6bVOdprg7Xa5QSS68p7XRW9Vny3xm7WHzcNzDFHjhuTdXHU/MrGsCG5X+ninQRpgnCg64p93UmgV5ajtnT9rx4B1o49TuKkEbvpK12rMpYqyvcTOLtGjHEUJ5uN/On4OkozInYAAm0BERufEulbE2L4Xb9wUXHfuRlR0gotCrqLEDjgE742v4iMULmbcRE76hKATwxkl6nMsljMpulcKnc4JiZupcXMI9r/bUz+XL2IfatVpLa9wnfALfzvDlO5KRH/KKBdL/h+RPjcQTFwLS3S14ZFSJMrKqae6acujgfp3KCIP6KN4jzJSuXMn+lREdkj5YyJGV1wMf95gM5xi+C5uJiSZa5RGU1ulwjfKOqFiNlPfNo+/+lRKkcynQsKb3dIUD4tguOLeqEXpIduvc2hyxN0Tb0cJdbC1R0Xiy/0YrqcVOaCfs2p8ZgItJFcR0bFgl6knkfx2msZ5IaFn/R16Tu1bcP8SJD0Z5Jd6pP6M3DYVJ+md6U7M9b9z2bEwEFqI/WDbg/VNlbtwQ6TjRjnShvpdGt6jU5LG9FZHA/p9nVC9r+un6Bb9nWoXj4TyySrl+oKUDvleXY2siXyN7RxCfmL7O82l/C9L/U9IUZvzGtHHLXrxay4pMlsukanV4S6TbZN6DZEdqxvVqjZ79AHSqQ3n5T5YFgMK98KSx1V5CqJqTNy2y/Cml1L2Qd03VLbL81p1dj4blpMXA4L/1q2LanEGeMaRpxxidDfdRutyHk0JuI3TXKSDLFvjZ7T9e+lfnJb24OAGP2eimh6oX1UDiSnbE81FplsXds2xaY1ZCzmqL0f+ekcuq7UdU6PH47kJruM7ZNlImJUyizrPqHHHLNv1LMoJk6QD5n6xtC5XcyRfaPHOlNs+nCKojOpxVZ+Zfdkz+6jA3o8Hk8LeWQ5O6Bdx92p2lXxZ3N/2GDVc2lKRKW8Rn/Ja1wIaTrDgUtidjNxkyjeCGt+5+6U8iv9HAyJEMU/kM/r6HajbxfFPJXTxipDF9lFOYI50rXePhfFAJ/uwzSmpHK031HscRInG4yl8uxrIaqPYr3yv3pfdhgnXwNsE5LZv3prjUdjWcxflgO5cnBDiVZDfDEvho/QfpPBzJyj7ePUeWq7zunVtvejtGlwoHqk8VjkWL4ZpX0uGgz0bd1grbIalOja5OA1g9os1UsBlIyhxuWf6Q5SMdbihBa8rAOWfj1UBvXitTBte0UsU+uMpcmoFrR0Y1K6ovaZKU1GhGsPyZZXO+ooiglpgGbdEfOfUwDZV3XaOn5OabLX6rNe9rogYWDZvzBC/U6Gm/pZ3zYoUV+4KvZgh2Ejlmu8oEBgo2urvLIdWtBSwdMOzbY6a/UjHlDC5qaEIaOftXn517JxFdgOD4t5c584bJduQ9Zr1OtO7781EpI67HxgQYxq8lvklYOE2yuCX1Ay9SPJuJ8GMmsy/P2oCNTZUCNba+SXOlq/kP6HZeCuIBMht/B2jpJslKjRgK3Zv1nO5Qb63xcTabMQdQm9eQBSWH1AtceITWvKSFt1+ncqt53/Sds67Ba+C+mGNr88rdvt8ANLCbpRCVRijiGXuf06M+dkYlSVt95+DNuLiFSN4ep24zqTEqWa2KOS19WSBEtbizei2uBrtQ9d38b+DcZNpf+ahIEoZeSgbO7/envQ4olJF051bdiN/7J+I2LgLPY4jJNE3Viqxq0AXbdGQhWjjBjjJE6+Dti8splD+usCcCaGaM28jBb4P4wiTMdTt9WjKMnxGAaOUy5qsNOPSITCwP0ssk/UPofId3bVmmg4b6X/OsMImeRo8fsRRBkrNa9D7Clc7UPv1SKif0+Z5pgEcOnBIhbGg9QiE7v9oKqB51Q3/bfy3Rym4UffB0GTTJR6SL2o7/JxYvbONHA4imi3uRRJfypK1ywjeTtD9Xng2UPHvx7G4Fc5LD1XZd5PoVRII7Zf367HjZ4TNKTdnUam8rhxDlPXcvCe6kFgp9plYeVelmT3IvJHsz6tsjulQG2cA/5ANc1ltD/Fb3xmyy10lTlk7tk8+jZj6UPs9MIndf1DXnskWr6b0XQd/VOtvGiLIPqhF+Uv6XpKZ1Y8v6fh8V4CQ3/LIl9Wjx8PX8J8cQGj3bKHt0B+pzYeCMBv6hNn7VrB7HfShvoQrbmGl8qsv7es2PrAE5L7PoW/SKRGXrjCmCguYuZj6pw3I5jIFzFzjkK4mQN+HKL/SuQnZmp9l2xtP93rgvqkoWqpX+5RvxzvQ+Sg2qXhQvhaEYvZAfgfprXH7FIPXrOcLVKn5Bf3U5j+j9onOR5CyCzEPh80KR6t0b8NcSCj2lODU7k9XopGWSQ+HUP2Bz3uSNu69KCIhZFQbXwykb2bRHmPFy3FbI09Z36kKikmJe/NqpKSIMLdtX3ofUv2YB75ulcYFo53IGDW52O6HtnNoTZg9o7purdnUWqha9zPILtWnQr36QksFOvn/vkOataFsubvG4yb/yU5SY7eM7X6d3VTnD6sNhyyPl0DHUfMFrHO2LNGnLTluyyST73w7i4ia6o/c6coBaQYk4WUcO04+Xpgk5Aso0yd6X+LOkHtqeD2yjYiVyzp2xIKPJaQpYJRBvlH+rZjzM5rYLfPAeW7/eg5n4Hn3BRGT5m9SvFyBeUnOerEaQoI/eg91oUh+d74pyLkfPPikjSBQ/BZHAa7PXBX9pVQknH5D3rgq2GnW8YbVV8LwhcTiLyZx1jkEDy/098V918lHa3xLtTdHaIkkBKMO8ok78tgR8nGSTKwBuiyU19Z/0y+TLo61XfHqImA98bQd7IHPebPnxLaPIn5QkN30VmjD0tlqUQbXRNuTYkFapO+bcX34RiGO0uYvNiF9tZdkHOBej9LYq7ybnQL5N+gjTtrF9mHfNdrY0Mtv3fXXXc9NPQBaq8MUr79DmpfKaP8AwXO20mMXTyLHl+fNg+jJgZI1u2nBRQe0H82uq3wrEyl/DSA1gdM95taJELxZ31bY+dWB1YHMtrhVO4DUYxdDqL01SC6fK3YJedHvHcFyfurzSEhmeSg/2QSg1Z7PjlECTDxeJUBbDMU8hSJaJD+W5/luj04+w/Nk1CggXo9rJCP5CmRyVwfw+AHPWj/o2Zdql83GDd/LlINdvqngXtdHblZXa8z9mxgrCvQ9eV1Jv9iqZ8+Q99oJZCnm6a14+TrwTausnGhZYPJxKYpZzH0lwSK3XGkv6h9wiEp/KsPhzy70Oo9hK4/DSFJg31rZwS9jrLnFuyyyW/WZF8EqRwNPrk04heC8K7MIyEnyvl6Vl+b7+5F7ykKAveykGPyXGYSBaqr54h+eN1stE+01UzaK766T4l03DRcAVzKFrH8aBYTI1EcaqG7kk/lBLRD6L9ruovfFvm32cZbdtXZrmNW8wGZjKuvjSlj7rMueHa1otXXgb7zCaQeluD9oJcS5K1hxcHExGazvTK6EPhkBsVni5i9NqotMS3cG8LZwF4cOp9dvY+Ox7FoY8vaJxPbVCK7FrFvba6pfUoYdXrDI3/vI+jBrtZWtAf60D+eQu65F9FTFuvaaNy0pQUtu9XX9bBZXW977Awi/si+fiHSiO2hIk7jZJOxSUgoCNIdXe6RTZZOd97y6UHwLVMXLC3VOU7hB5m1BXHoD/r2K+VlAYlILxIrMaQmyVisA8ZSEoN/nET5RAqLz6jDiguYf5DGxOXeGsPyuOXWfP1jzeeUNT9U30HBWkb67/OQLa7h5RKKMvndR1m5vodogftgCLGRKczkyThyowg+zWDsxpw6bocL4VNR4JsM0ktzSH9F9140KDR+PkL3AfvkvTb1lTWYviQ5zasHNOrLFR6bc/5WeGSiNjenZfTbQatLKtFG18SSpkS6Q5VOtQot+wKIXphAOreIYnEKsX15JL7MkG1ugfwbtHFn7fLA8yZ9tbGhFfLBepmLWLL2V2FefVOs5QNv+RCi//I/mPtZQueFPGj/8zTK/x5F36dZtF+eRXGZAiddYz47hfhHQdLoVuCFr5v+s3kcXfhHj76qY4eLSuVQeFR/F7f0kxaJ4FtzNNgMDmS0i+W/W6fcu70InBnAxK15LP5YxNRHXuSvJpCxTYaUvdzN0QCu73llvOHRXlHNPtx8JJgb6cPQvXYMf0dxkBKZxdw8Zm7GETtmZ13rjJuanHb6Jx/7Xn11xGZ1vf2xUx+nssjlnD3paBwnXw9sEpIAek5RI68nkKwJpCvIfZnENAXRYMDkTV8nkTKXW5lD8p9Z4N0QgtZXBttOGdm/9KD/jgexvw/Xvk82+D6nPWoLnYrAa8qWVx7SgF9JNKjjOoOItOWoLbWdVbiexJT6LpOFYDdl9A+TSN6p7dIy6SXx2IXIsQ6qPINB/160/0+tA7XQYORW31ejpTuEaNs0Mp+nkHkcQN8J2zfXVY4FqXwBkzdqZV/6ivpKfdfQAmcB+bzpfQgNZhlKfqr4EX6P0h+7Nt7px9439uLsN5szZ9dx+VqqXtd4OonklwW43u9Ah+2TCHKmcDs84aT29Migpc0LT6Xvt0D+Ddq4s3a1IHg8ApdVPuqH5PWqpUn0BCeHhR/0bY1yBtO3zbU78IE9QQSPUBibnETOPBfrMdV1Z4kGWj9KuTmyjCDC7wfgNj35Lt/OmOx/M3gR7KR+uZvCpHkeiLK/pd/74P+/exChm6MkxZ2CWc4VqVPy4gNBdNi8Dts6HMhop9/DzuTO/6MX7Z5eJGuM1w1v1XhtaEHoRJQiD8WX65Y06bFcrupBh7HcdKs5GEYf2U3uWhKZGoMuI/PnvWj1nrVP0OooYP4hyd4ZRuSom1qkeFkm+zNZ10bjJiUvvQfq9V++S35sivFrs1ldb3/s1McGG1uTNyXv7IDnmPz5ASdx8jVB2LGeZb9ylnJlqdKoiFiWG0lmP5Grdqiua6st+zVta6j6LStMjJnzRlnzbP7Fv+tLLL3a0ku5lMzykUvaiikRljOXSWZtKbG2DCskvG1u4ZbLMU3X05dsVpdTTVzQl2tJWSsz1x0t+10WMx/L5XxuETxjLLtSS40turJnWUx9KJeUrTGT3YShC2O56cTlkPDR+XJfVXZjuanqZ7XUzNcdEn7zjG/DHqT8F1QbL9gsfaujQR/a7N/osl+9nbKPBirLEAe0pZOmZbmblZ/kWt3G62frGzhb9qtsyLS0dEBb8ievbeoHw3YPhExLW91qebC+MsCRDxD1y1IHdLkODIgZuQxw7pJaFhwRo/K4jAGnAsIt/UTKYLTV1neJRvvN2MQZvd3VvlvPst96/Vv325TT5DTp2Cq3Exlv6Cvtwp/T8fUs+6VYFpI2eDAsBrS6pV3qS199H1tWAZqpxBxjWT/590hU9R/Zgaq+0Uon6/56+Rv5bbVdlfgp/c1YBm1ZzVODRc+1P6mg9HPELVxu+lT0v/G4achpLE+eGolo/q751Cr2YF1l41TXDe3dUexppO/6/XVjKWHEmIqvko6iykYNW3MUJ18D7BMSyc+zYoIGap9UvOzY/SExMLlgWtpXVVb6RlQE9shOo8HsxIBIFywNfJQSUTI2WY+LHK2u82w7s0EnrZKQ6Ma0ykcZXulBXESPerVORJtX+Enm1PclvbNr1mUvi8VbAyK0X5dd00FmQjPimqV0y4sifTmsdEBt3BMQ0ZEZUTQPdC9KYmYkLIKqroa6aoC+/AwiMOIkHdEpZkyyH4mK+INUvew/pjXD1BItt1zvnxZFTceWQFaar7EH1x6/VnZxVfGdO5quawpKpn4JUBCa+VEdbsiyWJiMidBBdR45nfcotXWuaqkam5R/dRu3GegqOGyXtCE5GGnyqWv8szaIS8y2q9nZ+LwWfI0g6tQHJKUHZMtG32tyxcW8SW1m+5G2IQeFmUJRpE7Rds3SVZtA3Gi/lZp+UX33oLbvSnMmOZVuUnlzmUb6t+63KafJadKxndxryViaFcPdqn/lIGPsXlNu6vY8+eQJP90QyTJGn85altXa8KJYE3P0/omLWdPyUqcJSb38jfxWp8ZupD4OUly8JX+zYxWsepbyV+xdxtagFjMXf9R/sqAS5zYRN0tzVl9JiWHZrlXsoS4hkTjQ9ar2vmbsWUectI6limLGFGOkjjqtMdBhnGwyO+Q/1LgNIB8J7UU/4lj8dnsnUTHE3X60vpPH8KPN/Ey+/DXCLuTHF+uXczI2sI0zDMO8KrZxlQ2zdZQx/VUK5Xcj6N3Wd+YMwzAM0xw4IXmtyWPy4iD6w0FEr7ci9lGfo0mwDMMwDPNLgxOS15oVFO4mkfiurP057OHj9T+0xDAMwzC/BjYxh4RhGIZhGGZr4CckDMMwDMM0HU5IGIZhGIZpOpyQMAzDMAzTdDghYRiGYRim6XBCwjAMwzBM0+GEhGEYhmGYpsMJCcMwDMMwTYcTEoZhGIZhmg4nJAzDMAzDNB3bhKRwtQs7dvRj8u4gOjw7sMPTjv5vytqxlScZDJ5sh2cH7d/hQfvJfiQf6scq/CTLHMLeN2SZVuz192DwdgEr6rDGyzLmrp5Fh7eVyuxAq7cDvZ9lsPRSHZfc7adjXUjcSaBXlntjL7r+f2exl8qf/bqmNo3seSrz1hDmtDrKyF3vR49/L1o1WXfA4+vC2as5OmLCiawMwzAMw2wrqzwhSSH2x1l0fJ7G1P/EEAq4sHKPEpS3e5B6HsTQzTTSN4cQfD6Fs293oP+uGuafZ9Hf2YNkyYfYCJW5NYro7wsYo0G//xtjmC8gGfah4/I8PB+MUpk0Rj/woDDeA9/JBArmpATzGPpjAi1/TiI9EkP0/0ufw0DyTsaS4GQx/VUZ3vd7ENgJ5P6fEA59MIWVYwNIUv3pa6MIts0jeT6I6L+W9HMcycowDMMwzLYj/5aNlcXxoPz7NiIyWVJ7JAti9AiE60xKlF6oXRolMXXGJXBklEoQ38bo3KCIP9IO6ryYF8OH3cJ3IS2WaXN5OipcCIjhB3LLRG5YBOAS0Wm1X6sLwn95Xt9WLIwEaH9UTD1TOyRU1gW/GM7JjVm6nlf4zs1o16vwbEpE2yBA+zUcyMowDMMwzPazyhOSIDredqnvxOMsMveBQ23A7J0MMreNzyxKLV7gfgbZx1TO40UAWSQ+HUP2h7L+FGOnH5ceFLEwEoL8e7XZu0mU93jRUqQ6K/XQ50c6HWUk783Ksyp0HPGrbzq+7l66RhKZO9WnGNnbKZSP9CF8UG4F6HqLWBgPatersNsPv6zquZLLgawMwzAMw7wCVGJSg/6ExPLkQD2taPxxiYGsLFgSs5eDwm3sd/tE8NSwmJhbVE8cFkX8uPk8m093nEoR6pqxb7UTTag6zkzpdb6YEbE2iMCI9oymyotlUSrMi5lbUyL+SUyEj3oFpVgCx1X9a8rKMAzDMMyrYN2rbCg5kEmMzaeE0U5ZwoXAJzMoPlvE7LVRRN9uQeHeEM4G9uLQ+Wx1QunxOCgpsKmHPpkYvKqYPV70vh8G5FOV57R5bxqppwH0dvv0w0ThX3045NmFVu8hdP1pCMk7BbR2RtB7WBXQcCgrwzAMwzDbivOE5A0P5NuO2Yc5fXstdnsRODOAiVvzWPyxiKmPvMhfTSDz1APPm3T8bg45mUxsEHd3COGnU8jcLeuva473IXxAHVxKYvCPkyifSGHxGSU4xQXMP0hj4nKvfaLTUFZ1nGEYhmGYbcV5QnIwjL4jQO5aEpmaRwdlZP68F63es5im/fl/9KLd04ukWsii0eKG12PMR2lB6EQULiSRuF5Q+xSPE+ja4UHH/zpIety96D1VxtTdIW11Tfh9U7LxfQ7T9F/oVATe3fouycrDDNIP1QaxtqwMwzAMw7wShA22c0iI0rcx4dPmWgTFwLW0SN+Mi4F3/cIFlwiN67MyxKO4CLVBuA6GxcD4lEjL+RsXQtp5vo/VqpcXiyLe7aJruIT/9KiYupUWEyNREXRT3QdiYsZY3NNwDolO6UZYn/uBsJgoqp2SYkqE5WoaQ04pw7mQ8La5hVtew5hD4kRWwlh11EgOhmEYhmE2x7oSEknpwYSInfCpiaAu4T0YEgO3aieBLudTVMZPCYAsQwP+noCIjs/WLhd+URTpy2ER2CMTE5k8+ETwTFzM/qyOS9ZISLRlvPLcUylhXqAsKT2Ii6gxibXNK/wnBkTq+5KY/cRL29Ulw05k5YSEYRiGYbaXHfIfGmwZhmEYhmGaxrpX2TAMwzAMw2w1nJAwDMMwDNN0OCFhGIZhGKbpcELCMAzDMEzT4YSEYRiGYZimwwkJwzAMwzBNhxMShmEYhmGaDickDMMwDMM0HU5IGIZhGIZpOpyQMAzDMAzTdDghYRiGYRim6XBCwjAMwzBM0+GEhGEYhmGYpsMJCcMwDMMwTYcTEoZhGIZhmg4nJAzDMAzDNB1OSBiGYRiGaTqckDAMwzAM03Q4IWEYhmEYpulwQsIwDMMwTNPhhIRhGIZhmKbDCQnDMAzDME2HExKGYRiGYZoOJyQMwzAMwzQdTkgYhmEYhmk6nJAwDMMwDNN0OCFhGIZhGKbpcELCMAzDMEzT4YSEYRiGYZimwwkJwzAMwzBNxz4heZxA144d2LHqpx9ZrXABiXdo+7y+tWHu9mv19t9V2054Wcbc1T5cuae2mc1h7QMb/RaudlGZLiQeqx0OWPpXL1p3tKPvXwW1Z5vQ5F+fbL8dlJ++k6BvvyS2KL5skI3YO6NT/vcV9Pg8WkzZ8UY/MivqwKZ5fW2Z7WVzrPqExNsdxcCFgQafDnhUuabxJIWh85MovlTbzNayFfotZzB8OYuO8TRSp71qJ8Mwv24KSH06hMzOIEZvppG+FsWhFnWIYRoh7HgUF0E6FBxfVDtWY1HEj0Pg3IzafoUoOWPfqm1ma/ml6ffbmACCIv5IbTO/ApoYX5hNMCNiFDu2p9+UTRyP07fXi8XxIMegTfDq5pD8lMHgyUPY+8YO7NjRir3+HgzeLqDyFM/mlc3SnUH0+PeiVXvktxeHTg4i80SdIcu/pb820h7fVV4hAStP5LXa4ZHn7fCg/WQ/kg/L6qjEeAyc0a/hbdWu7QmcRUKWW8kj+UGHLitdt+cilTM/JaC2XHmvC+0eWb9eRpPtJ3W8AfrjvH4qR/KF9Ha1ejtw9uocypanEM7bMInsxQ6tnMfXj+lyFv30vetqDrmrZ9GhyUj6Din5nmZxxajXI6+dQ6VWcx800K/1kaTRpsm7g/q1PO3o/0bWWEbuen+1/zT5umqv14iXS8h81osu43GvYS93llQB55QfJtFfsTtdvq4PEsiZhSjnkPig2p+6nPV9UouhZ+tDY5v9jmzf5jGvzf6129PILmweczvU86p+2BDqf7K/St1Kzrmn6rBibTu3p3w/gbPHqjJ1vHel3v9U+zqUf0tf6/3M4strlLF9BP90DsnzPSZ76UH/dbNdW+KL0oHu6xb7d9IHhh3cSaBXyknt7frfnDpYi+GP1hdctfvXIZ/sx/X6sSGv/K5d1+QP2mtgikur9YmEfHJ1Hess3RtDb2CL5X8+jbPkX602rwlXvj5Lddj4qhWKs2Pv6f6n2ac15hDl+9KXNxLj6dAWxsjXCpWY1LLVT0ieUba8D8J1NCJGr6VF+taEGD7ho0zSJaLTy3oZ7e62eje+TNteOh44PSombtE514ZF6ABdpy0qpp5RgeK8SP8zJvx0TvhzWee8KMrzsgPC3wbh7oyJ+E3afzMuYp1uqttHdZe0uisyH/AJnzsoYuNT1fr3hUWk2y38dN2pW1Mi/lFAuOgagZEF/dTSlIhS/a6DYTGstYXKXAgJH5XBgUti9oVezA49e6ZrHnDV1e/7eEYoTayvDW0u4T46QDqiusbTpAP9zsRLbXMrGafGYyJA9eF4REQOuEXwwsTafdBAv9Y7AH3bJVzugBjQrhUXaSo4/3mA9tO1zsWpnXT+tVEROerSyoZvyJoaURJTZ6hcm1+EL0s5ZZ0Det9Q+y/NqWJ2WJ+Q5IZFgOSv6JHaPHpa17frVEprT9UWQmJA2oFdn9ui67neRyz7Hdu+zV3VZtpTZxdqf+Wu0pme1/TDBhi2Hrqg93/FBo+MCkOr67JzU3xZvBYSbpLJ/+5wRabwQdmWUFVXL+i8bmlvhg2SHs4F6TyTrzkoU3fHW6L+1Nof0OOG7M93/boPk4y61Epmc3yptM3U705tXbMD8rE2n4iMyFg1KlI5dcyCLm+MrLCW2v1O5dugH8vYcYv6hHQC6iPZrplHmjbFxAm6hqm9E5fDmg24uskujdhZ0bFRztCxS4T+Lq1XyU827jLkpzIDWyU/MXNO9gvpqyaeL1N/yTZNKF+rpxIP26rXnLig25Trw6lKjC9Rn8oxw3VU2b5hw3a2X+fLm4iRrzmrJiRycGr4qQQIpbTVEhK7gPtiXgwfdgvfhbTeSVqZakIyc47q7LQ8knswLPxunxjIqG6te6WwIEaPUCefSYlSjSGpDqwEQyWzRablm1FNBu9HaRVYJFJOKisdhraKN6KaE9e0hVgYkYZfv9+MbqzmwKWjO01AjH4vt9bbhohImStTAyL2xUTatH/+c7927ZoB9BklV7TPRcFXw9IHdq9srAHaaFNk0izELOnMq7WzGhoIeT05KK1mKz+mRHQ/ObN1oP9+VBuMV02SLXY2S232HqCgUjNwUlD5UDq+Cs5GGzPaQUVJpE67hPdEvDJ41mNJPCpY9ju2fRvb2Uh7GtqF2m8kJA717MgP61DXIj8yU5qMCNceShrycmuddm7YjLKhwOX5WtuSOpX1qaC/PB3VBrDozRolaL7m3h8TU7TbSRmrvc/+1WvTV8ti/rLZh40+sPY72YbZ/p3auvJLP7V5LXR5DVuoUrvfoXyb8WPlB+Yyur4DYviBxW60RLuaSOixlMrVJF3SLtzC2zlKEdmQ31LGkKtid5uQ/7tLWiJujn3aedSm8LXGiYwRDwOfm/uq6qNpaesvZsUluknRfNFs+8u6Da8Z4zcTI19zNj6p9e11TGn1eBFAFolPx5D9oaw/qt7px6UHRSyMhGA318nze1LtvQSG/pZFvqweDx++hPniAka7G8yOepxF5j5wqA2YvZNB5rbxmUWpxQvczyBrftTWGUZon/pOtLj0ekMnQqA7HoUf/rfpP/VI0X16AgvFGdBdbw2+g4fo3xLKz/XtxgQROx801U9XONVHe+eQ/a6w/jYc70DAXJnB8RBCpv2u3a30bxDhbtPE0t3Utk6s8WrCCUF0vG0WIkB9u4iF8WBt38rr+en/58oG7Hgzgol8ETPnTHJKDvihaZjOdUrgr/NY/D6O4G61Q6MF/j/Imlb0vnJ74CVdpz4fxOR/lrCi6cKFyI0SFm/FQHcxm2MDtt8IR+0xaGQXBg71vCE/hAeePXTxr4cx+FUOS0ou1/splAppxPbTxnrt3OC7LJJPvfDuLiJbOYc+d4rysih/mcUsFZv9bgrltj5E3q1Vgv+vsyjm4wjTbidlaplD+mvy0TMxRGv8n/rgwyjCdDx12/QqxRJfsNMLn7T/H/L6a7N12nrHEXnyFrKWfJvxYxuyd5Mo7/GipUh9b+67H2XXlZG8J3uugOy9ObJf6peD+nk6LlAigMXsAEVkRaeljCHX48Lm5T/Sg8i+MvVn9bVN+ZsUktTLoW632tOIIPpOVaQkDB8lvT6h/x6mMUm2HSWb8e7UCui0+BH9U5hsP4Xp/6h9Eqsvb2GMfN1YIyG5hNGRUfvP6XWE6gNRjF0OovTVILp8rdgl3ye/dwXJ+6b36BZ8H45huLOEyYtdaG/dpb336/0sibnV3l0X8to70uzf+tBzsqfmc/YfMlDMo0DGX8FsDGYs+1tsyq2Uy8hT0MxcH8PgBz1o/6N8Y5pD8Wf9eGN88FmSGeyjffRfJk9utN42NGKnw6GukQ62gpc0SD7J0cAxTQNyP3qPdWFIzk/5qQgaPlZnpYzyD3MUsJIYu3gWPb4+7Z10rljSj6+DlacF5O5mMH11CP3vdaDrstRwAUX5unV3GJe+iMD7wxj6/B6yTTlHoh+J2/ktSNSIDdj+WqzanvWyhp435IcUgMMXE4i8mcdY5BA8v9Pfb/dfzSBvzCHZoJ0XHuflv5j8S+058jP0jVYC+Sf0oeQPfl9twK/BSRkryyjTQOJ/iwZVtaeC26utOqyxT6f1bqGtrwun8m3GjytQkiATzCeTGLT0W8/JIUzLItS3MpUoPKDv+6lf5L7V2E75dwbQc8qL8lfTyGpxoEz9Q1Ke6kXvWvnIWjwrUyv98L5VH6Pdb2pW5GAcIZplN9vIK5rU6kLgkxkUny1i9tooom+3oHBvCGcDFPzPZ+0nF7kou80WsfxoFhMjcskYZc6fyslQh9B/d/UMMPat9irK5lPCaKcqtFHKc7gSpIGrtRXtgT70j6eQe+5F9BRltpvEZXKwbW3DK6Dwrz4c8uxCK/VX15+GkLxTQGtnBL2HVYGGlDH3WRc8u1rR6utA3/kEUg9L8H7QS/cm6+TxJCUZlATIiZjvRDF0I4PC7iAiJ8x3L5R4n05h/sci5m/FMdDpxcqDhDbZzHsygcKmk5IN2H4jHLbHGQ71vFE/3BdBKkcBP5dG/EIQ3pV5JOQkRV9PzYTAjdl5EPFHdufITxqxPVTESb9tRcK5KbbQ1reJjftxA47HsWjbb/TJxLQkZMUy8XkzbEb+wEm6UXmaQfY+bdD/U18D4Zqn583i9bebjfLqVtlIdnsRODOAiVvzWKQBYOojL/JXE8isYoAt+wKIXphAOreIYnEKsX15JL7M2AfyNzza47zZh/Yz0LeCuZE+DN1rx/B3FKQpaC7m5jFzM47YMflKxAlFLFnbS3cG8r4v6D/0Stqw7SwlMfjHSZRPpLD4jAJNcQHzD9KYuNy79l3Pv0fR92kW7ZdnUVwWKBXmMZ+dQvyjIJxqWGcJyYt9mHzei9SjZQp4RSw8mEf62jB631JFzLS44T8Rw+jNGSz8uIz5kSDKd8aQfKiON6Dws+WxxBPjcbeFNW2/gKLFLgqPzTWtsz1rsU49r8sPK7TAfTCE2MgUZvLkL7lRBCmwj92Y27Cde9zSgrLI5VZ7QuOF7wANGznqC2vScW8QHm8Xxv7jpIzarrALrn10yiObp1tL1H/0X/CtNS28ypbZupX6GFOgutfNZvy4Dg88b9J/d3N0A6fvsYf6pZv+q7w2qlL4R091lYkTNiv/kV5EDxcwmZnD0p0pTCOKPsvrvQ3xOxddP4fCo3obXvpJsyL4VhNw2+ym+byShCT/j160e3qRNMduGgC8nkadS8Eu3A5POElhuEpLmxcNT5EcDKPvCAWMa0lkaoy2jMyf91KWfNa5MdtSwPxDcpPOMCJH3dXHti/LmCaDdcY0kl+ZXW0Fc9cSFGLDCB2nxm17G14B3+e0R7ChU3SHYZrvsPIwg/RaA3xujrQcRPj9ANymJ5rl23SHor47YwE5+Qj/OPXVPlNFKzlkblUHwZU7gzjkbcfQv9UOyc4WeN9c67msPjgV/rtQY6OF29PIqO8SR7avBagC8nlToZcFZL4x1+SsPU5xpucN+uFKBoP+vWj/H0o8TLTs8aCi1Q3aeUt3CNE2IPllsjaRIH3JJZKeY2MU6oGOY71wPU1hUluCbkB1fz2Npec++A84K1OL/hgf1xNI1sxvWUGO5JmGD8GA86F662y9SqtLdkwOCz/o2xrlDKZvbyBobMKP62lB6EQULiSRuG5JNbRfBvegQ1vK7EWwM0CJC/WLOSFU/rD0e+qX1WzPzKbl9yP8XgCFr1MYvjcN14chhGrmb22Qw3J+io0Nky8n/0kSHwiiw/pa38R22M1rg7BDrTzwdkfFwIWBhp+UeUb5ajOWqb5QG7SlspWllWqpbGUJnppJbsxqXvx7SJsB7393oLIkcEBbLukTA1k1Z/rnlLa0zHtqWEypZanGciq4g9oyVO08Y8lYZfaxktn6wzoWGQy0lQaq7Own+pJNfdmuWq51xC1cbvrYnGvGmIFdXYY2JUZPW2XbZBtsZrdLrKsFdCx9Z22/jX6t9djWW6Tz5Cx2Q35tOWVIeNvcwu22k9nE3CV9OdzBiBhVS1uHTwWEW5671sx4TX5DlqJInZIz20nX2jJnfelpaI+LZJDLA1W5ZzNiQC6XI1mjI2op4khEW6KqLUWUVTXAsIXAR6YlowdCInTYNNPdie3LWffmpaRqCaavOyT8621PQ7uw7HeoZ0d+WMeymPlYliFZzxjLhdVyS9PS3HXZuanfF8elTCbZqe6odblwZUmvT4S0pZEmX9OWjjorU2ff61n2u0V90Cgu2WL4Htmh9rME2nJStwh1y3ZYVtmsJd9m/NguDlX0XY2fEyNREZR1ydVjxkoSGx3rS3oNm3sV8iu0lStyGW/tcuJG2MfZ+v3rWvZrlXMzMfI1Z9WERB88G390B1FKW0MJy/mUiJ3wkzHo57r2BER0fLa65K/O6ZbFwiQF3INezdmlEXuPRkV8zrz+qSRmL0sDk8cp0BXU3gcTdC2ftvZbO+9gSAzcWtSDv0aDjm7g+OaERLwoirQcUKRBU1n3fjmQzYjFH/XBe7XfrqgYZSYlokf1drn3W2XT2XAbtjIhsdGvtZ5GDlh6EK+0EW1e4T8hE1iq7xMvba/+GxbFzIAI7ZcBiM51+7RBbaYgB2TaNv2ORR2a/CZZSvMifiag5Fc6nFwQJbWkrxJgfp4Ro6eClT6V1wxdSItFa6dYqbEFSiCojekfdZ2al96tafuSH9PaQK/1t7p+UfPD9bankV3U73emZyd+aMOLkpgZCYugUb+hn0KtUh3bucWeixkK4IZ9ybo7bWSS/XM5LAKUtEkZNF/LWJZsrlHG1r5/nhUTNLBVY4DqB3V4y/ugQVxqhNn3dFub1wbAdSckxMb92D4OWfWttzkuZn9Wxw3I1qs6Vjb3YI2BekvlN9CXpzsrSxI0iId2+0tzZtvX/SOVN9two3ZuIka+5uyQ/1CjmFeA/LXEveeB+KP6ZcMMwzDM64Z8FbgXQ/tnUBqn23RmW3m1k1oZhmEY5pfCfyaRuutF7D1ORl4FnJAwDMMwjIny3TEMXjyLru4hzB0fQPSoOsBsK5yQMAzDMIyZ8jxSf0tiYU8MU9f030dhth+eQ8IwDMMwTNPhJyQMwzAMwzQdTkgYhmEYhmk6nJAwDMMwDNN0OCFhGIZhGKbpcELCMAzDMEzT4YSEYRiGYZims66ERP70+Y4d/cjqW9pf19zxToK+vc5Y5XQqdxb9O3ag62oTW/eygMkPOrD3DZJXyvK/eXVgC7jbr9XZf9e83YWE8VdMrcdfljF3tQ9X7qntV8Zr0A8NmPu0HTve6MDQvzfwl1TNWHXPbJBXbyu1MXGr0duz43y19vK/r6DH59F8c8cb/cikLX76SqmXz8yW+cd6+PcQ9kqZ3hrCnPkv6a5Jc+PM0r960bqjHX3/ev3i3KuEn5C8ztwdQ9/1PNynJ5C+lcalE038eZ4nKQydn0RxXU7+K+ZxAkOfAbHJDIaPutROhtlOCkh9OoTMziBGb6aRvhbFof+jDr1uNMk/5jKTKBzwwUfXT95eUXtfc8qko8tZdIynkTr92/4Jtk0kJF7EvhUQ377uv2L3S5GznsJj+UTkEPr+HEXoRAjBfS36ga3geFz+pWfEj6ttK2sd/62zL4YZsUD64WSE2S6CiMu/yF75o24F5OUTys4oBk6FKCb44W6qn1rlM9EM/3g+jeSXBfgjQ4geKSP5rxSW1KHXGlcI8UclpM/x78E2Tkh+ymDwZDs88vGXpwNn6x4l2bz60M45pF4xtGKvvweDtwuo5qnGY7EcclfPosMjy3nQfnIQmSeWbHalgMxnvejwtmqPJFu9Hej9LIMl0x268bg0Y5b1jb3o+CCBXOUpYeNXNIU7g+jR6idZj51F4v7ajxbL9xM4e2wvWo1rvXeFrq8OKpZkvf5qmUN27VsVXea92qNQ0tlbUk/GY+Eyctf7q/XTx+PrwlnSqVX6pTtX0NtIVusrGSvm4/L7W/r1NV2aHlGXHybRX+lz+nja0WWn//PUd1Iv6nGz7M96malt0i6MPgldwZxdlziwjUasLS9RziHxQRfaNfs09DuHcp3tOXvN4sRm1qLG1kN6XboOzXIZup5E9mKH5g8eXz+mVdvK92XblZ9ofteP5MN6Ba9qNxLt9Z3RT430r/dll/F6Qel57qk6bPB0DsnzPSZd96D/er0t1+PQVoiN6N+Zvu1w4p+WOKj0KNs+eMc8hJpeiRiv9eRuTTb1esHOj8l+19KpIz8g9HKNbMYkX4UVFG6vYT9GWx5KPzNeSatxYJ1+YWblTgbJp16EOiMIhQPAN0mk/qsO1rCFtmNpizEG9VzU/aF8r/qKzROgMabG35zYCuEgHv1qkD8dX0cxJcJtEHAHxcC1tEhfGxbhg34R6vYLICZmtEKLgrJyQXfS9I14NiNi+yBcRyNiVJ5za0IMn/BReZeITi9rZwg6M0aX9B7wCZep7tABqqctJOKPVLEXVHe3i871idDlCaprSsTPBYWbznV10/Ve6MUWx4NaGd8Btwiei4spc7kPp4R+VYucxnabS7ja/CIyMiXSN+MidlS/3kC2VtbguH6WZPFaiOp2Cf+7w2LilqEXOs8k+/K3MeGlMoHTo5UyevuiYuqZXmZtlsViNi0mPpL69ovYP6U+50WRjsx/HqB9Rntl/aMiosnuEuEbsoTO4nhI0L2JcHfGRPxmWkyNx0TQTXIcGBAzUg6SU3Z/7Fu9vL4drPaB+XhxXqT/GRN+2g5/XpVF5IYFuX3lGrLPR08HtOu6TqX0Moa+qc991OexcaXvTrcmc9U2hJj9RLcXP+nO6Etvd0jQ/Ve1Hxzahi3rkjckBqSssv6P9DKBkQWthES3PZO+GuDEZup0b0PV1k36UXL5Pp6ptXWybffRAboelRlPa+0q0TV8sp1HVdsNOajO2Lcl7WzJmnZD15g4QX1HvhPW9E92ejks/BQv7HwzdEG3U1lPQMaUI6OiosUS+ZjmGwHdLmTMeNevt+ncjKhKVY8jWyEc6d8GZ/o2yhkx0al/VuOg+2BYDFdirCwXEKPfq2KqHEgXmg/eojJym9oi9T7ziKSw+nFFp0b/GDp1idDflV4c+YHJZqwyVnRnkk9h2I/vhK7viv3U2btXi9tGvxg2VGMf66IoJt6l8/ddErNy81FcswXvX7WtGrbUduraUrWT4PsRLebVjnPVccCZrTiLR78WbBOS2b96a5UuKaW1hKNhQqJ1jCWovpgXw4fdwnchrRxYGXBd3VMiKgOaSiKK18JaJ8cytSGpNBnVHMsYxPRgUGtEkplzslMbyGlsk+MP57QdOlLWI+ZyuqyVup/pMgYuz1eCkYY6z5B95hzV0WnUoXgwLPxuSnYyNWeuid4+s05nSZ9k/BQAampSslUCg9p2nZmqDeoyEJEcsWnaaw1k1v6zHlcOXtkmZj/3U1AlPdckWsti6kMb/dfZBunXLHNxQgu21oHI2sdObcMOR/Ia7cxoBxUlkTrtEt4T8UqwrO8bGxzajK3vWDD0YNWPHtSMQczQdUSkzIVezIpL0nelbZsTtmVl88Yg4MBulqelnsl3Hlj0rA1yhv6VHB+l9WOK0mREuPaQ7+f1bS3O1LV7WcxfNrfJBoe24lj/NjjTt1HOsHWH/qliC/bFRNpcubK9ajyzDvjWbcLipwsjunw1sY1aMHXGLbydo2Ketpz57YIY1WxjWMybbUbGardXBL+QNVnkUf3ipX6vsZ+fU7pd1dh7fTlHPtUIpTv/51IuibJBmaCY5d9q27FtC5U5TNe2tGX5ZpT2ueimV245tBWH8ejXgs0rmxyydwvAiSii+9QuiSuE6Ad0j9wIjxcBZJH4dAzZH8r6a5qdflx6UMTCSAjm2Q+u9wdAyU0VVxiR910ofzOLWZSRvTMNHKbrd1MeaMJ1KkrnlZG8nTG9Bgoi3F377s371iH6N4/8ao/T36X6D6rvEpI1EqGuv5tB5onaZ+a7rPY40Lu7iCxdP2N87hSp7UD5yyzJTl9/T/ce9xIY+lsW+bKS8vAlzBcXMNq92TkgAdLnIhbGgzX6xG4//LJrniu9P5jF1FMX+t4Po0aDBy9hluSIv1ur140S+Os8Fr+PI7hb7dBogf8PUv8rKD/X92h0hhEy9/lOL3xS5h/y2qu0le/mMA0/+j4I1sjsPRNDVH2XjzjXZxu1OJLX7YG3DUh9PojJ/yxhRXss6kLkRgmLt2KgO0bnOLQZ5wQRO1+rH/+pPto7h+x3pheSxzsQMBd6mMYk+UL0wyi8O9U+SYsf0T9ReL6fwvR/aNuB3WTvJlHe40VLMVttj/z8KJtE+r+neQE8e6iGr4cx+FUOS8oOXO+nUCqkEdsvt+aQ/ppklv1rtgvZHyRnmI6nbufUvlqc2Qqxaf071HcFh/5pcDyEkLnyfT7NvrKP7Op2QgHZe3NUbx8i5thGLQhfK2IxO0Bac+gHT7LI3icNRCLwm22GYvVEcREzH9ePBWWKnbJfon8K1dpPW4Rsz0v6Jt2bYoKcF1fTf/u11iO/gebnv0nRmQH0nTDk8qKX7FhOrjVPbt0u26ltC90atdJ/lpjXQkYQJB/RY4pDW9nKePQLwCYhKaH4kBzvLQo6ao+B981VJt0ciGLschClrwbR5WvFLvlO8r0rSN43zyHROUR1W9GSiKc5SiJKKMkXaH/QnbOGnW6Z9wA/FUFmsTmoLW711UB3iDyKNjOh9AmmBUz+pQc9J2s/Q99oJZCnRMb34RiGO0uYvNiF9tZd2vu+3s+SmFvXHJI1eElB4wkljrenKQHsR++xLgzJd8hKLwUa5Ms4BN8q3bWVrDwtICeD0dUh9L/Xga7L8p1yoVaP5qBmQ3FJRiGSuWZwInZ74K7s2xrbWFXe3WFc+iIC7w9j6PN7yI7lHKB+JG6TTtf5ztapzTiH2m3VjxrEMqtF8WdlupKffKw+IXa/SdGVbkKKP5M0a9pNgdpE/z2ZxKClPT0nhyjQE9TmAkWO8MUEIm/mMRY5BM/v9Plk/VczyFfmkCyjTHXZxRm4vTLmI1cs6dsWnNnKVuh/g/pewz8r7Kzvj81B/fOA/qM45sT1V/WDQkEbcH37nQeRUlk6p02/EG7NOdcXExzzkpLXf1IidqQXoQNqH+HuDlFiWzu5ddtsx64tTtq3lq1sYTz6JbCuVTYtLTLta4QLgU9mUHy2iNlro4i+3YLCvSGcDZACz2fJLJxADrpVRrphXNjVME4EEX+kveay+dCd3x4q4qLMN1vE8qNZTIxEcaiF7lo+lROoDqH/rjMtrEbhX3045NmFVqqv609DSN4poLUzgt7DqoCEjPyV8HiSnISSzzeoj9+JYuhGBoXdQUQqdylbQQt21dxubQKH8npPpzD/YxHzt+IY6PRi5UFCm9jnPZlAYd1BwIHNbAGurfAbp3ZzPI5F2/bQJ6NWs+2LIJWjoJpLI34hCO/KPBJyoqWvZxt/b8XOVrZH/4307cg/t5EV66RhO5z4gRwo1dfXnvv6E0DcH0S7mhyqT9Q9qyfJDSe3mnl1tmPg1Fa2Nh693tgkJK3wkEJyj+qfbOQfz6tvq7Dbi8CZAUzcmsciKXHqIy/yVxPImByl8LM5TdYpPKK69/lxaE8rWqVhfJ+HzFFreLmEokxw93k3v4R3aanO4eQdInU/vG/q22Y8dNcmHyfmcs6Cdsu+AKIXJpDOLaJYnEJsXx6JLzObc/KlJAb/OInyiRQWn5FTFBcw/yCNicu9NfrwHvBTWjVv8+gzi0HKsLv+1/5R+PpYQvJiHyaf9yL1aJkctIiFB/NIXxtG71uqyDrQ9UsyWwer53TX91B9J9vcuG2sU94WN/wnYhi9OYOFH5cxPxJE+c4YkhVZ1ma9NrM2RSxZBxy6k5O6CPrl4/YG/M5FOsmRj9XLsUR3YjLwyqcia9vN/x8e6Rt3c8iZX8c1pAXugyHERqYwk6ckPTeK4NMMxm7Q3Sx2wUV3pHZxBnQXq0ll8yRV4sxWtkL/69S3Q//cPrzwddN/6jWomcI/eqCvuHLoB2/5EKL/8j/U1YREyIP2P0/XxbJWl3ROm34hljTn9MG7RQl4lRVM35ArKAOIXUtrv9dU8/lcvn6cQ2JS2tyrtJ01WK+tbEE8+iVgk5D4ETrpA64nkDR3WjmL5GTjgSz/j160e3qRNOcapESvpy7tROGrFDJma/4picRXZXhP9ZBZuRDsDgMPk5Qx1pp8+Wsq99iFyLEOtWcTUF0pS/vG/pkF3g0h2Kb2mWjpDiFK+5NfJmuz0pf6UkvPsTEK+ZR0hNvhCScrjwglLW1e2Khh/Xyf0zL+0KkIvKb3vysPM0ibDfPtDvS2lZH6qjZolO9MY3qpBB8NPJtnATn56PJ4GBHz76Os5JC5tf6Ep6WT7tDackj+szZpK1xPYkp9l0+vNm4bzuRduTOIQ952DP1b7ZDsbKEk1fqCb22c2cx6mEbyK/MAsYK5awkKm2GEVvu9h8M91GYbOajtyX+SRR0IokM+rl7Tbv4vhE5EqRdI19ctA9XjBLp2eNAhk92VDAb9e9H+P/ogYNCyx2N6TRpAzykKvdY4Q23KkZzTNHgFA/bDuDNb2Qr9r1PfTv1z2/Ai2BmghDGFSTknyIDam/kmg6Xf++B3OfTbPUEEj9CQPDmJnFl3jzOYvrNEyY1MXmtxHZevSOr7BU8ntd8Hcb3fgY6tfgL+PIPMl3S1d6MYOiN/m8XyuTCozVcsSJuiJPrV2c4aOLSVrYxHvwiEHcbSscoyzVER0ZakyZnDxixsNYvZWJXyKC5Ccib1wXB1edKFkLZsrLpMTs3Kpk91KdmAWlZI9RrTlNe17Ld+VnbtfoucxrZ5GartUkBd1uqMd1mvvqTNdTAiRrWlk6Miqi1frS6dXPy7LCOXig3oS+puxsWAtvy5fklxzWx5G+raZ12OreklJLxtbuGWOqy0sSprZfndSKS6NFMWsK6isa70sB7/ma5N295Tw2JKW/ZbFKlTso/cInhBX/4pl/iF9rhIFqmTRvo3qN+vy1xdZjdxQe9zKUelHza87NehvM9mxICy/eiIXm6CdCeXrFZ0RzhdEeDEZup0b4OxCkCTXy1xHz2tlnNWbLSRrsml6RrSF50u+21oNxX9G8smpX6iFh9eFjMfS5snWc8Yy9/Vkkazj21i2a8jWyEc6d8GZ/o2yqmY6Ng/G/m/df9a24TVT210OqDaq8cfp35rZzNGrDaWgNfLU2c/DZf9mmQ2qNuv6rexZwN91d3qq+v0lUcQ4WtqYf9W2o5tWxr4obFiRpZ1aitbHI9ed+wTEsnPsyJ+JkAKImW0eUXgTFykLpucz0bpy/mUiJ3w6+fIjtwTENHxWVGqDBKGAafE7GVKVjRD1eue/VkVMVheFOnLYREgR6nUNTIjiqYBp1En1O63yqm2z6XF4o2oqt8lvN0xkcqbjVqX1WygkmKGAvlRr2ao0ql9nVERnzMHtmWxMEkOftAoQ3UftZapd2Q77NpXehAXUeP6pDv/iQGR+r4kZj+RS7Vrf+ukRla3/E2IdFV/VkfStk3XqnM0ugb1md63FFwKctd81UZkOw+GxMDkgih9d0n7LZaaJaB1QcVu/7JYvDUgQvul00O491N9mYn6fnBgG7Y4kpf4eUaMngrq9kn1G7pbNJnHegLAmjZj1b0NletlUpX+1/Rza9G0bLCRrnVKc6RLSo714EtySNvJ1w/Kq9qN5EWxRv+yTNDqwy9KYmYkLIKqL43rpQsmJUoozkxQIDZ0rbVJ9ok63BiHtkKs7bP1ONO3Uc6IiU79s5H/W/evtU3YDYhk51WdqvjzwNRep35AlB6YbEbF6vlKVXbtkP1i0rd2zqiY+VEdltjJLKnbr+pvYM+VpcnWpb1W1FJfvDtB6ZhkC23Hti0N/NCckBCOY/kWx6PXmR3yH2rkK0L+sl8XEudm7H9u+LeEfMQ97sPMb10PjCPkL4fuPQ/EH83ULplntgXWN/NLI/PnLhT+8su213WtsmG2ihXkvkph+fdycSPDMAzDbIKnk5j+xguPW23/QuGEpBm8zGHqQRBjH/rUDoZhGIbZGEu3s1geuYRwzY/d/fLghKQZ7Axg+NZw7a9pMgzDMMwGcJ+ZQOq0/aq0XxKveA4JwzAMwzBMPfyEhGEYhmGYpsMJCcMwDMMwTYcTEoZhGIZhmg4nJAzDMAzDNB1OSBiGYRiGaTqckDAMwzAM03Q4IWEYhmEYpum8JgnJCgq3B9Fv/ZPmW8TSv3rRuqMdff/anvq3Hv1PXO84n1Xbv1Xk3z5yoIe7/dgh/0ZSzZ+x3zjy75js2NFPV18vv4Z+03XeddXwlfo+KP/7Cnp8HtIR7X+jH5m01P8O9N9VBZhXwxbb/caot4+VJxkMnk+SN/wGeDmHoT/sQOuxIcyV1T5mw7wmCcksxk6OIf9cbW4l5QyGL2fRMZ7+VfySHcM0lwJSnw4hszOI0ZtppK9Fcej/qEMMQ8x+0YOxH1bU1q+bwj+GcAUxTN3mX97eCn79r2xcIcQflZA+x8nIL48g4kLwX4ZuKtY+KCB/j/7rjGLgVAihE364j8chf/A5flwvwfyW+G37qFf+5frv4whyMrIlNE5Iyjkkz/eg3bNDexzr8fWg/3oO5qdS5ftJ9J9sh0c+stvhQfvJfiQfmksYj39zyF09iw5va6WuwTtLehH5Z/jlY0dZ+vze2keQP2Vw5b2uigw73tiLQycHkflJHSeMx+uTdwfRIct52tH/jZShjNz1fvT496JVk09etwtnSRYnT9aW7lxB7zF1Ll23470rNdfFSgGZz3orbWr1dqD3swyWXqrjEuOR6sMcEh90YO8bUg6pp9o2OGOb27MOXWeo7GBIr0u2++zVOZTN7V6HrOWHq9mQzSsbssuKLknGns/o2upQDQ7aoyHbYlzfQ21Zx2u9pTuDlVcXnsBZTDZ4dF6+n8DZ1XRvh8V2NPlkey/qNla+V31tIq+dqPE7ec21fFNC/VTxy1bsDV2xeexs6gNDJrlbswX1akfbb3ll83JpTf/Q+/6Q8gv6kO92fZBAriKD8QpsEtmLug48vn5M18m4guk/0XXe6Ee2xg6J59M4a8jZiC2Vlc4z2YXuH+u1e50N2c2mYqY9zn1U10HXVfpKNrGX9lf07tAfNd0ZccMo82SNpy1aTKjWrccaa0xSr5Kc+ISMXcZYpfkW1W9+FWv4gdXfLftr4qVxXdmPNXbTAIdtcmQjTmPh64D8WzZ1lGZE7AAE2vwifHlCpG9NiOF3/cIFlwj9fVEv8m1M+Oh019GYiN9Mi/S1YRE+6BKAT8S+LWllhKB6qIz3gE+4D4bF8DVzuYAY/Z6KPFsUM7doH5XzfySvNSMWn9H+0pSItlH9xnm3pkT8Qki7Jg5cErMvtAuIxfEg1eUSLndADFC5qfG4SBeFmP88QPvdInguLqZuyeuOishReV2XCN+gAquwOB6itkK4O/W2TY3HRNAtrzsgZqRsLxZFvFtva0jTD8l2LijcUh/dcbGoZBOkI8qhhe+AW/jfHRYTJMfE5bDwU7twZFQsqGL1UP3Hqcy5GbW9ze1Zl6591B6X8J8eJTmo3EcBrW7fxzNiWS/mWNaKDVltoy0k4o9kCd1+Knp4MSsuKbuMjEyJ9M24iHV6RahbyhVU5xAO2yOKKRGWfeEOarajX99P9fmpvhhdvTHFG2Gl04Fqvx4MidBhk7zE4rUQ2QXpS/V/fRsbUGc7VV0H348In0nmkKaTqJiSfUk4800hZj/xaX1S6UuyYW93SNC9rgiO635e0wfFedKl7qsgmdLUnplH1OuarKC61SkV/zBsQK9b+kfFTnLDIkDbhk3KGDN6Wm+f61RK6Fai/KDNJdxHpZ6pnvG0OmaBZJDxqSKDYvlmlOQIi4lGLrLVslKsk30TGzfs063pODpteIcTu3doN5re12/3jWKmHevz0WWxmE3TWEHbh2Oa3Jp9OJRrma7lJbkCZI9Gm622XY+h95AYkDqXdSs/CYxUI+xydkCLu5U+rPRNrU/osdLQu7KFNurTfUYbCaveDSz7q/Gy3rZcH05V4mU9ztrkyEacxsLXBNuEZGFEDigBMZxTOzRKYuqMW3g7R8W8HBhkBx03Db6S5XkxfIT2VwZbZaz7YiJd7XMhHsVtg151Wwb8qObY1k7XZbN2OkRk0nyBWTF8mII5GVBNpz/TO8c8YNShyrjOTFGLTcig5CbjnS6J4rUwXdMrYpmaEqI0GdWMuRJ8NAOlhOyjdE1dusw2Bl1BGWRFzm1uzzp1LeUw16UnICrBdCzrghjVbGWY7EntkkgHcntF8It52qhNSHS91wYQbUCRujLJ6bQ9s3/11jqvpJQWMWnbqyUkyv5rkk+ilJEB1dRG1ebA5flaXbzQ/WTVoGRrO3SeTHgstqMPui4xkKUNp75ZnNASC2tfGn1sm5DYbhNKViMZWJ5WfnCzxuI0O3Hvj4kp2j37uZ9uVEjHNQPNspj6UCYHhu6Nvo2IVG1V9Rh9YpZL1neGzn93wj6JIbZeVovdvSB9rdfundqNZQDcXMy0Y/0+Kpk5R9vS/tS2U7m08zqr52k8GBZ+ilMDmQaeosaSWEZta5RE6rRLeE/E1Tikt8N1JiVK5nZQuakz1Idr+oR+Q1dpo0XvFSz7631JZ+ac2W5scNImhzbiVPevCzYJCTlWd61B1TF3SQu80Zv1RqIPGn6VzChjpaBai32Qs3acLVqnG/Ubne5UsSpo0ODcwLyFoEza7k6rChnGKarjMDmp2lPBGAyM+o1AXWNYhLG/4TWUnCYnt2cr2rMKTnWtHMh4emaPRdZCXITW7HOznajBxUbv+oDswAZq2qMGdxvdzdMAtGrAoGTOT3LV27+q0+g3SlBk4hr5Qt6Z1H60u8jVrmFrO0qH1qBtBDDZxw59U9dZtW8ryEBH528mIZn5WN6lUdtqgr8zdBsz7ohVe1eLRSb0BNN03Z9T2gATvtYoHdkGWa19Y22DE7t3ajea3tdr94bcDs5bt4/qWBOShljk0gdJn4iMzIiFUsOIVosamF1HB0QqVxTLdv1o3ABfSNXpc+Ij6eu6Lko3zGOXiRd0k2JuYyO9W/Y30vOa+nfSps3EFolF968LNnNICig8oP/2++DVd9TzrEyl/PC+1aJ2VHG/6aF/cyj+rG9r7Kwv55SVchn5+xlkro9h8IMetP9RvsG21N+IlysoP8khe3saiU/70XusC0PyPfdPRRT1EnUUfsijjEPwNWx8CSX5/u8PPvj0HVV2uuGR51nr36n+3yzb0p4qznRN7d6nvhrs03WRyZve068la6GAWfrPt9+BYBp0nnznaaP3lt+7bW119faUUHxILvmWF1br9L65hkw/F6kWO/v3wms6tfA4L//F5F960HOy9jP0jVYC+Sfy/1Wws53V7MmhbxaXZF+RXVj7crcHbuu+dUFt+oEcxE/xw4HdrzwtIHc3g+mrQ+h/rwNdl/W5CEU1xWw9BEIReJ+mMC0n3RLlO1OYRhi9J9z6jjq2Qda16nFg95u1m03FTDPr9tHVWUsu34djGO4sYfJiF9pbd2nzJno/S2JutTkku8O49AX1+w9j6PN7sMsj50f0I3Gb4p4x36KQh+yp7N/66vR59h85OjKPwo8UEUg+oAP+A/IkEzsp5rzKCdsO2rReG9kym9hmbCe1rjxVX5pJeQ5XgtQZra1oD/ShfzyF3HMvoqfonscB/297/x/a1pX9f6NvX/o8OA/5gAwujwQdbhRSiEwGIpNyI5NcrmVSrmUcqEwKlWkhUVroyAnMx05gvvH0j9TpAxlnBhJpBjpWcskgF1LsQoJkaLDyRwcrkCAN5INdSLAKLcjcBCRowIYE9rP2+SGdc3QkH9lKnZmuV1Csc7TP3mutvfba+/xYUvEfo+j17EKXtxcDn0wiuVBEV38EI4e0Ao2gifR15JXqs01b67i0YOxIVrlg0d5um85dcGlvFbapT2dnl/auVTrRuVt7WyUIOhNSslDqX2nE9mjFXhs6sctkzC1gefDOliezFGy7sEs+YPduFJM3MyjuDiIy7NcKbIEjQ4jsqyBzL0cb9JcWwzgxglC3+rEtv7Ssjv1+C37TpnFcpV1j1KlcrgAuZEtYf7yEmctR9HYWkf1MPnTdi7G7jSXxfphC/scS8rfjGO/3YuNBQnkI13s8gaKhf2Pf2tlSvsqY7icxn5e1kjuPM50c+Ei7feIVY7Mg8cI3SH/ozNr6XHrxb0PqU+4dLipVQPFx/WS3RmfA0lBOzsibkbs8isl7PZj6jhyUHGa1kMfirThiRx1MFmtJTHw0i8pwCqs/U+eUlpF/kMbMxZHGV300vAf8NLnlYTzZV8liglaqA3/5EV0yYD9agVyjmni5hpI8bh+dKat72sMr1afQoq1LWLMuWGm1Lm0R9Pc6l/VtH0L0Z+X7Oi9DIuRBz+/mLcHQA89b9MfG7huP6cxVey9xpk8XPLRAKtCxVi9eeZLX3jXgTQ/8tv5Psj3S3hIet9Q4i0LhF1zk/pezsanKRn5hzRR4XkTxofZ+S1D8OEADpEDxwzrZ35uAxzuAK/9aQ/L8KGafjyD1eJ2CZwnLD/JIX5/CyNta2S0RwMgpP4pfp5Fby2DuayiBt/H6agdkdeD3/8cW/WZbMdOOlseoPa3K1bkvgOi5GaQLqyiV5hDbt4LE3zPN2+p0wz8cw/StRSz/uI785SAqC1eQlL6sjFdg6aExStSjXhldQuF/1O0qL4tYqTu0iJIlDhaf1AXZ7dFEJ6expe0+8YqxXZAE+wPA3RRm/6XtklCnZL7JYO03Pvj/P/JMBEj+PWkeyBsFJL+ks5IDQfRt87Jv/iF1bn8YkSPu2iX1lxXML8xpG014VABJgdCJCLyGM9aNhxmkNwu27/RhpLuC1FfmwVZZmMf8WpkC2P8bwUFaXT5M0pm/eYhUvk4i8cSFyNE+bU+beKX60HKlJVvPI/mVceBtIHc9QUMjjNAxCu5OZd0TRPAwDanZWRSMPvQkQ+2u0cJXLqSMdCJ4LAKX1e7kl8kbRjmd+o4foeM+4EYCSeOkXMkiOds8cOFgCCMH6v2/cjeJlEHHzsEQonR2XjdOSGaZRug5esW0kGoLh5yNzc5+OsPvlvvMgb54IwkHI6wpfUdH4HpG8cOUSlpB5ut5rD2n+HFgGQV5WfkY9dG+ag8pMmZub88i/uFRBJ7MIvVFFvPdUYQGDfXb8IvL6sDv/88t+c02Y6YdLY9RO5zKRYuOcA884SSMd8A6u73wNGlkY2ECvd4eTP5T2yF5o5MWF4bbdAfDGCU9CteTyBi7Wfbz7/aiy3taSSV3HQtRFCsgdT1rjpXfkD8ZFx/Kop8WKSsGSbX5sR040clZbHkFPvGqEXZU034Davra7RkxrqVIjWfVh41aSfs1PQCnYN2vPQx6WKaKqWm/5pRErf7DbuFy04uO1R+gs31AyJrOqaRbhYS32y3cMt11kweu9KeqfcNqOtXc5YiSMqZkVcgCLaX92jy82mh/Fe1BON0+r1if1mxN7RlSJKc/1NLB9QffWpC13ofGzenIVj/R7W5IR1f9UspU8wGn+lT9nGRV0zSnRUTxYVlf84fCdNmrqdSaTZVjDf6u2951MCKmFR2nRdQm3bAOWx+xPCCpY3yolXA2NnXZammDM+dUH5btbuehVrvxUfUT5cHnkkidkJ+TH52Tn6up6KE9LvIRaRu9Lxvo2xQto6LbtUlqpcYrl7V+/+Z+r/fNJn6j2L11v3f8UCvR8hgllv7opfpp7qDxL9N+Hcv1V90fx9W2bsXF+LA8tjbv1PHzohjXxnD0sto/MzQWA8Z4Teh6VOOSrFv/KgvDQ7v5y0FNBsOYkL5k1FEmLxjnRy2F2DcYEn6DXbf+UKsznZz4iONY+JpgvyCRlPNihiYSn3Q+Ush7JCriD8wBtJybETFyGDWIUYcMj4vUirGMTfBSqN+/ejMqAlpbavpiSaRlvrSyjwL/ftk5tFj5UX1yXs/HbtS55QdxET3iVR2p2yv8UrZHZXWwNM1rVyllqOP0490UrM6lRcn4tPP6qkhfDIsABSYpn2tPQJHPVMYaqHUa7a+iBTGDfV6pPq3aOpOqyuLeHxLjt1dNgb8VWcsPDD5EZQMn4yJfdSEb/5F2r8qq+lz6S3NgdqqPwtMlET8ZoAVTrf3URannJk+pE+VcTU+l/6+mxJSl3yQm20uZ+2ks5cxjqQ5bH2kw6VkWJJLNx6ZkXazeHheh/TKIaX2ZoePo/bYWJBLZB4bxodZtyHah+FK1u4wvB+nz2WVR/k5mCemp840m+eao2Rrm7/5oyiuV1X5/c79X2dRvFLu37vetLEgkLY/RxxQfaNKTMrh+T/sdj8d1sTxLi72Dus7avLPZWHm6KKZPBKv16/Ft1dL9Jj30frTELiol8ldpLtJ94bCc91L1Ov6YVhZLSl16PFXGYc2uW16QSBzqtKmPtBILXwM65H8kKMNsivzmwb1ngfjjRcS2dUuOYV4dip9e9GGxFEfQQfYMwzTlZQZj/9sQVq6uYpF/guSV0vir4xmGYf7deFnA7GwW3o9HeTHCtMb9SfR4ezGppY3rVO5mkIGrbenPTGN4QcIwzL8/z7K4cn4Cp98NYfJ+EOOnAtoHDOOQQ0MI7y7gUmQAY9fmkbmTQfLzEQQ/SqA8OIXxfq0c88rgBQnDMP8BVJD/xxUkV7yI3UrxLUWmdd4IYOreEuKDQPaLEeVLxiaul+A9m0Z+Puboy/OY7cHPkDAMwzAMs+PwFRKGYRiGYXYcXpAwDMMwDLPj8IKEYRiGYZgdhxckDMMwDMPsOLwgYRiGYRhmx+EFCcMwDMMwOw4vSExkMdbRgY6zWW2b2Trqr052vJugd/+uaDq0yR8q/7yEIZ8HHdLH3hxDJj1G7weQMP7acFuw2t5pX1j9X90euKYddVfK24Gxu+pmQ5Ry7dLLWR9s/JDBxNnkJvptg5cV5K6N4pLlWzz/M2mv37cD+XMAHR1j5JHG7VcxdlReuT8xtvCChGF+EYpIfTaJzBtBTN9KI309it7/XfuI2TZLfx7Cle83tK1XwA8pTJ6dRcn4U+/Mfyyv3J8YW3hBYiKIuPwF5KtBbZvZOl7EviVbfhujd4xckKzIs+v+KMZPhBAa9sOtfvAK2KrtN/H/Y3H56+CIH9O2GWaH8J5ZJF/kH/n8T8N2QaJfHsv8lMHE8R54lEvMe9F3KoFCRSukoVza0st0eNBzfAzJh5ZCxNrCJYwc3Ysuva73L1H92ocS5ZLoafR5u6ieDnR5+zDyeQZrpjOSCgpUZkC/7O3pwQDJlHumfaxReZjE2PFe7H1TylQrV5NdvyQ5i+z5PkV2j28M8xW7WzYbKN7ZRHaHmOwaUuuTep6+lkOlqmcj2dRPK/elbs3srV9mLyi26vPo5SaQ+cGy4t8oIvP5SFOb6zLP3p1Q6yJbjn2jC1NA8uwQepQ2pJxDGLtRoF6S2N8maFl+TTZZ98TCmlZGg+x46f2Bavuyb3qlnoa+acWX1xYmqrdUPIHTmG1wOXhzHSzotzDke0Uew20QK5uNg5c5TP6W2n17DNnn2j6J/GEwKt/z31npsba2lxSljkrdXdh79DQS9+tt3/BSvd0tG/KBxKk+dayRXYc+J1/WPjKy+ZhUcdoHNVRdB67RW5JvLx1Xte3LNcW/q/FC6uy3+JHeNw8NeujjRfcjWUbam94qdjXcOsCzXJMx0IgWxmgrOiwkMCL7lvph4C8F5SOndt8cir03xjDk1+KgousAxS6Lrso409vTZL1TJJ/cBE3P5vG/ht0tm83nIiexpYk/OYg3ip2o7s3mKDvUvmomv5O5yM63qB9CmpzPsrikt+GRc4+l/7bkz21EfnW8ldWrQQH4hO+AWwTPxMXc7TkRPxMUdEYnXB/PiXWt3Hp2XPi7Idz9MRG/lRbpW3ER63crx8a+LWulZH0h4aJj9XJzV2Mi6IbAgXGx+LNSQswM03HdfhG+OCPSt9Ni5mJYqds1GBerL5RqqnKFzkmZ1HoCVAaHp8WyWkSIwpQIGNpK354R0x8GlPZdJ1KipBRaFXSWR+25hPvIuJiR+l1N02eLIkblcGZRKSXRZfcNT1E5g+zdIRF/rBVySM2uLuH/cFq166eqbL7fL2p2bSSbEOVvY8In9Tii6XZ9SoQPuiz2VnXwHvAJlzsoxq+r5UIHLDK/oHYG1WNDis0NfVxncxfVFVDqmrsaF2lFGGpHqVPvsxkx9Z6fdHGJ0F9X5ZGqHseoLqWm1uV3HwyLKU1+tVxATD/SipXnRFT6h15Gyn8upNSPAxfEksVnNvPl0s2w5qPS5pr/HQyJ0CGqz+APznSwUMqTfFROyvbeFL1Pi8XH1DLVBQQNfuRsHMhxJ2Xw/XFJ3fFiSVyQfVHV22r7mk+5qO7I5Tl1rB5R5R7P6law+r+6Hbyq9aAiL0hPdbParrHOfq8IDUqbG/RyNCad94GZdbGaTZPvUZlDMeU4xbaiLOZOkn4GW85dHVfHAel8IacererkVfzDT31TbdcYV2T/fRkTfpIt/IWUP6/KXB0DARG7SvpXxwD1DcnbwBuImo83HaMt6SD71qf2w/VpkSrQfod2r0fzF4PN818EqA19DEl5p0VE8R+XCN/UavqZ9Nonx0ZETCtjkuwx7FPKROd1H7OhGovqx6geF9VxHCPLqajbNR9zNhfV7N44tjTwpxbjTdM5yoZqXLHKZfAHZ3NRvY5VGY5FRETGwXNavLb2zZb9uX00WZAYApHG4hnZcbpTLIvpw2TAkylR1jpDRRtEegf8rHXkyTmzQnKwuMlZ5stifT5KSgfE1AOL0yoDSjeYNkg+TaufaZRnI8K1hzpkRd1e+sJPnUEyKgsdnXUx97FRdq0uRETKJJTamdWBWJpRJhEvtWkq9jSl6mSY0Jyg29Xauepg1wdEA9lk8KfBrkwyRnuv58UU9UPN4TUdrAsmfUBpMpeuh6kNr4hlTJqRPWVf1JxUlzkyay63fFmVeUoGviqy793C2z8t8roe+qTYqvz7YiJtbPJxXARpv+6TpZtR4aNgbtKRUOWq7Xfky5psxklfUs7EhFfKovuDYx3ssPiWxLIgcTYOJOti8fcymEj7r4ulP+rvtY+ttq/6lKW/XmhyV8tZZVS3Gy1IVB+yLMTk5KK0VdPL0Zh02gcNWDxj1IP4kcbofgq+ln4Xj6aVSdqqk3WMq35j8C/N/6qLMWLpD15zGYV1kb9oHM92OBujrergv5hXtzWcxUI7tD6s2nxJTB2iRRttmzxTi+3VchZ/VpA+dsgtfOfS5mMNqH5P/n3LHGNkXHTvj4k52q32R01mc/84nIt0u28SWyRWf3IWbzS7bTJH1aPKj8NTIm+UX/qD2yuCf6Z+dTwX2euYJ1+oi4Oy/2ifixZ9kq37c/to8gxJEOFBCgUGvG/30v8rWJGXyZ5kkbkP9HYDSwsZ5aea1dcSyp103P0MsrLcgyXMPXNh9IMwaKVV4+AFLJWWEX/PhezdJCp7vOgsUZ3Veuj1I+BBBcl7S3SAB549VMPXU5j4qoA17XK164MUysU0YvvV7cAf8lh9FEdwt7qt0gn/b6XsG6gYL3Mf60PAJJSZyt0M5uFH9JOQWfbuCKIfe1H5O8lorM8RQcTOBk31+U+M0t4cst8ZLrBbZXuYVi5fRz+Omn91slPKR656P4X5f2n7CNcH4+b7q64wIh+4UPlmCUtk0+zCPHAoiuig2QCuE1E6jmxO9q9dZg2i7x1juSKy93Ik4ygiB7VdCi6Er5ewmh0nq1loUX4cCyFkbHKfD3QGgexj1UbuD2ewXKq/h+w7KPu5bO7nzXz5f8jv6O/ISbNsrkGyzyFtQ9KqDi3ibBxIOhG8GMf4gRymT/Yh+vkKgldTuGDqCxveI32MZd7wIxKhUEx+nvlB2+eYDSx9J31oFNFjho56w6vYx4ijMem0D5zyVgQzKyUsnjH3Ow74oXjIc/NF6NCweYx79yvehhXrPa8qOaS/pg9PxhA1+SDpRfqH6fPUHfW2SSOaj1GiRR36DptHXUuxsCkBXHiwiuWrQTrawG4//LJJkkOJFR4vlcwi8dkVZL/X9pGPXXhQwvLlkPlYA0vfzaHSTbGE5gIj/j8sobQSR9i8ux6nc5HOJrHFDmfxxtkcVccPWWRJ/mAkAr8xrpA/zJRWsfh7f+tzkUVH1+4u+t8SB2X/9dM8p9wW274/t4OtP9RaXCHXo07806jyM83G1+m/ScHzKFIgLX6/QqG0Fz7LmKpRRFE6yw+zmLDUM3R8kjqBeLJCpToRPp9A5K0VXIn0wvNf6v3JsWsZrNjcn9t4VkRBduK1SYy934eBi1LaIkqWxxCaUa7IAU+yW5xQ4qbB12p9KuT81vq0AZFpHP2AnyvUmp8m0vph7X7LQ/8XUHqqbkt63643uDIJPyvQJFwm3WjHb9V2TbzhlnEF+KmEkrrHBuqzB/SHgnbDbrXSovx4o1H4MrNBfbRCASdz4womTg2h5yP5pIalrs14WqIj7GTzwmtUsFUdWsLpONDYHcTUn2Po+hf1Z/804p866Im3vHUP0qoT78oW/Jj8Q96TtvGhzt+4bf2i6Zh02getslFB5fscTU5JXDl/GkO+UeVZnkKprH6uY5wIHLGOCvWXn8ZZnTe4vTQ12bRhofkY1XZInOrQgHbEQoWXtIj5oYDsnXladIxh5OgAJuXzRHqsOBDFlYtBlL+awICvC7vk8xPvX0LyfrNnSIpYocUL/BRLWu4DDYdzURWHscWO5vGmtTmqSrGoLEB9+xs7estzkVMdqzbfvj+3g21n2ShP86u3fiyvMqZp9SWd2BHH4li1rYdeGS1bYF8EqQI5fyGN+LkgvBt5JOQDOL6h2sNNT2Yx6qfBIB84ejeKyZsZFCl4R4brztlfO1xbHZAtQe7WhnY2HDyk9Uqp5HAp6MGuri70BEYxdjWFwnM6Oz8R1gq0g050ms4ufwGcjAONlYcUaOWbe3OY/x9l1xZxYdfWY3Q9nbvMZ3HbGpNb7YMKcp8PwLOrC12+PoyeTSD1sAzvqRE623vd0cfoNnVoYyws/mMUvZ5d6PL2YuCTSSQXiujqj2DEdPXKhcAfF1H6eRVL16cRfacTxXuTOB2g9s9mSZsGNHhwtVU2nYu2g9N442SOsiIXetrbXztbX5C86aHzGWDpYfPLON4DfnLTvM2lzywmPPJp8P8/PG/R5t0CdbD6SXM64T4YQuzyHBZXSlgvTCP4LIMrN3P02RqS50cx+3wEqcfr5IglLD/II319CiNvq0e3QpdLhlWS3caR1kpSIVrV71G3nVPCmnUypzPfFfoT9MvLfw34LxdNRgUUH9cv8NboDEVejjNehSo+rT/9KT7O04Dxo3cPBTip2iO1XRMv16Coto/OTNU9NnjhG6Q/3xvO2DWKfxuCMSuoSovyb0bu8igm7/Vg6jvyAQo4q4U8Fm/FETsqL022iOLLdrKRfR5pbyVt1sGMp7Vx8K9LiP2vHAIXZzB1OIfJTy+hsFlgX1urC3zyCqZyFUK23RKavDY+tPGYzsi199SoszHptA+c8s9pjH6WRc/FJZTWBcrFPPLZOcQ/DWILHmIDLbrobLVAutZ5wxqdrdKfoM0VECPNxyhtbEuHNsbCtSQmPppFZTiF1Z9pgi8tI/8gjZmLI/YxYrcXgZPjmLmdx+qPJcx96sXKtQQyticxFEsOUDAqUCyx+u+9CXi8A7iy2W1Qh3PRdmgt3jSbo2x424cQ/Vn5vi6aIhHyoOd38/h/vJK5yMj2/bkdbH1BcjCM0cOkwPUkMqYoV0Hmd3tpJX1anZTe6cNIdwWpr+ZNwbCyMI/5tTI54/8LoeEoLVqSSNywdMiTBAY6POiTKWwbGUz496KHgrCRzj0ew2XoZRS+oT/HwojsM5zybRSQud26s7qOhehMpIDklxlzIH82i+Tfi3B90Ie+lq82zCP5lVHPDeSuJ2h5FkbIeC/eyqEh0gnUbtI8cEm35JfzwIEg+gyX84pfpcz98hPZ96sKvCeGECBrBwdpZf8wSWc6Js1Q+ZrKPXEhcrRP22OHF8H+AE2eKcwag8XLIjLfZLD2Gx/8VlValL85ReQfkg37qZ+PuOX5pMrLCuYX5rSNFqDgMXKgXrbK3SSdkWobkrbqYKXT2TiQvCzg0qeTyB24gCt/iOLCXy7Ad38SsT9t4uPUtyljQKtkceXLLPBeCMFubZ9jOhE8FoHL6kPkA8kbxj5wOCad9oFDioUceUkQ4Q8CcBuardzJYAseYkMAQycoQN9IIGmaJDZQIB3maYIIBjZZkDQdo9vVoY2x8FFBuWUYOhGB13C1auNhBmlD36z8bQQ9nhEkjeusTje8niZxjeg7OgLXM4ol+tcJKNA88vU81p5TLCG/aIrTuWjLOIw3juYoG/YEEST5s7Oz5pOKJxmqf41O8Pz4f76SucjI9v25LQgb6p4w17Du11OVoKeu3YqLcT310/A0b1260uVILZVRFqimfenpsGkxczmqpQbHxKLytLCeWeAWwZPTSj3V1LPq0+olkToh69FTm9SUp9Ael3C7ZQqY5Wlo41P5CtYsAxvZbVOtGtVnRrUflTOkt01/aLVX47paSZuV7dRSyMYttiRaSvut9wW7FLFxLc1OTSOt16Ml+euyKsz71cySmr8odR12Cxf1s+wvPRuiVV+upqZrPqr0l0EWZzrYYaMX1WWSzdE40LOyjOm6NDbOyCfk9Swaq+217QM+JVNA6S+btMJ6GdVtazZHNdNEl7ealqr7ANVR1cvpmHTeB3Ys/VHVP0b+rqRp5i6o/XQwIqZlP8kUxhMB4e5208tQn1UnHev+pyk1y+HEFPVLe9J+Zf1Nx+i2dHBu93o0f9HrL5Husj09ziuxIiS8Ug4ps+5nj+MiROWkTuOKPWqpsbWvNbDBJhZV46LyFQL6eG2UZVPzneZzkc0YVKjfb/UnZ/HGyRxlT31c0f1B/2oMqbPztF+rjvZx0NLPr3fab73D2u0vP5gRsWGfMpHJDvMeDInx26t1zlfKUAce8SrKwS3ztNOiZExxelES6YthEaABowQgKhM8GRdLT7XPJS/KYvFyWAT360HPTZ0zLtJFQ2vlvIifDNBgMcgzuyzK310QXto2pRDXTfp2nbkuVuV3SOiyd3tFgJxt8UftY4VG9Zmp2i+TElGtPvd+q72a11XOGe2t6p9aMbqKrkNKLF2kYKA4rJTZYkvJ+qrJ5q49ARG9vGjql0a+oEC2nqHApLQhbX0kKuIPdFns9XAu/yZBQ/qLDHZK29KOQUX21R/ViSNwWU30a8mXc/Fqvyi2uJoSU8YBq7G5DnbY6KVMJBbZNhsHWopiXfqfljKq2FsGeJPtte0zabF6M6rVTf01GCO5jSPVKqO63XBBIpE+VO0HbTx+adHL0ZhUcdoHdTymMUUThOLHWhpjKTMuQnqsUOxI47YoJ2ra1lNBbSdzom5/WRlPqg40ARS13U+XDGNAG89SN+1je3Q7bz5Gt6VDC3Y3o/tLzeblB7V+kbL6pc8/IpvIibs7Kua0SXN9JUVjw6+1qffhkiUd1waL3yt2zNS+KUUdr40XJJLN5yKbMahgs9/qTw7jjaM5qgEm+TV/yJscyclcZK+jfRys7+et+XP76JD/UcPMdnmZwVioiPEmX9ctv11w71kg/vhVfuWx/Ka+ASTkVyvzV+AzzGsIj1GGsWPbWTaMSuXreczt8SjpUQzDMAzDtAYvSNrCGuburuPK+XDtgSeGYRiGYRzDC5K24Eb0ekrJwGAYhmEYpnX4GRKGYRiGYXYcvkLCMAzDMMyOwwsShmEYhmF2HF6QMAzDMAyz4/CChGEYhmGYHYcXJAzDMAzD7Di8IGEYhmEYZsf5D16QFJF4twMdZ7PaNlPH3TF0yK+wtvlJ603Z0rG/cJ80k3FtFiNvdqAnMmv+5V6GYRhmR+ArJMyvkAoyFyeRfSeO9M0IvNv62W6GYRimHfCChPkV4kLor6soZ2K8GGEYhnlNsF2QyF+l7egYQ+anDCZCe9HV0YEubx9OX8uhYrq8XUHhxhiG/GqZDnp5fANUrkCf6MhftuzAwLUMEu/Lcl3YG7yCgvyI6r/0/gB6POqxHW/uRe/xCWpXObA5G0Vkzg9Vj/X4hjB2w9iuE/RbCBmsLUxgyNtFdZF8R08jcb++psr9BE4f1XQlWfvev2SWVb9FsJDAiKyLygz8RWpKdrp2GgM+j6qnpwcDpxLIPVMPq/Ish+TZZjpZ5NXqU/vGovvLNWQ+H6m1KfXyD2FiYU0r0AKVAhKn+rD3TVXvoc/JD7SPTLSlTwjpd8d71fZ0ue8UsaF9rLBV32mnjRmGYZj2Ib863srq1aAAfMJ3wCX8H06LudtzIv5pQLiouO/3i2JdK5f/IkDl3CJ4Jk5l0iJ9fVpEjrhon0uEb5a0UosiRse5ul3C94Gsa0ZM38wLUZ4T0W7afzAspq7TsbKNcyHho7I4cEEsvdAOt+PnRTF+kNpxB0Xs6px67JmgcEv5ziyKslJoVcSPUV203RitzAHStdsvIpeprltxEVN08InxrK4plbweovrJHu9NiRlF1ykRljJ0h0T8sVbo25iiu6vbp9ZF9kgVavYMnVPtNHc1JgKkOw5Pi2XtUFEmOx2gfd0BTacZMfWeX7W5VScpr667lLffrbQbndflLYu5k1I2vwhfnKG6ZJvjIiTrJzku5LRiirzBmvx2vFgSFxS5DPbp94rQoNTJcGy7+oTqie0jvzgSEdOKX5Adhn1m/Zz6jlW/ttqYYRiGaSdNFiTGIK2iLkACYvqR3FoSU4e8ShlTiP5ZnSxqk466IMGhKZE3LDJKN6NKwLdOhsuXZRvNJ0mlTHdUpJ5qOzTKt6I0uejytbAgoUk69q1B0xd5MXWY9usLBk2nwMW8WVetnOvjOXW/MgFC+KlcDa2NT9Patkp5NiJce2gxs6JuL/3Ba6P3ushfNNpcl9dS7gXZ2GjzH1Miup8WildX1W2dR9MiQPJV9ztYkJSuh6mM1T71crStT+xkknY+5Ba+c2nFzo59x1JXW23MMAzDtJUmz5AEETsbBJ09VvGfGKW9OWS/K9JWABcerGL5atD8k/u7/fD76e/zivkSeyAAv+F+vfvDGSyXFkFnwyZ8B3vp/zIqz9XteorILuSA35JkuQwyd2qvpUonvCRf5p6UrwWOxTB+zKDpG35EIkHgfhbZH2j7uyySz7zw7i4ha2gvs1ACPEDl71ksqUcq9B2WBtDxwLOH6v56ChNfFbCm6eX6IIVyMY3YfrmVQ/prkvlkDFGTPTrh/ziKMH2euqPc5FLpDyNkLPeGFz7Z5PcrZB3irQhmVkpYPOOVWzUO+KFYl/rGGRtY+m4eODSKqMk+XkRJrhpt7BOPlzwri8RnV5D9XvMh6o8LD0pYvhxSfG1rvtNmGzMMwzBtpcmCxAefJeBjH+2jP5kVQ0h+uYHKDwWaqOdpEhnDyNEBTN6l/T+VQNP1pmxUKli5T5PXjSuYODWEno8StLeA0lP183qKWLlHf+5dwejxIQwZX58klGdT8sUWp4z9Ppo0zXhpH2mKlcfU4pMVel/E7H9b2qPX5DeyNMkkFy62dCJ8PoHIWyu4EumF57/UZyLGrlHd1WdI1lF5Qgu+t73mxZ3E7ZVrHhRKZXVb4vRBzI0KKt/TYuBOElfOn8aQbxSKdY11NYX6UD6T8Vu13410/sZtsFkb++RAFFcuBlH+agIDvi7sks/bvH8JyfuWZ0iI1nznFdmYYRiGaQtbyrJxacG6+I9R9Hp2ocvbi4FPJpFcKKKrP4KRQ+rnTankcCnowa6uLvQERjF2NYXCczrzPhHWCmzCmUV5u8n2Vf5zUCu0XVzorE5MQcQf27cnRBqxPVoxO/ZFkCrQ5F5II34uCO9GHgn5YKVvaGvfAbIpFeQ+H4BnVxe6fH0YPZtA6mEZ3lMjcGjdzencZbp6ptCWPnEh8MdFlH5exdL1aUTf6UTx3iROB/ai92xWfah0u77DMAzDvHY0WZCUsGbNAnmyAnmtIOjvBdaSmPhoFpXhFFZ/pkmntIz8gzRmLo7UXW2wI3d5FJP3ejD1XQnroozVQh6Lt+KIHe3SSjSiCx654Mnl1EyddrC2Vpc9Ufxe0RS9vwU8dAYts4UKBes5eit0wn0whNjlOSyukM6FaQSfZXDlZo4+o8l9H52hP66/CoC1onKlKUhn9o755zRGP8ui5+ISSuu0GCjmkc/OIf5pkKzXCh543qI/j9R+N7JBstbs/wr6ZLcXgZPjmLmdx+qPJcx96sXKtQQy5JNb850225hhGIZpK00WJPNIfmW8zL6B3PUETcthhOTzBI8KVAIInYjAu1stIdl4mEH6obbRkCLyD6nu/jAiR9y1S+gvK5hfmNM2GuFH+P0A8DCJ5IJ5GVFZGMPeN/fi9DctJmd+nUTKeKViI4fkl1ngvRCC3bSUGAwhSn+Tf0+av9XzpZoi6jmqpTHbsZHBhH8vev6XXHjU6NzjgVt7L5/HGTpBk+GNBJKmKyYbKFCb8/AhGHA+WRYLObJwEOEPAnAb7k9U7mSwmXXNdCJ4LAKX1dakd/KGsab29cnK30bQ4xlB0pid3OmG16Nfj9mq77TXxgzDMEybETboWTa1lN45Mf2hTI90iZCeoVFKibDMOnAHxbieenkmJLzdbuF20/5jcaGW1LJsLNkJS39UUznVtGItjfawW7jc9KLysW+1gnbo6ZtSvnMyrVWmfYaFn+RxDVK7SjaPg4yOakYFvaopntMiYk3nJVavhhS5XAcjYvqWlHdaRJVUUEMGipZlY5Z9XSz+XupKsp6c1lKGtfRoYxutpKRWbatj2Z+7oKTAVmWVdZ0ICLfsG2OmiIMsGyWjZtCYQjwjxhW9qR7jse3qk8dxEZLHHAyLcT19WEvp1VPOHfuOVb922lii9XddNhPDMAzTMk0WJBTIMykRPeJVArZ7f0iM315VJgSd8oN49XN0e4V/eFykHpVpwvDSdlTM/SxL2S9IxIuSSMuJRi5elPqDInp5Uaz+SAsd2g5crn5Dhz3lvJihBZB+vGuPX4TOpcVqVUAHk59hkknfjIrAHpp4aUL1kR7polFTlVKGJj5dX1muPyriOUM6rO2ChHhRFouXwyK4X5/IG7TxdMmkk2Lz2WVD6rXzybKUGRchvT23T1kMLRZLInWCtvV0ZicLEsn6qqGvNNm/tDm2LX1Cza2kRGzYT4tbvZ6AiF5dEmU9bdyp79jp10Yb84KEYRimfXTI/yiompDf1Lr3LBB/XJ9a+Z+FvOWyF2OIY/XbmKNnXxiGYRiGaT9byrJhGIZhGIZpJ7wgYRiGYRhmx+EFCcMwDMMwO47tMyQMwzAMwzC/JHyFhGEYhmGYHYcXJAzDMAzD7Di8IGEYhmEYZsfhBQnDMAzDMDsOL0gYhmEYhtlxeEHCMAzDMMyOwwsShmEYhmF2HF6QMAzDMAyz4/CChGEYhmGYHYcXJAzDMAzD7Di8IGEYhmEYZsfhBQnDMAzDMDsOL0gYhmEYhtlxeEHCMAzDMMyOwwsShmEYhmF2HF6QMAzDMAyz4/CChGEYhmGYHYcXJAzDMAzD7Di8IGEYhmEYZsfhBQnDMAzDMDsOL0gYhmEYhtlxeEHCMAzDMMyOwwsShmEYhmF2HF6QMAzDMAyz4/CChGEYhmGYHYcXJAzDMAzD7Dj2C5InCQx0dKCj6WsMWaVwEYl3afusuvUqKF4boPYGkHii7WgbmuzvJujdK+DuWJvkdipnFmOyb1ruiw0U70xg7IahdkX2Dozd1bZ3BFWfgWuvpHe2zrMcEh9d0vyfYVrgdfadOtlecXxsK69+HvrV0LZ5q3WaXiHxDkYxfm68wasPHq0c8+/OEq4cv4KV59om05TiV5MY+0dJ22IY57zOvsN+zew0myxILmD68nSDVwQ+rdyrxntmEUIsIrZP29E2vIh9KyC+jdG7/wSCiAvS52pQ294Gx+Jkc4H4MW2bYZhfGf9p8ZF53fmFniHRL70XULh2Gn2eDnR0eNBzfAKZHza0MoR+qWghgRFvFzre3IuBvxTqbtmo22PI/JTBxPEeeORtCirbdyqBQkUto1N5mMSYXkZpcwzJh3oh6yVJh3JKqO1L7w+gRymjtt8ry/2kfd4Kz3JInh2q1uXxDWHsRgEWVRSKCxMYkrbp6MLeo6eRuG8sZX/LpnI/gdNH96JLk7Pv/Us1OZXbc2Rbeps9u5fq1exsvGVzfxJ76f3pry02ILJnSZa3J5F7qW5X7jezdzMqqs113UKXkLM77GUFuWq5DnR5+zDyeQZrWvtN2Sgic34TO1cKSJyq9avHN4DT13KoaPVnz3Zgr2Jf7bamwdZN7dwI3ecfynb7VLt5ejB0PoOiwdy6z8/enVD9ksqMfaNJ7tB/1hYuYSTgUcp0eYcwsbCGDOlT7/8ZJN6XelA/BK+gID96SWU/H8GATz1e6SO/WkcVO13IDlIX2T+Ve5cwpB3vCZDvmvyC+v/GGIb8mv1kGcX29uPAihPbr8mxo9evj1fruLZBjSG92PumKpe0/YAp1jS6XWDe39h35C1T6ptm8m/LtpvrYC+bOT6qPqgdX/fS4oakFV+xxPqGOBm7m+I0vjcZB1IO0m3T+ENxZLMxufGDYf5qFCs3iUcqDvynEUr9fapfSH/6nOrWPjLRFvs7gM6C63kcF3SOLYJXV7UdzVgVdBYtcGZR27ZjUcSoPu8Bn3C5g2L8elqkr0+J0AE6rjsk4o+1Yt/GBOASrm6fiFyeozLTIlWgFq4GaX+wWk7d9gnfAbcInomLudtzIn4mKNzUhuvjObGuFhNlqs8n9x0MiymtzfBBl6FNTfZjcXoncShneU5Euw31yvbPhZS2cOCCWHqhlVP0qcltS5naVOoPiNhV0vn2jJh6zy9cVJePbFpWCmlydkvb+FXb3IqL2BHShewwntU1VuU39sXq9RDZxSX8702Jmds2Nvh5VSzepn10nP/TGWp/Uaz+TPsV2SHoDInIi6lDVO/Jmm0VXlB7ZAfvH5eUzaq9j8RE/JahLZIx9q2qSSOW/uijciTnh9PV/vQOhix+uCpmht0ku1+EL0pZ02LmYlj4ZV8MUh/qdrfj50UxLmWhflXtXPOZOjsfCIlxvcynAaUvApeXlRKlArX5qZ9kpb6X9iyUlP2b2rkRip295Msu4e4fV46duaj6kqKTVkz1eep/d0Dxy7mrcZGWTTvyn1rfuPvVvlHtJscQHWvxfxf5me8D2Q8zYvpmXh4t5k5KXWp2n7s6ro4L6tsLOeVggy5uzQ41+wU/iAhf3ZiKijnpa0T+iwAdq49nWWZaRBT/donwTdXGjXBi+3WSzUtlAuRfehmrDLYUpkTAYDdp3+kPVZ1cJ1JC6/0GMdC8v6HvXA2p/TWsyj93NSaCbimbwXe2YVsnOtjLZo6P648Xlb43vW6OK3XXxl8rvlIf621pZezW9YER1b83je+NxsELamNQ+qRPhBTdanKY4k91TOo20MekS4T+qo609ey4EreqfSLjeT/FNqq7Fis1nZrEI4kj/7HjxZK4oMlZnVP6vSI0aJ5vndm/PTRdkMgJqeGr2vHOHaHOQPrEri8iFCelifGiDII17BckNBAtC6bFM9JZYtSaZFlMH6Y2D0+JvHGikm26vSL4Z9mGecA5lbN0M6oEAGtnL1+WQdWwX9Gn+YJk6Q9emzLrIn9R1hUQ04/ktiYnbU8ZB+0LWihIHa3y633xsyp3gOxpXkiox9UWb+pxJntqfaEuSHTdLMGbyrjgV2WSzr1Pk8Vo73VNxsPT1CMNKM0oCyKrc1v7eX0+Su2RDR6YtNECrktE5y37DSjyU5BOPdV2aJRvqXUqdtb8PpZRP1Mpi9SHLuEdjlflV+XS/YxwbGcbNDtbF1SqXDWddFtEZs3D35H/aH1T1wa1rSyirf5zyDJmfkyJ6H5aLFhPUB5NK5NRdb+mi/fTtKEftcWsRcZ10k9OSONZubVEZWiypf432Umza9PY4tD2i2eonn5dT40HU8LvpgV9pmHviKUv/DSBUV+bFi3rYu5jY6xpFAPr99f5jub7ZpsRT8nmhpizdds61cFGNl3+qn9Y0CdoWbcuVIu+Yo31djgauw37wIjDeUgvZxkHpethktlL8cE8Bsuz5rGqxkpLrKZemzvpFt7+aeo1dW5ynUyJsnGcKWXInnqsdBKPnPqPDao+lpNF2afKXFPzKWf2bw9bf6j1ndYfaXV9MG5+DsQVRuQDFyrfLGFJ2yXpO+zX3jUjiPCg+c6m9+1e+n8FK/LS4Q9ZZO9TqUgE/jeUj1WozZnSKhZ/37iNzeR0fziD5VL9My2+g7L9MiqOHw7NIf11ETgZQ9RUVyf8H0cRps9TdwyXMd+LInpQey95w49IhFz2bgaZH7R9Rr7LIvnMC+/uErJ3qIz+WihBPpFc+XvWZPdm+AZHEECSjq1d2szeSaFyeBRhKdPDNGbJ7lGS22u0d6cf0U9oyNxPYf5f2j4LG9/lMA8/Rk8FQSv9Kl5pF+29JHs3icoeLzpL2Zou8vWjVKeC5L1G2hSRXcgBv6Xac4bj6LVU6YSX7Jy5R/3g9sDbDaS+mMDsv9awoVwWdSFys4zV27HGz0xt284ujP4+ZrKb670IRrsrmPvOeGQQfe8YLeTQf7S+GTlp7hvXMfLzfm3DSCBgHjNvRTCzUsLiGcuTBAf8UDz+ufnCbWg4ZOhHCtVd9Kc/jJBBxk6/n7SpaDYO4MKDVSxfDZLkBnb7QcUAqr/hjRWHtvf8hqbDewlM/imLlYpW26ELyJeWMT1oatVE4A95rD6KI7hb26FA9v2t1HyjhbFuT4XGrvT96CdGmxHdERpLXpKfdDG00bptX5UOFWT/ewhjCz5M/YPq1oVq0Vc2j/UOx24LOJ2HzOOA9F2YJ5+hGDxo6im4TkSpPoo/JNOGlPceyXtsFBFjrKa+Cl8vYTU7Dv8Til80N/VSrFlaMOq0hHIn2e1+Blk5hzmIR636T40NLH0n9RlF9JjhyDe8Sgyv0X77N2PrD7V+2DA8N6T3bYuTEsoi4llBXUS0k2JRcS7f/vo2N8OpnBuVClbIeTI3rmDi1BB6PpJPYhRQeqp+vjnrqFB9fmqvLiS6vUoWU6FUVrclb3nh1t7qePfLflhByXB7Vqf4ZEX+j1kKHEPHza/Jb5QSWLFbyNhxIIzRY0CSBpASzl9mMf9VBYFwSJ2of65QbX6yU31wd7+laNLQLqU16dC98JkmVWK3B+7qviLpQ39+mMWERZeh45M0KAnS135okJ736M+9Kxi1HvtJQrk3nCd/we4wLvw5Au/3VM7vwS6PfM5gDIk7K5Z7tma2b2fS3epyFBh8FKsr/9NIJ4lD/ynLvgnS5G4tRW0c0N46YaOCyvcUgO4kceX8aQz5RpVnj0w+KjEuZnTs9ll5SZPjDwVaWMwj8dkYRo4OYFI+w/RTCY1yP5za3vfxFUz1lzF7fgA9XbuUe/EjnyeRc/AMiWTjWREFGfyvTWLs/T4MXFSfsbAbd61Qphhi6/uE2yOdwtLGVm1LtFOH4rVRjFwrIXQ1hQumiVfDqa9sisOx2wJbm4fKchjRxOyrPzF5ww2lqxQ/pTj1gN5TXK5vRaO4Amn57J9GzfrQ6/TfFI1QpJMsJ/GoZf+pQrLKZ0xs9On8jdsge/vt34xf6KHWzaBA6XBQOUYGN+1t+9DkrORwKUgO0tWFnsAoxmhQFp7TyvJEWC32i+PCrvp1gEYQ8cfKrTmbVxqxPVqxTfFi5APST66O5Yr73jxSzwIYGWx9YeqcTuwyn4wo2T+rtrrQK7NJNoCSrWVzHL3Kfw4qRbwfppD/sYT87TjG+73YeJBQHtL1Hk+g2GRR0j47W2jDuNh47mzSbUwFuc8H4NnVhS5fH0bPJpB6WIb31Aja5fHFf4yi17MLXd5eDHwySQvfIrr6Ixg5pBVoigPbuwK4kC1h/fESZi5H0dtJZ36fyYejezF2t0mkeDJLk0EXdr1Jk8G7UUzezKC4O4jIsJOruK8J7dbhCY2Jixl4zswhZb0S8qp8xcHY3T7tmYc2nmlvNkHJYLLRR4gyprUrl1uPR9ugc5f5aovkF7H/L7wgKT6tX6oVH+eBfX70bjVgN+JtH0L0Z+V76+qtiETIg57fzTdcsGwmZ+7yKCbv9WDqOwpw5DyrhTwWb8UROyqvn7YCdTytbAuPi+pVByNrtLKlP0Hjan5trU7m4vfyDNEL71vqthEPnSXLJ8YLhe1OSCruwRDCz+aQoQCu3K45Noqwfob9Xy6SokB2qm9rjc4c5KRRdxVAQ5UzX3928pzONh5q7+l83yN1vFugxZ+6xzld8MiJLZdTVvSb0umGfziG6VuLWP5xHfnLQVQWriBZlcXM9u1MfW0NYi/pzISE9R7qbbLIcuY/6hmPnXzUxvfa22b8cxqjn2XRc3EJpXUKQMU88tk5xD8NkmXbwFoSEx/NojKcwurPFORKy8g/SGPm4kjzBSbRqu079wUQPTeDdGEVpdIcYvtWkPh7pkEsWEPy/Chmn48g9Xidgm8Jyw/ySF+fwsjbWhEjdeOT/HcTh+tyydBv4/vEWknGLjrT3lZsbFGHzahkMfbeGDL+ONI0EdVNXG33lRbHrgO2Ng/RAksq+2gFMuKaeLkGpav2URymf75Bek9xuW7m+dsQPL4xzHd6IJeCSw8datQkHm3df7R4aqPPBsWTmmTtt38zftkFyVcpZIwj9qckEl9V4D0xhIC2q23sCSJ4mELV7CwKxpXkkwzmF9bIMfz1g0mjuZxF5B9SR/eHETnirl0qf1mheue0DacEMHSCAuqNBJImh9pA4e9JzJMzBQOGkPx1EiljOQoOV77MAu+FEOzW9hnopAVElPYnqS7TapomO5nO5zmqpbI5xT2CkRMVzN2dVG7XhD8wTBiHhhChybGurY0Ckl/OAweC6LO5rCjp7KeztW5ZzjwxFG8kUbNoJ0LDUeoz6gvjN8pKlNRlD/oapg36EX6fPOxhks68zVNGZWEMe+nM8fQ3FWwsTKDX24PJf2ofSt7opMWe9UaZme3buYhZOms1Srb2DzqzfOZF5N1mI8Oh/2h9M0f2NMn3r1mkHHwTb7GQIwmD1N8BuKsOT7a7kzH0zzZ4VFBuuYVOROA1POew8TCDdINFoI4z29OiI9wDTzhJ03ONzm4vPI2CgMIyCvK2zzEa6/sMipNPZ24be1SbrArLWDHIUFmYx/wmZ8uuY7TIJwmtvo9ns6RTEa4P+tC3rbN2pzo4QNo0MoLEWgjxv5qfedJpv684G7utsLV5yIXgYNheDorLiScuRI720ZYXwX6q5W4Ks8Zn5sh2mW8yWPuND/6jYYzS3FS4njTLQR6Q+d1edHlPY572O4lHW/efTgSPReCy6kNyJm8Ye6r99m+KsEN7utc7GBXj58YbvlKtPt1Mr1oK7riammR8Qlt78lrP7NBRn/6uPfVr3dax7q9PQ9XbHNeeOLc+Re5MTnOKqpo6Fj7sFi43vYzyK/rUy2milbTfAz4lu0cpZ5PaWJXf9FS/mhLmOhgR04oNpkW0Lr1My5A5HBMztmm/Nco35ZPZVBZhMWPJxtxO2q8qZy11c+acmlYm26o+mV9Nu6vZfuZytN6P7NDtLFNLz2kpe+csKcMyvU2WIRtHL6spizOXIyKgl1Fr0mzgFeEvqB8sqZvN7WyDZmdFJ4vuxqyjRj7vOO13PqrUqacZzpFe/m6ZdknHNsrS0sldUPtV1022cSIg3N1uehnK2/qMdYxp6BkEsmwpJcKyHj0VU0krDAmvrF/2baMsDw0ntl/9q+5f49U0y/FhOY6NafNWSiJ1Qvqb7jNqSmVoj4vkkvXX+qNEPqHYXEu9VNKq3SERssTGZr6zedrvFmzbgg71shnrXxeLv5f2ggj8PqXUY30tPiY7bstXGuBk7OqyWn3XhObfinxN5qFG46DltN/amBzX/FH3tWqGm+7z0h/11GA93jmMR478xw5dH0N6sionHWuMNY7s3x6aLkhUwRq/VGdqwRHOpMSS/I4FxVheETgZF0vGVKIGTrrVBYmk/GBGxCjwKJOb1ma+6njGASdxKOeLkkjL7x2Rn1N5937pMDSR/0iBlbarOeKKPvVy1vF0ScxQAK7VFxLjs8uGNC7dxmmxejMqAhRM5ATmHYyJ1IoxmNoPpFKGFgZHvIrTSqfy9UdFPFerXaLUq7SvpQs2ChgyzVLWcyJlTjPTKOcM9pZtDdPCdcWupJV1sXp7XIT2qwNCsUGG6qL3phRCaXsK9qoNqA23TwSt/dOIct5kZ9cevwidI5saTfh0UUyfCFbLyPrrypSXxNSgZk9DYHBi5zp0O89SnZrdXHsCInp1yZQS2HBBItnUf1RKmZp9XXukfRcb+H/9WDYeq9p8WiwW5WRH23qaoq3PWMeYhmnSlOM0LqK67WjM+aXfPCrT4t9L25t8Vwixue3XxfIsTcQH9TI0fo446B/ymfjJAC2OtGMOarb97oLyvSa1VPOyyF81jE1Z94Oymm5stKet70jfN8ivxByy74/KhyrbsK1jHepkM9avvZefNXjp43TrvtKETceuHiPbMA81GQdifdUUf5SxSrG/ZJ2UTfLW/MGIaW7S++W2XPoZcBKPnPhPI6Q+1blMjdfpL2XfWGKNk9jZBjrkf9TAK0Z+890AEvLBmHZ8rfkr499Fzkb8u8v/K0R+Y+W7CeUBNwqovzBFJIJ7MbY/DfFX+cQVw/wnw/Hxdec1ybJh2sJL9cE+04OwDPNsFiOeHozWPXuTwfw98hefT9vBMAyzc/CC5D+E4r15zF9MIAUXvMr3fjCMRncQI0dLmD0/onz3hvxSo/lrYxg4OobsgRgufMgLWIZhdh5ekPxHUMDsf8vJJg/fyQQuDBseb2cYuBG5mUf6pAfF6xPKlxqNfJFF54kZLN0zfMsmwzDMDvILPUPCMAzDMAzTGL5CwjAMwzDMjsMLEoZhGIZhdhxekDAMwzAMs+PwgoRhGIZhmB2HFyQMwzAMw+w4vCBhGIZhGGbH+Y9ZkBSvDaCjYwxZbfuVI7/yu6MDYw5+LXVLPMsh8dGlV6yP/CrlDgxcs3yD5ytB/fVV+TXp1dZ+ER3/vVH9egAJ/dd8X1aQuzaKS/e0bTu7/hIo/m+Q6zWn8s9LGPJ5lDHb8eYYMumtyV/XH22njWOyzle2S5t97VXH0C2Q+6yH/KMPk/9s4y/YMo7hKySvKcWvJjH2j5K29Z/Jr0HHtvNDCpNnZ1Ey/tQ+swlFpD6bROaNIKZvpZG+HkXv/6599J8M+0prPElg8nMgNpvB1BH+tsCdgBckW+VYXP5S8g78INq/K17lB+TEtzF6xzjFK38ITCwitk/bUQfbdXOKWJFXCfqjGD8RQmjYD7f6Qcts3h+MY163GLovhkWxTPLwYmSnaLggqTxMYux4L/a+2aFe5vT0YOBUAgXLlay1hUsYCaiXQru8Q5hYWEPmbP1lvcr9BE4f3Ysu5ZLpXvS9fwmZn7QPJfol4IcFJE71ae160HN8wlxO8lMGE8d74FHk6sPpf9hdQKygcGMMQ36tTXp5fAM4fa1An+holyDPZkiPCQx5u9RygdMkB5XaWEFSl4VkHjpP5fSzDbvLjcol0tPo0+rp8vZh5HPDMYR+aylj1EHaw2DbLNlv71l5IyOBAfm58l6lcl/2i3acYp8xJKWsm0L2qMrWhb2hS8jZHeZAh4ZUCkieHUKPR8om7T2EsRu6vc2Xexvq+JL85/MRDOiX16WsftWvjCj9pfct2a9X+skP6o8LtoKpP0JqfVLn09dyqFh03vjB0Ge2ttcvt2eQeF/WRbIHr6BQ3V9Q+0Cxj+wDzbefZXHJ6M8GHzXdIpA+97Z6W1KxpXKL0v4yunNZNZl036c+s9pa9mt1TMpx8DnZRvvIxEZR6bvWfEcfgzUfV7Hut4xVzT/UvjKOaQt6XJHvFVs2uB2il7PeirHst7tl81qOSVtf0eUfw+zdCdUPKa6PfSMbdRIvaxSr8ZLkPkrx8r6llJNxrNjWEkO35UOab2jHOorjkl845jBNkF8dX0dhSgToI3d/TMRvpUX69oyY/jAgaN0oXCdSoqQVK38bEz5DuZmLYeHv9gnfAQha/YpVrdzq9ZBwwyX8702JmdtU3/UpET7oEugOifhjrRDVRecfdKy7Wk6tj+o6PC2WtWKilBJhuc8dFOPX9br8IjTop+NjYlErlv8iQNtuETwTF3NKm9MicoTaJDnCN3UNVgWtzgUOkMxUX+zqnFJfSMq/LywigyTLh9N0/JyIf6rqH7isSaLIC0FnpxqrYmbYTTr5RfjiDNmsJr9rkGzxQit1NUjHSRvpslHdZ4JkHyr38ZxYpzKlAh37qdQnLKak7AVVXt3eriNav+h2pPpi35aVMo1Y+qNP0b2qD7XpHQyJINUXvFrtKUc62FJeFDFpt+qxM2LqPT/ZzCVCf5X1a7bW/MJex7KYOyn9otb+3NVxtT9Ixws52ZAQ62QHL9UbIF10f1LKdEfF3M9qGafU+sNgG62vfb9fVPpDsp4dV+xQHRO34iLWT7Yy2Z5sIPun2yV8H8i6aNzczFf3e8nP3AdJX/LbuasxEZB+fCwiItIXzmk2G1b7KTqvtqzKF1THSSkv0l/GhJ/qCn9BMtzO01g021XSiqxGmWr+FBDTj7RiL5bEBa1fI5dpfCh1eWm8GeRSypEcg6ovhpS+M/h1U9/R5D+jj1wd635t2zhWq3rV7FWHtNlt0ovkAMUV6VOLj6msMn4N8lu3dSz7Tf1BvLZj0tZXdPldwuUOKPFz7mpcpOmDluIl+bfL6A9KOZ8Yz+p94Gwc18XQ7frQVuL4DsQcpjG2C5KlL/wUqGhyNxl6Xcx9LJ1Fm/RloNpX7yj6AK0GyJ/nRJQGT+BivhrcFV7kxdRhOl6bhHXn9H6aJhepYQ0AS3/wkhMYFjKSclrESJbagmRJTB2ixQ0FM1Obmix1Qc4SiNZvRW1kIXkPUVmpr9y0DKb1+Sg5ekBMPTC1qC3urBOMMeCoLJ4x2JZQy9W2dXsrdjUOzHXVjqZFm5XSjBKQpT3qbVuTxakOdixflgGNji1oOxTkYHcLb/80WU+ztXGhatXxx5SI7qegaLGNeDStLJD1/YtnqJ7+Wj0KD6aE301BMdNYRjt0G1htowZofWJeFtPSV0+mRNkUFLVgVrW9Osnj0JTIm8pp+/fFRNrQSJ7GWZ0vSB+lfS5aDElU+Qz++TiuTFjGhbDZri3KapFJr1+XqXQ9TO1bJlc5cVjGjVrOK2IZY2XU6qz0qWa+o9VVHZM61v31bSq8ID1MY9oOTVdjGWX8GuqybutY9pv64zUfk/W+Uqs/MmtstdV4aRnnWiyv+qDDcWyNodv2IUv/OYrjOxBzmMbY3rIJ/CGP1UdxBHdrOxQ64f9tL/3dQOU5/XmYxuwTYORkFN43lAIKrmPjiPVrG5Lvskg+88K7u4TsnYzy0+fKa6EEeIDK37NY0opKQsMhGO/geffT8gZZrChXWQvI3qU3w1FEjfdwXSFET9G5QJUALjxYxfLVIEltYLcfflnseYW0MNAfRshQX6dLPcosCx37Dv1pcOkwezeJyh4vOkvZmo7y9aNUs4LkPaOWQYQHzXf8vW9L265gxXrJWEezd/Rjs73R6Uf0Ewpt91OY/5e2z8LGdznMk/yjp4Jm256MgSa/Kq3pYKSI7L0ccGwUkYPaLgUXwtdLWM2OU+sOeCuCmZUSFs9YnoY44Ie0Tpn6TeL5DYWKewlM/on8oqL15KELyJeWMT24lV86DiJ21mwb/4lR2ptD9jvytydkj/tAbzewtGCwy50llDtJ1vsZZI39FgjAb+wjnWMhhAyNuHZ30f8WX5A+SuPHervIMa3KapEJ+3xQRtxjOeA2sPTdPNl2FFHjffU3vIof1qgguyDL0bgcNFZGOp6IIraPfIdkaMvFbctYlbL4pHN9v0Je+AvzWo/JZgTR946x1Rbj5XvUz8Zx/oYfkQgtfe6SXD/QtsNxbKYNPrSVOL5jMYexo+lDrRvPiiiQk81fm8TY+30YuKjchURJ3lorV+hdkBzW2hkUIA5ob4nikxX5P2b/e0j52XPja/IbpQRWpBPr2AXyKmWUHpJLvU0DVNuj433L4lCSl7R4+oEWMXfmkfhsDCNHBzAp71f+VIIpt6NRm5b9nQ1lK5Ke9OeHWUxYdBw6PkmBhyA7bCtg/izt7aeFS73zu9+ilR0t1kpP1W0rpTXZci981gfxdnvgru7bjg507AP6Q4tHm15onY0KKt/nKPAmceX8aQz5RpVnAAqlsvKx7+MrmOovY/b8AHq6din3ukc+TyK35fu5NAlbbaNNzBm5Ei6uKPffs38atdhlCKf/VqBP8ijSBLEpbzgMXE3HwCa0KmtTmWicyGdcfqvawkjnb9yGvi7LcGBbDm+44ZEFrWNuq2zHNu3mtR6TW8BpvKRYa30oWD1xXFHnBp1NxrGZNvjQduL4Lx5zGDvsFyRPZjHq78Iu+eDOu1FM3syguDuIyHDtPHfjeSsdEUT8sXJ7yOaVRmyPVmwbdHbKs80axX+MotezC13eXgx8MonkQhFd/RGMHNIKvAqOxbFqqyO9Mq9jFkQndplPRrasw8Yz7c22qCD3+QA8u7rQ5evD6NkEUg/L8J4aAZ1v1nDRGV22hPXHS5i5HEVvZxHZz+RDf70Yu2t39rV1XIbgFZPZLHZ2EWVMG68Kvga8clk7d5nO7Jl20b4x2QrtiZcu7FLWZg7H8WvB6xdzfs3YLEjWkDw/itnnI0g9XienL2H5QR7p61MYeVsrQqhnSFkUCtaFSREr32tvCY9bDhe7cluhCx4aIIXHxbpLdytP8to7Yi2JiY9mURlOYfVnGrSlZeQfpDFzceQVLQo88LxFf+4WUJC3s14F/+Ui2QsoPq634xqdOchFn6+Bcmof5OtvBz2nM7CH2vtt6eCFb5D+2Fw2L/5tiM4mxjDvZMz+cxqjn2XRc3EJpXWBcjGPfHYO8U+D1PP1dO4LIHpuBunCKkqlOcT2rSDx9wyFmFYpYc26oKIzT3ltL+jvBd70KLeclh7KKwyvOW2VVfOJR6otjGzQGKy1QMFcTqI25WQGQ0k6xT5v87G3tmbpN/LNX9zcRZQsflB80uT6w2s9Jlug1XhZ11dkJxr7Mg54pbwtjmOVNvjQVtixmMPYYbMgWUZB3ko5FkZkn+FS5EYBmduGCHFoiD4H5m4kUTTe7/7XLFKGNK7OwRCi3UDy75ZyL9VULc9RmRbpFD9Cx33AjQSSxoFcySI5a6jlUUG5nBk6EYHX8BzMxsMM0tXB3k46ERqO0vlBEokblgD2RKa1etD3l21GV83edXakfkl+SdoeCKLPevlXo7M/iEi3LGceOEXquznt/fZ08CLYH6DAmcKs8Z459XHmmwzWfuOD38HpdLGQoykhiPAHAbgNrle5kzHISQEg3ANPOElL5xqd3V54tnzKPo/kV0adN5C7nqBldBgh+ezEwTBGD9NC+HoSGVPkqSDzu710Vnna2YLrl6CtsnYieCwC18MknTEbDqJ+Td6o9Yg8Mw4O0vmktRxR+Zr86YkLkaN92h4r2kRUWMaKwa8rC/OYb8tVN4coiws6mVoxeJXmvw15rcdkC7QaL6lPU5b4e+XLLPBeCEGK9c7GsZXt+NDW2bmYw9gi6iiJ1AmZ8eHWUhHVFMXQHpdwu2WKXe1J5vJ8VEnJ0tML5y5HhL9bpoQZnrgmVq+GBPWbcB2MiGklNW5aRK1piJYnrqtY9+vppdXUv2kRUdLs5FPWWsaGNTVYSR8LCW+3m3QwyqY9nW2QVaGBLMqT1npZa5lqypqexpcWM5ejIijbkxlLmpp1WRMa1v3lm+oT5+EvSMc2pP2qfVBLvZ45p6bTSR2qT5g71MGWatpvQO2X2zNiXOtjNR2w3tZ1OuYuqPrpfiLTYE8EhFv2m+Fp/9W/6rqMV9Nax5V0WWPqoU1mhQ161kEt5XFOTH+opSsbnryvZo/pPiXb1NOaq+UatWm/394XNDvpulrLPCXfprq8J6ZIVvu037bKqvtENS1S71cqY5RryymbNFzJD2R88A0b0v3dIREy2KFqF+tYbbjfiI2uyvg1yq+nN2v+q6UU+wZDwm8oVzdOX+cxWecrNv4kaTVeWtJrFX2NmY8Ox3HjGLrFtF+rD1jr1zDF8bbGHGa72CxIiHJexE8GyCGpQ6gTvAdDYnx2WZS/u6DkYhvTr0qZcRHarwYo1x4ql1m0dY5Shhz3iFcJPDL4+/qjIp4zjKYGzmO7/+lSTb5urwicjIvURTnQaimk5QdxEdXbozL+4XGRelQWS3+UacN67vg2HNmuzIuSSFMwDdDiTX4Gt08ESbalp9rnhP0kZLO/vCSmBjX59RQ1uTs3I2I0ENTARXaUeq00D3wq62L1dq2v3PtlX1Fd9N6U8uZAh4aQ38xQIPPJICb95gj18QNdNhtb2+ho9Ce17WmxWJSLZNquplGui+VZWiQf1P1Ja8voTw0nXDNVu2dSVX9RbHN71ZwCSZQfGG2vjQtTOYeTvIa9L2h20gNhXRny4YtyspAy0CRQtPfhtsq6virS5/R+VX1OfsdFneyynMF3XHsCInp5UZSaLEZUyiJ/NaodV/MbZbxV5WgwVhvuN2KjkzJ+LfL/mFYmGcVm5Huhc2lRUlJna+Xs+uz1HZNWX7GXX9JSvDyTFqs3Df01GCN9zaPF0Ti2i6Fb8qEGPuAkjhPtiznMdumQ/1FHtJEiEsG9GNufhvhrSNvHMDuAvKx91YfFq0FtRz3ymyv3ngXij/nrwJnNYX9pI/KbWt9NKA9g04KCYZqn/Tbl2SxGPD0Yrbu3mcH8PVqD+3zaDobZCTZQ+CqF9d/I9EuGaSc+eNuQGfirR3nupvGDv8yvj60vSLqDGDlawuz5ESUfW35Zz/y1MQwcHUP2QAwXPmQvY3aQlwXMPQjiyse8MGbawFqBYlwCl+TDm4e95i9CY1rjZRHZr+cxeS1F84gXHre2n/nVs/UFCdyI3MwjfdKD4vUJ5ct6Rr7IovPEDJbuxRF0acUYZid4I4Cp21MIsB8ybaDy3TRGj49h7nkIU3+K1n95F+Oc/5nFxPsjuFTwIfrnCwibvhGc+TXzCp4hYRiGYRiGaY1tXCFhGIZhGIZpD7wgYRiGYRhmx+EFCcMwDMMwOw4vSBiGYRiG2XF4QcIwDMMwzI7DCxKGYRiGYXacX3BBksVYRwcGrlm+2fW1QP3l4Y6zWW2b+ffidfat15Vf1uflV653dAwgof9K7MsKctdGcemets2Y2Pghg4mzSeolHdXH/31iFI9JpnX4CgnDML88P6QweXYWJePP9jNVlv48hCvfb2hbDPPrgBckDMO8crxnFiEE/yDd1gkiLn+dvckPRTLMvzuNFyTPckieHUKPpwMdHR3w+IYwdqOAivZx7ZLvLLLn++BRyoxhXilQQeHaafR5u+jYLuwNXUKudmAN5bKtXq4DXd4+jHyewZrxrEn+IqS81PuwgMSpPux9U8rjQc/xCWR+0spoVB4mMXa8VytDL08PBk4lULC0vbYwgSGfRynjCZzGrH4Z2cQGincuYeToXnTJut7ci773L9W1aeL5PE5T2102l1U3vj6t6mHblooj+SvSDgOGfhnA6Ws5VCxnmpX7CZzeTHaqS/axbtM+2dbDBAbomLG7Whnd/la5LfvVS/JjmL07gT4pG8k+9o0UnHzhxhiG/JosVZmNvqRf3i0Y/Eb1uYmFNa2MjkPf2igi8/lIc99qxE8ZXHpf9Wmpx9DnZF9F3zGSVNLodof9fkd9YcfLtU11aKvPa+0NaOUU+/rt+sCGTWQ13bKRtnxbtaVir6pdnetTB/XZRPU4Te47RRrFZrbcF0afoOOGzpNuCzZjQ/rd+WZxk2g6hlUfGrhGb8lOe+lz9baHzS0bBz6uj8uMYp+eqvzKWLfa1Instjgck8RW7G/SIaQd6+nTYsgGVm4Y27bOC22OP63MWQsJjMhypOfAXwrKR1v2718L8qvj6ygvitgBCHQHROzqnEjfnhFT7/mFi4r7ziyKslJoVcSPyTIu4T4yLmZuz4n41bQo0SdLf/QJwCX8H06LObn/TFB4B0OC1vYieHVVOVoePzPspuP9InxxhtpIi5mLYeHvhnANxsXqC63YtzGqyyt8B9zC/94UtVMrh8PTYlkrJgpTIkD1u/tjIn4rrcg8/WFAkdl1IqXIJSndDCv73P1SZq2ugyEROkT1kW46q1dDqr7DaptzV2Mi6Jb6hkT8sVbIhsUzLioTE4u6/ArrYu4kHfveTFWOOhzJr9n8QEiMK/1Ctv1ULRO4XLWEWL0eEm5pf81e6etTInxQymWQ/QXVNSj3afa/FRexfrdwHfAJL9UX+1Yrp9g/WK+zZf/q1aDS5y53QIxfl/aKizQJnf8iQPvdIngmTr4gZZkWkSPULpUN39StQf5GbXqpbffBsJii46syIyCmH2nFCEe+pesGnwgpvqWWc0tbGn3LjvKciMp+dgcVPaQcIRoLgcNSD+pXpZDWDwZ/Uanf76gv7KjqoNuupoPv94vkUURbfb5MPirlqo3Huavjiu7SjhdyWjE7HMiq+ofmL6W8SH8ZE376PPyFlDuvyupQnzp+Jv/ZR2WORMS07DMZr4ZVP4nOK5ZS2HJf6PGQfEKJh9pxPvJX09ggOcZlfXo5ox2scbPhGF4Xq9k0xVsqcyimyLn4WOqgjpFqfzn0cdXuPiV+WvvG9fGc6kcSR7Lb4yzeb93+9Tro/esV4Q+ozoPU7+QvMkYHLPNCe+NPK3MWxcJun4hclv4yLVIF2r9V//4VYbsgWfqDlwxqnYTWRf6i7Fy9g7SBhYhIGb21NCPCNk6sOlXNQdfno9QRATH1oBYwFJROMwQSpXPJWT5N29RXk3HpCz85FE0YP6vbKrQQ+Fg6lTaRvFgSF2TgskxK5UxMmYSrg13TwdqmeJoSUel8xoFs5bsLVJerNqFLfqZJjuoLX2/sco7kfxxXBnkso3yoURapD13COxxXB6Fsi2QMXMybZXyRF1OHa7KXroepXh/JadCwGuS2uiCBiMwaLbYkpg7RYpLsapJFk7E2GWrBdl9MpI2Ha/pWg5pD31J185KdTL0nyrPS58yTlJWlP9r4fjmtTHgtL0gc9oUd6vggWW+ZdZAB1r0/JuZod1t9/kfy7f0UuA0TiMKjaSWI1u034ERW63it+rJhnDjSxw47H5U2PuQWvnNp1cbb6AslHlonTX2RYmh3+TLFx+6oSD1Vt3XKt9RYp8RNJ2OYWDxDdR+jPtO2rQsSpz5uHRs6yomTwaaOZLfD4Zjcjv1tdZD1SXtYYkaefAigvirKrfbGn1bnLD/pamTL/v0rwuaWTQ7pr4vAyRiipvu9nfB/HEWYPk/dUS8/KRzrM/2i6sZ3OSNrkxsAABXOSURBVMzDj9FTQRh2wyvr095LsneTqOzxorOUReZOpvb6EfCgguS9Ja2kSmg4ZK5vv/y9zSxWtIe4A3/IY/VRHEHTL0eSzL/tpb8bqDynP/9DbT0BRk5GTT8f7hqMInpI2yAqdzOKDtFPzG2iO4Lox15U/k5yyvrsODyEyL4K2ah2abXyTQpJslxokM43GuBIfrcH3m4g9cUEZv+1hg3lMqELkZtlrN6Oqb9A+l0WyWdeeHeXkDXadaEkDUuyZ7FE9s0uzAOHRhE9ZtDwDS9iZ0a1ja0QRN87RosFcOHBKpavBkkTA7v98NPpMZ7LC64GjoUQMh6+z6folH2sdrIz39J1oz4dNPUeXCeiiFHfJMke9o8LFuhYaovKjRp93xVC9JQUuEUc9YU9S9/NodI9ish7Zh38f1hCaSWOMO1up8/jrQhmVkpYPEPLFCMH/JC1lamvGuFEVic40scOj5c8LYvEZ1eQ/V7zqTf85HslLF8Oqb635b7Q4uEw2cvkE0GMf0LTVZUi+U4O+C0pmzPUT6+lSie8VE/mHtXjZAxvSqs+HkR40Nyv3relTVewotxucii7DU7j/XbGgopFh90utV8tMcN/sI/+J80Vu7Y3/rQ6Z/UdNseMLfv3rwibBck6KuSk/rfJ8NqeKm6v9B0USmV124bSmuy8XvisD6/t9sBd3VdEUQ6EH2YxcXwIQ6bXJDk48WSFShkwBNNmbDwroiAXFNcmMfZ+HwYuyoVBkeSiP09LNOX4aTBaNaOBYvD1ckUGXxsdCDcFv2p9drwRwNAJWrR8NY+sMigq5LSk0YkRjDRej1RpKv/uMC78OQLv91cw6vdgl2cveo+PIXFnpfoMSZHsJsvP/rfVrkOY/EYpgZUfyig/o7fv0MCUu4y87aOh32Ze0mD7gSZ7skPiszGMHB3ApHxG5acSKBzVeKPO40w48y3STXbfb9VgYuINt5y76tutUkbpIf1xu80LUUINdK3hrC/kXyu0nyZW+H2mRUQj2uHzVTYqqHxPE9CdJK6cP40h3ygStLvxmG9NVic01ceOA1FcuRhE+asJDPi6aFz0YOD9S0jerz1DsuW+eFlW4mGQZrA6CyonRTp0vExhvkdj01L/0CcJ6gMgXyT/dTCGN2c7Pm6HQ9ltcDYmt2H/zbDGDDsfbEv82cKc1YCW/ftXxC+YZdOJXdYofyyOVfW2Uf0rE6OQ2QJPZmmAUzB6kwb4u1FM3syguDuIyLCTM9tOdJpWrdsjcJwCzrMMsvdpg/7OfQ2ELVd46nAov/fDFPI/lpC/Hcd4vxcbDxIYO94D7/EEitWAFkT8sY1NlVcasT006fysFX3FFP8xil7PLnR5ezHwySSSC0V09UcwYjw73zY2vtVutjzZbtYXWjErTiantvp8BbnPB+DZ1YUuXx9GzyaQeliG99QIwlqJhjieSDdhy/q4EPjjIko/r2Lp+jSi73SieG8SpwNUz9ksaaazhb7Y2DCfRW+Gkk1kV79A+c/qUt/ZGN4BHMjuHLsxucWxsA3aHn+2M2dta7z+OrBZkOyCi1a2hcf1T6iDVsNyRRl8u7HZPW75WV67FGjgOa0w5dmnggeet+jP3QIKbblMtYbk+VHMPh9B6vE6OUcJyw/ySF+fwsjbWhHJmx46Vyyg+Niq2QpWHmlviS6XHEk2OhBrJbkGprPBZoPn8Aiih+hsIJPD2sIcrZ6jGLVczjbjUH6dTjf8wzFM31rE8o/ryF8OorJwBUmyr2r/LAqFZmFUOzt+QPZXd9QorpDmVqjf5RUVA8UnDs4F1pKY+GgWleEUVn+mAVtaRv5BGjMXR1pbbGo48y2aUKWpH1GfqjtqvFyD0n37SH91jwUvfP30Z23NMImpFL+vq82mHMlhMKizvrCD5DhAShTojMs6Qd2boDPgAVz5V3t9Hv+cxuhnWfRcXEJpnSagYh757BzinwbJos1wIqu23ZQWx4Adu70InBzHzO08VmnCn/vUi5VrCWTId7fcF9qZfrZQqIuHZp/ogkdOcrlc/Ziyo8kY3pzt+LgdLcpuwNmY3M5Y2AZtjT/bnbPa4N+/AmwWJOotB9xIIGlysg0U/p6kydWHYKBxd3b204qvu4DklxlTsC7eSGJOey9Xz6HhKJ3XJJG4YZnYnsi0Uw/6tDQpZyyjIC/7HQsjss9w2W2jgMxtQz0HQxg5ACRJD2PwrNxN0tmgtkG4joXorLBeBzybpWOLcH3Qh76mZ8x+hN8PoPh1ClP35uH6OIRQ0yswzuTfWJhAr7cHk//Udkje6IT3rdq9oM7BEKLd9TripZpO6Dl6hTRzIThI570PU0jeNWpYwfxXKbPO/+WiwVvEyorheiLVlfkmo2004VFBuZQZOhGB16D/xsMM0o4CrxlnvqXrlqSzIZMmqHxN/vbEhcjRRrdfvHRsAKByKaPvv8xRm/Kyqo42IRSWsWL0o4V5zBsWbs76wp6+oyNwPUthVkmd1qkg8/U81p774D/QXp8vFnLUy0GEPwjAbaiucidjsK09m8uq7WqKQ31sWPnbCHo8I0gaL3nThO/1yE5S2XpfaPHwDvmTyScKmJ01+oQ65m39bmEMe+ms+DTZx8kY3pzt+LgdzmS3w9mY3N5Y2DJtjT/bnbO27t+/KoQdraT9mp4EV1FTZmvpXTPn1PQx2Vz1SelqRoeeLkblLkfV1Fr5JLL+tLP2xLIpa0Vi2l8SqROyLrcIntNTFmMitMcl3G437a89CV+m43x0nJ56NXc5oqYQS/mqT13rOpC+Lab9VlGyE2TqV/OsDhWH8svUPC39MHpZSzsj+WWqm5JFoVZWld2lpcPJtLNov6zHkFXzIi+m+6nNagrbjBiXab8kr8neMkvD6AtaerBvMCT8BrvWZVFISikRlrbVU2iVlMCQ8Ha7SS/aX/UdcwZBjfr9rfnWFtJ+dRsb9T2i9qPxSXg9lVb3DyX9zx0SIUv2jaO+sMNGh+kP5Rh0idBfpZ5t9vncBaVMVU455k8EhFv2lSkjwYZNZbXxj6fkG9Se98QUjX2Z9utcnzoex0VIjoGD4Voq7bmQok81RZrYcl8YUsFVn5gWkYO6Txjkqmbe6DpIOSxpoQ7HsJrtRT5I42b7ab/1tqvb70T2Bjgak8RW7W+vQ4OYocwLWtl2x59tzVnb8O9fEfYLEsnTJTFDneeTxibjuveHxPjssiG1izqnwYJEpjKt3h4Xof3S0NqxmRmlc02pWy9KIk2BPECdogRHt08ET8bFkjH1zLZzCev+cl7ETwbI2aS8LuE9qMmrpeEaFwXlXFxEj3jVwbEnIKJXU2LKMpGoOkyJsFYO3V4RODktFn/UPt6UZTF9WB4XFXOmNK8GOJX/6aKYPhGs9ou0WehcWqxa1jyljEF2GgS+/qiI5yyD3tSmm/SLi/ysjb1/TIvxYZ8aZLT2SkpKXG0QNQp85Qc1W0sb+ofHRepRWQ24Vds4DAgKDn1rfdXkW0o/X14UpWaLER2jXUhmqe+iop8xNa8s8lejWv3UX0fIvg/KarqmRQ9HfWGHZXyouhpSx9vs86VMza7qWCR/L8pAStvG7/yxYxNZ6/2DfOCinByk7FqaZgv6WFlfSYnYsF87VtdxSZQt/b3lvjCOAZNPWHyedDDGTdcef/34dDKGH6dE9LDaFy5aVNmOBQc+7nhBInEiuy0OxySxFftveUFCtD3+bGfO2oZ//1rokP+R8Zi2Iy9F7sXk/kWU/52+7ll++2RoBfHH/DXfRuS3Re4968OiiOPfqDeZV4juE+kXcYTalGHEML9mfsEsm18Z/5pF6q4Xsfdfz+kr91kP9vontdRkHZminAG6ffC9gifeGebfjwpm3/egJ5KkUwwD8jkq+V1Dx2is8GKEYdoCL0jaTOXuFUycP42BwUnkjo0jekT74DUjEAqj81+XMPruGBJfyy/4SeJSOIjRv5UR+mwcQQ6yDEO4EBzuQ+mrCYyELylfOJb5OoGxd/swdteH2LnRLWRsMAxjBy9I2k0lj9SfkljeE8Pc9Ra/S+WX5PAUlnJxDCGLqffll/tMIPnUi4nbecxZv62TYX7FuOX3htyOwlNMql+K9f4UsrtHMJNbQtz4TccMw2wLfoaEYRiGYZgdh6+QMAzDMAyz4/CChGEYhmGYHYcXJAzDMAzD7Di8IGEYhmEYZsfhBQnDMAzDMDsOL0gYhmEYhtlxeEHCMAzDMMyOs70FycsiZk/1Ye+bHejo6MDAX/5/GKO/HWeNP8u9CXfHlGPH7mrb7eZZDomPLqEFif5j2Pghg4mzlq+8biPytzw6OsZ+lbZlGIZh2sv2FiR3r2D0xgrcH84gfTuNC8Nu7YPXh+JXkxj7R0nb+nWx9OchXPl+Q9tiGIZhmNeXbS1Iik9W6P9ejP4uitBwCMF9/1/EhYBo5ddtj8Uhvyw2fkzbZhiGYRjmV0fjBclGEZnzQ+jxqLdjPL4hjN0ooKJ8KH9avwN7lVszWYy9LcvIS/f03uaWzdrCJYwc3Ysu+dmbe9H3/iVkftI+tLtl87KC3LXT6PN2KZ91efsw8nkGa4ZfptVvF2R+ymDieA88et2nEiioQiJ7VpcxgQGLXMrtDP24Dg96jo8h+VA70JYNzH9C8rxJepp+IZd4Po/TVM/ANfubIyZZQ6odpE6nr+VQsdHJegvEvF+1fcdZssfCBIZ8HvpMr8/cPwPX6C3Zd29VNrV/6uW02U+yXnp/oNr/0ra9xydq/cYwDMMwbcR+QfI8i4lAL4b+sYHg/5pD+vYcJo9tYO5UL/poUq/Ag9Af0pj51E+F/Yh9maYyUfSoR5soXhuCLzSJpf8thKlbacx9FsKu7yYxNDiB7HOtkIkikmEf+i7m4Tk1rdwKmj7lQfEq1XM8gaJpMUByDkZR2BNDgmSMf+BF8cYYgufnafkA9JzSZQxjiupJn1Il3Lg3gb53hpB6HsQkyZS+NYng8zmcfkf+gmejRUknwidG4XqWwvw9bZfGxkIGSWojcqLZj9JJWUeR7Y4hSbJODQJzZ/vQdz6ryNoypEPwVAHe3yVI/jhGvWS3s0FMfCNrU/tn6j16eyiGGXk7bdCjHOaICi2w/EOYfuzC6Beyb8m2J33YuHOF+m0SOeuCjGEYhmG2i/xxPSvLlwMC3VGReqrt0CjfigoXAmL6kbq9ejUogKCIP1a3hVgUMaoSZxbVzZ/nRLQbwnVyTpTVPSqFKRFw+0RsnvZ+G5M/7idi36ofrc+rbUw9WFd36Mhj4BLReXW/2jZE8Oqqsq2zeMZF+2MkiYparrZN2onpw1KmlCi/0HYplMXcSTr28DSVaMCLJXFhHx2r66ewTseRzu/NiJK2x4ouq4+OM9oh/wXZuc6eRllVzPtXRfwYtWeyO/GCbE+2rtqeWDxD28fidISO2j9Wm1n3l25Ghc9tqZ9Q/MLQbiN5GYZhGKZVbK6QFJFdyAG/dQG5DDJ3aq+lSie8yCFzz2HexoMlzD2js+wPwjD9SPfBC1gqLSP+Xv1Pd2fvJlHZ40VnKWtqO/OjPO+vIHlvSSspCSI8aL4q4X27l/5fwcoTdbuOJ1TvfaC3G1haMNR/ZwnlTqrrfgbZRse+EcDQCS8qX83Xbts8m0fqBhAeHkLzR3qDiJ0NmuzgPzFKe3PIfufQnkb6wwjt095L3vDCJy8Gfb9CPbg95EPKy6VFxIz1E76D0rZlVGyvbDEMwzDM1rFdkKzIWxL3rmD0+BCGjK9PEijQR/misymvSJNjBb3wNbuTYaKIolwM/DCLCWvbxycxL4s82eaEW1xRnsXI/mnUUv8QTv9N0Q5FWvw0IhCKwGu4bVNZmCO5whjZNMPIB59lgsc+2kd/Mitb0OgN7e8rZKNSwQot0DI3rmDi1BB6PkrQ3gJKT9XPGYZhGKZdNH6o9cyikv1i9yr/2WEWzcstppwei2PVpl3llYnB8fqmCbFvbepWXmVM92uF7DgyhMi+CjL3crRBf+/QMunECELd6sdbwfULLC5aopLDpaAHu7q60BMYxdjVFArPvYieCGsFGIZhGKa92CxIuuA5RH9yOeVqyHbwHvDDhTzqLwBkMeHZi4G/WFvwwPMW/blboAlQ3dN23vRA3tlYerhV7QIYOeVH8es0cmsZzH0NZaKuv/lkpYS1Z9pbnScrkInTQb+8FaJTX65YzGvv2kPx6Zr2TuMH81Wn3OVRTN7rwdR3JazTAm21kMfirThiR7u0EgzDMAzTXmwWJH6E3w8AD5NILpgzTioLY9j75l6c/qZZeqyBd/ow0l1B6qt5LR1VpbIwj/m1Mny0YDHTidBwlCb3JBI3LKuYJzJ114O+ukVMixwMY/QwULieRMakRgWZ3+1Fl/c05jdRzz88isCTWaS+yGK+O4rQYKf2STPmkfzKqNMGctcTtDQLI3RMXc50ueTfApa/VzZVKhnM33Fo703ZBdc+WpD8zzKMS5LinXlktPe0hfxDkrM/jMgRN/WIxssK5hfmtA2GYRiGaS+2t2x8H08hdqCIRMiHgfM0cdOElTg/guBHCZTfGceF4c2vByjsDuPCZyHgxgj6jl9C8g5Nrn8aVesZnMK4zZehdQ5fwNSgC9mzvej96ApNxhkk/3QaA0fHkD0wgqmT1kVMc9RJPoPE/0WT7r/kNOxD9GIMPlrgDPkGMHEjg8zXCUyEgxj9Wxl9/30B4c3UOxDCyOEiLbTm4HovhNBubf8mZM/2YeBsgnSax5WP+hD6v0oIXZ1GVHv8xHVsBOHuIi59OoRLUq4blzDSH0Xx7Ra+aM7ALpcXuJvCFaor+0TePgtg6AMf8M0Ewr9T5UicHUDfl7QQlFfFFLzoPUxl7k1iRLO/IsdRH2ILnZtcCdK+h+bdxPae82EYhmF+fYhGlPNi5kxI+NwyxRTCtccvQufSYtWQjaumfTZJ+9UoZaZE+IhX0GQm4PYp9ZT0lFtL2q/Ci5JIXwyLwB6ZwqseEzwZF0uGNOT6tlXq9peXxNSg1vZgLQW2/GBGxIZ9gtYCVN4lvAdDYvz2qrAkGzdETYGtpSE3oypTJiWimh3c++3bKz+IV8u49gRE9GpelBUbWdJ+Tem8Epv9j6m9w246lur6vdYn0rbn9H51C9/wuEj/qB5bTQc2lZGyBkX08qJY/TElwrQduKwmRten/Wr9XycbwzAMwzSnQ/5Hkw7TIvLbU/de9GGxFEdwk4dSlbJngfjj+lRahmEYhmGaZdkwjXlZwOxsFt6PRzddjDAMwzAMszm8IGmFZ1lcOT+B0++GMHk/iPFTAe0DhmEYhmG2Ay9IWqKC/D+uILniRexWim+/MAzDMEyb4GdIGIZhGIbZcfgKCcMwDMMwOw4vSBiGYRiG2XF4QcIwDMMwzI7DCxKGYRiGYXYcXpAwDMMwDLPj8IKEYRiGYZgdhxckDMMwDMPsOLwgYRiGYRhmx+EFCcMwDMMwOw4vSBiGYRiG2WGA/xshCWe9L6VmKwAAAABJRU5ErkJggg==;" vertex="1" parent="1">
          <mxGeometry x="1000" y="150" width="548" height="528" as="geometry" />
        </mxCell>
      </root>
    </mxGraphModel>
  </diagram>
</mxfile>
